{
.appVersion = "1357";
DisplayStrings = (
abcdefghijklmnopqrstuvwxyz,
ABCDEFGHIJKLMNOPQRSTUVWXYZ,
"/Tbar",
"/tbar",
t,
"/Hbar",
"h/hbar",
"/hbar",
"/tcedilla",
"/Ohorn",
"/Ohookabove",
"/Uhorn",
"/Uhookabove",
T,
"/Eogonek",
"/Emacron",
"Ç",
"C/Ccaron",
"/Ccaron",
"/Aogonek",
"/Amacron",
"/aogonek",
"/amacron"
);
classes = (
{
automatic = 1;

glyphs = (
{
glyphname = .notdef;
lastChange = "2021-12-03 04:18:32 +0000";
layers = (
{
layerId = "6544E2DB-1912-401E-9B5B-A29F161A5995";
paths = (
{
closed = 1;
nodes = (
"479 0 LINE",
"488 8 LINE",
"488 621 LINE",
"479 630 LINE",
"58 630 LINE",
"50 620 LINE",
"50 9 LINE",
"58 0 LINE"
);
},
{
closed = 1;
nodes = (
"154 150 LINE",
"244 316 LINE",
"154 479 LINE",
"173 514 LINE",
"263 350 LINE",
"354 514 LINE",
"373 479 LINE",
"283 314 LINE",
"373 150 LINE",
"354 116 LINE",
"263 279 LINE",
"173 116 LINE"
);
},
{
closed = 1;
nodes = (
"67 613 LINE",
"471 613 LINE",
"471 16 LINE",
"67 16 LINE"
);
},
{
closed = 1;
nodes = (
"437 49 LINE",
"437 577 LINE",
"102 577 LINE",
"102 49 LINE"
);
}
);
userData = {
assembly = "SVTCA[0]	/* SetFreedomAndProjectionVectorToAxis */\012PUSHW[ ]	/* 1 value pushed */\0122 \012MDAP[1]	/* MoveDirectAbsPt */\012PUSHW[ ]	/* 1 value pushed */\0120 \012RCVT[ ]	/* ReadCVT */\012IF[ ]	/* If */\012PUSHW[ ]	/* 1 value pushed */\0126 \012MDAP[1]	/* MoveDirectAbsPt */\012ELSE[ ]	/* Else */\012PUSHW[ ]	/* 2 values pushed */\0126 7 \012MIAP[0]	/* MoveIndirectAbsPt */\012EIF[ ]	/* EndIf */\012PUSHW[ ]	/* 3 values pushed */\01216 6 2 \012SRP1[ ]	/* SetRefPoint1 */\012SRP2[ ]	/* SetRefPoint2 */\012IP[ ]	/* InterpolatePts */\012PUSHW[ ]	/* 3 values pushed */\01217 6 2 \012SRP1[ ]	/* SetRefPoint1 */\012SRP2[ ]	/* SetRefPoint2 */\012IP[ ]	/* InterpolatePts */\012PUSHW[ ]	/* 3 values pushed */\01218 6 2 \012SRP1[ ]	/* SetRefPoint1 */\012SRP2[ ]	/* SetRefPoint2 */\012IP[ ]	/* InterpolatePts */\012PUSHW[ ]	/* 3 values pushed */\01222 6 2 \012SRP1[ ]	/* SetRefPoint1 */\012SRP2[ ]	/* SetRefPoint2 */\012IP[ ]	/* InterpolatePts */\012PUSHW[ ]	/* 3 values pushed */\01223 6 2 \012SRP1[ ]	/* SetRefPoint1 */\012SRP2[ ]	/* SetRefPoint2 */\012IP[ ]	/* InterpolatePts */\012PUSHW[ ]	/* 3 values pushed */\01224 6 2 \012SRP1[ ]	/* SetRefPoint1 */\012SRP2[ ]	/* SetRefPoint2 */\012IP[ ]	/* InterpolatePts */\012IUP[0]	/* InterpolateUntPts */\012IUP[1]	/* InterpolateUntPts */";
};
width = 538;
}
);
note = .notdef;
},
{
glyphname = A;
lastChange = "2021-12-03 07:30:48 +0000";
layers = (
{
anchors = (
{
name = bottom;
position = "{165, 0}";
},
{
name = ogonek;
position = "{360, 0}";
},
{
name = top;
position = "{249, 591}";
}
);
layerId = "6544E2DB-1912-401E-9B5B-A29F161A5995";
paths = (
{
closed = 1;
nodes = (
"375 0 LINE",
"378 591 LINE",
"128 591 LINE",
"-37 0 LINE"
);
},
{
closed = 1;
nodes = (
"198 184 LINE",
"202 233 LINE",
"202 237 OFFCURVE",
"204 271 OFFCURVE",
"206 291 CURVE",
"184 184 LINE"
);
},
{
closed = 1;
nodes = (
"140 573 LINE",
"360 573 LINE",
"357 18 LINE",
"183 18 LINE",
"186 96 LINE",
"171 96 LINE",
"154 18 LINE",
"-15 18 LINE"
);
},
{
closed = 1;
nodes = (
"147 27 LINE",
"163 105 LINE",
"195 105 LINE",
"191 27 LINE",
"347 27 LINE",
"351 564 LINE",
"146 564 LINE",
"-4 27 LINE"
);
},
{
closed = 1;
nodes = (
"229 450 LINE",
"205 175 LINE",
"174 175 LINE"
);
}
);
userData = {
assembly = "SVTCA[0]	/* SetFreedomAndProjectionVectorToAxis */\012PUSHW[ ]	/* 4 values pushed */\0129 4 2 4 \012CALL[ ]	/* CallFunction */\012PUSHW[ ]	/* 1 value pushed */\0129 \012SRP0[ ]	/* SetRefPoint0 */\012PUSHW[ ]	/* 2 values pushed */\0123 2 \012MIRP[10100]	/* MoveIndirectRelPt */\012PUSHW[ ]	/* 1 value pushed */\0122 \012SRP0[ ]	/* SetRefPoint0 */\012PUSHW[ ]	/* 1 value pushed */\0125 \012MDRP[10000]	/* MoveDirectRelPt */\012IUP[0]	/* InterpolateUntPts */\012IUP[1]	/* InterpolateUntPts */";
};
width = 422;
}
);
leftKerningGroup = A;
note = A;
rightKerningGroup = A;
unicode = 0041;
},
{
color = 8;
glyphname = Aogonek;
lastChange = "2021-12-03 08:15:30 +0000";
layers = (
{
anchors = (
{
name = bottom;
position = "{164, 0}";
},
{
name = ogonek;
position = "{342, 0}";
},
{
name = top;
position = "{247, 591}";
}
);
background = {
components = (
{
name = A;
},
{
name = ogonek;
transform = "{1, 0, 0, 1, 68, 0}";
}
);
};
layerId = "6544E2DB-1912-401E-9B5B-A29F161A5995";
paths = (
{
closed = 1;
nodes = (
"376 591 LINE",
"132 591 LINE",
"-37 0 LINE",
"136 0 LINE",
"155 86 LINE",
"192 86 LINE",
"187 0 LINE",
"270 0 LINE",
"221 -10 OFFCURVE",
"187 -49 OFFCURVE",
"182 -83 CURVE SMOOTH",
"177 -117 OFFCURVE",
"207 -151 OFFCURVE",
"265 -151 CURVE SMOOTH",
"315 -151 OFFCURVE",
"337 -137 OFFCURVE",
"345 -133 CURVE",
"333 -96 LINE",
"330 -96 OFFCURVE",
"324 -99 OFFCURVE",
"315 -99 CURVE SMOOTH",
"299 -99 OFFCURVE",
"280 -85 OFFCURVE",
"283 -61 CURVE SMOOTH",
"286 -39 OFFCURVE",
"305 -10 OFFCURVE",
"342 0 CURVE",
"375 0 LINE"
);
},
{
closed = 1;
nodes = (
"227 466 LINE",
"202 163 LINE",
"166 163 LINE"
);
}
);
width = 422;
}
);
leftKerningGroup = A;
leftMetricsKey = A;
rightKerningGroup = A;
rightMetricsKey = A;
unicode = 0104;
},
{
glyphname = AE;
lastChange = "2021-12-03 07:30:48 +0000";
layers = (
{
anchors = (
{
name = bottom;
position = "{232, 0}";
},
{
name = top;
position = "{346, 591}";
}
);
layerId = "6544E2DB-1912-401E-9B5B-A29F161A5995";
paths = (
{
closed = 1;
nodes = (
"479 0 LINE",
"500 153 LINE",
"385 153 LINE",
"386 218 LINE",
"500 218 LINE",
"524 386 LINE",
"387 386 LINE",
"387 397 OFFCURVE",
"387 406 OFFCURVE",
"387 413 CURVE SMOOTH",
"386 436 LINE",
"540 436 LINE",
"562 591 LINE",
"131 591 LINE",
"-37 0 LINE"
);
},
{
closed = 1;
nodes = (
"204 184 LINE",
"214 302 LINE",
"190 184 LINE"
);
},
{
closed = 1;
nodes = (
"230 428 LINE",
"235 450 LINE",
"233 428 LINE",
"212 175 LINE",
"180 175 LINE"
);
},
{
closed = 1;
nodes = (
"143 573 LINE",
"541 573 LINE",
"524 454 LINE",
"367 454 LINE",
"367 439 OFFCURVE",
"367 424 OFFCURVE",
"368 411 CURVE SMOOTH",
"369 398 OFFCURVE",
"369 383 OFFCURVE",
"368 368 CURVE",
"503 368 LINE",
"485 236 LINE",
"368 236 LINE",
"367 219 OFFCURVE",
"367 202 OFFCURVE",
"368 186 CURVE SMOOTH",
"369 170 OFFCURVE",
"368 153 OFFCURVE",
"367 134 CURVE",
"479 134 LINE",
"463 18 LINE",
"189 18 LINE",
"192 96 LINE",
"177 96 LINE",
"160 18 LINE",
"-14 18 LINE"
);
},
{
closed = 1;
nodes = (
"153 27 LINE",
"169 105 LINE",
"202 105 LINE",
"198 27 LINE",
"455 27 LINE",
"469 125 LINE",
"358 125 LINE",
"359 245 LINE",
"477 245 LINE",
"493 359 LINE",
"359 359 LINE",
"360 463 LINE",
"517 463 LINE",
"531 564 LINE",
"150 564 LINE",
"-2 27 LINE"
);
}
);
userData = {
assembly = "SVTCA[0]	/* SetFreedomAndProjectionVectorToAxis */\012PUSHW[ ]	/* 4 values pushed */\01227 3 14 4 \012CALL[ ]	/* CallFunction */\012PUSHW[ ]	/* 1 value pushed */\01214 \012SRP0[ ]	/* SetRefPoint0 */\012PUSHW[ ]	/* 1 value pushed */\0122 \012MDRP[10000]	/* MoveDirectRelPt */\012IUP[0]	/* InterpolateUntPts */\012IUP[1]	/* InterpolateUntPts */";
};
width = 540;
}
);
leftKerningGroup = AE;
note = AE;
rightKerningGroup = E;
unicode = 00C6;
},
{
glyphname = B;
lastChange = "2021-12-03 07:30:48 +0000";
layers = (
{
layerId = "6544E2DB-1912-401E-9B5B-A29F161A5995";
paths = (
{
closed = 1;
nodes = (
"207 0 LINE SMOOTH",
"304 0 OFFCURVE",
"366 34 OFFCURVE",
"381 141 CURVE SMOOTH",
"391 211 LINE SMOOTH",
"399 263 OFFCURVE",
"389 299 OFFCURVE",
"362 320 CURVE",
"386 343 OFFCURVE",
"400 377 OFFCURVE",
"407 414 CURVE SMOOTH",
"415 472 LINE SMOOTH",
"426 545 OFFCURVE",
"388 591 OFFCURVE",
"298 591 CURVE SMOOTH",
"73 591 LINE",
"-10 0 LINE"
);
},
{
closed = 1;
nodes = (
"193 253 LINE",
"206 253 LINE SMOOTH",
"214 253 OFFCURVE",
"218 246 OFFCURVE",
"217 231 CURVE SMOOTH",
"216 216 OFFCURVE",
"214 198 OFFCURVE",
"211 177 CURVE SMOOTH",
"208 156 OFFCURVE",
"204 138 OFFCURVE",
"200 123 CURVE SMOOTH",
"196 108 OFFCURVE",
"191 101 OFFCURVE",
"185 101 CURVE SMOOTH",
"172 101 LINE"
);
},
{
closed = 1;
nodes = (
"186 110 LINE SMOOTH",
"189 110 OFFCURVE",
"191 117 OFFCURVE",
"194 130 CURVE SMOOTH",
"197 143 OFFCURVE",
"199 158 OFFCURVE",
"202 177 CURVE SMOOTH",
"205 196 OFFCURVE",
"208 212 OFFCURVE",
"209 225 CURVE SMOOTH",
"210 238 OFFCURVE",
"208 244 OFFCURVE",
"205 244 CURVE SMOOTH",
"201 244 LINE",
"182 110 LINE"
);
},
{
closed = 1;
nodes = (
"87 573 LINE",
"295 573 LINE SMOOTH",
"378 573 OFFCURVE",
"405 532 OFFCURVE",
"397 472 CURVE SMOOTH",
"389 414 LINE SMOOTH",
"382 371 OFFCURVE",
"364 336 OFFCURVE",
"328 317 CURVE",
"364 305 OFFCURVE",
"382 271 OFFCURVE",
"373 211 CURVE SMOOTH",
"363 141 LINE SMOOTH",
"350 49 OFFCURVE",
"298 18 OFFCURVE",
"209 18 CURVE SMOOTH",
"9 18 LINE"
);
},
{
closed = 1;
nodes = (
"210 27 LINE SMOOTH",
"290 27 OFFCURVE",
"343 54 OFFCURVE",
"355 141 CURVE SMOOTH",
"365 211 LINE SMOOTH",
"374 280 OFFCURVE",
"340 314 OFFCURVE",
"291 314 CURVE",
"291 316 LINE",
"347 323 OFFCURVE",
"374 363 OFFCURVE",
"381 414 CURVE SMOOTH",
"389 472 LINE SMOOTH",
"396 527 OFFCURVE",
"370 564 OFFCURVE",
"294 564 CURVE SMOOTH",
"94 564 LINE",
"18 27 LINE"
);
},
{
closed = 1;
nodes = (
"226 488 LINE",
"239 488 LINE SMOOTH",
"247 488 OFFCURVE",
"251 481 OFFCURVE",
"251 467 CURVE SMOOTH",
"250 453 OFFCURVE",
"248 436 OFFCURVE",
"245 415 CURVE SMOOTH",
"242 395 OFFCURVE",
"238 378 OFFCURVE",
"233 364 CURVE SMOOTH",
"228 350 OFFCURVE",
"223 343 OFFCURVE",
"217 343 CURVE SMOOTH",
"206 343 LINE"
);
},
{
closed = 1;
nodes = (
"218 352 LINE SMOOTH",
"221 352 OFFCURVE",
"225 358 OFFCURVE",
"228 371 CURVE SMOOTH",
"231 383 OFFCURVE",
"233 398 OFFCURVE",
"236 415 CURVE SMOOTH",
"239 432 OFFCURVE",
"241 447 OFFCURVE",
"242 460 CURVE SMOOTH",
"243 472 OFFCURVE",
"241 478 OFFCURVE",
"238 478 CURVE SMOOTH",
"234 478 LINE",
"216 352 LINE"
);
}
);
userData = {
assembly = "SVTCA[0]	/* SetFreedomAndProjectionVectorToAxis */\012PUSHW[ ]	/* 4 values pushed */\01219 2 16 4 \012CALL[ ]	/* CallFunction */\012PUSHW[ ]	/* 4 values pushed */\01227 1 25 4 \012CALL[ ]	/* CallFunction */\012PUSHW[ ]	/* 3 values pushed */\0129 25 27 \012SRP1[ ]	/* SetRefPoint1 */\012SRP2[ ]	/* SetRefPoint2 */\012IP[ ]	/* InterpolatePts */\012PUSHW[ ]	/* 3 values pushed */\01264 25 27 \012SRP1[ ]	/* SetRefPoint1 */\012SRP2[ ]	/* SetRefPoint2 */\012IP[ ]	/* InterpolatePts */\012IUP[0]	/* InterpolateUntPts */\012IUP[1]	/* InterpolateUntPts */";
};
width = 411;
}
);
leftKerningGroup = H;
leftMetricsKey = H;
note = B;
rightKerningGroup = B;
rightMetricsKey = "=O-5";
unicode = 0042;
},
{
glyphname = C;
lastChange = "2021-12-03 07:30:48 +0000";
layers = (
{
anchors = (
{
name = bottom;
position = "{176, 0}";
},
{
name = top;
position = "{250, 591}";
}
);
layerId = "6544E2DB-1912-401E-9B5B-A29F161A5995";
paths = (
{
closed = 1;
nodes = (
"287 -11 OFFCURVE",
"347 29 OFFCURVE",
"369 186 CURVE SMOOTH",
"382 280 LINE",
"219 280 LINE",
"221 298 LINE",
"384 298 LINE",
"406 451 LINE SMOOTH",
"422 560 OFFCURVE",
"361 601 OFFCURVE",
"252 601 CURVE SMOOTH",
"142 601 OFFCURVE",
"64 559 OFFCURVE",
"49 451 CURVE SMOOTH",
"12 185 LINE SMOOTH",
"-10 29 OFFCURVE",
"44 -11 OFFCURVE",
"166 -11 CURVE SMOOTH"
);
},
{
closed = 1;
nodes = (
"56 7 OFFCURVE",
"9 44 OFFCURVE",
"29 185 CURVE SMOOTH",
"66 451 LINE SMOOTH",
"79 547 OFFCURVE",
"149 583 OFFCURVE",
"249 583 CURVE SMOOTH",
"348 583 OFFCURVE",
"403 547 OFFCURVE",
"389 451 CURVE SMOOTH",
"370 316 LINE",
"217 316 LINE",
"237 458 LINE SMOOTH",
"238 465 OFFCURVE",
"239 470 OFFCURVE",
"238 473 CURVE SMOOTH",
"237 475 OFFCURVE",
"235 476 OFFCURVE",
"234 476 CURVE SMOOTH",
"232 476 OFFCURVE",
"231 475 OFFCURVE",
"230 473 CURVE SMOOTH",
"229 470 OFFCURVE",
"227 465 OFFCURVE",
"226 458 CURVE SMOOTH",
"179 127 LINE",
"178 115 OFFCURVE",
"180 109 OFFCURVE",
"183 109 CURVE SMOOTH",
"184 109 OFFCURVE",
"186 110 OFFCURVE",
"187 113 CURVE SMOOTH",
"188 116 OFFCURVE",
"189 120 OFFCURVE",
"190 127 CURVE SMOOTH",
"209 262 LINE",
"362 262 LINE",
"352 186 LINE SMOOTH",
"333 44 OFFCURVE",
"277 7 OFFCURVE",
"168 7 CURVE SMOOTH"
);
},
{
closed = 1;
nodes = (
"274 16 OFFCURVE",
"325 50 OFFCURVE",
"343 186 CURVE SMOOTH",
"352 253 LINE",
"216 253 LINE",
"198 127 LINE SMOOTH",
"197 117 OFFCURVE",
"195 110 OFFCURVE",
"192 106 CURVE SMOOTH",
"189 102 OFFCURVE",
"185 100 OFFCURVE",
"182 100 CURVE SMOOTH",
"177 100 OFFCURVE",
"174 102 OFFCURVE",
"172 106 CURVE SMOOTH",
"170 110 OFFCURVE",
"170 117 OFFCURVE",
"171 127 CURVE SMOOTH",
"218 458 LINE SMOOTH",
"220 469 OFFCURVE",
"222 476 OFFCURVE",
"225 480 CURVE SMOOTH",
"228 483 OFFCURVE",
"231 485 OFFCURVE",
"236 485 CURVE SMOOTH",
"239 485 OFFCURVE",
"242 483 OFFCURVE",
"244 480 CURVE SMOOTH",
"246 476 OFFCURVE",
"247 469 OFFCURVE",
"245 458 CURVE SMOOTH",
"226 325 LINE",
"362 325 LINE",
"380 451 LINE SMOOTH",
"393 540 OFFCURVE",
"341 574 OFFCURVE",
"248 574 CURVE SMOOTH",
"153 574 OFFCURVE",
"88 542 OFFCURVE",
"75 451 CURVE SMOOTH",
"38 185 LINE SMOOTH",
"19 51 OFFCURVE",
"65 16 OFFCURVE",
"170 16 CURVE SMOOTH"
);
}
);
width = 396;
}
);
leftKerningGroup = O;
leftMetricsKey = O;
note = C;
rightKerningGroup = C;
unicode = 0043;
},
{
color = 8;
glyphname = Ccedilla;
lastChange = "2021-12-03 07:40:58 +0000";
layers = (
{
anchors = (
{
name = bottom;
position = "{164, -253}";
},
{
name = top;
position = "{246, 591}";
}
);
background = {
components = (
{
name = C;
},
{
name = cedilla;
}
);
};
layerId = "6544E2DB-1912-401E-9B5B-A29F161A5995";
paths = (
{
closed = 1;
nodes = (
"143 600 OFFCURVE",
"65 564 OFFCURVE",
"51 465 CURVE SMOOTH",
"10 173 LINE SMOOTH",
"-9 34 OFFCURVE",
"41 -3 OFFCURVE",
"127 -11 CURVE",
"95 -58 LINE",
"132 -80 LINE",
"135 -78 OFFCURVE",
"140 -74 OFFCURVE",
"148 -74 CURVE SMOOTH",
"158 -74 OFFCURVE",
"165 -79 OFFCURVE",
"163 -91 CURVE SMOOTH",
"161 -106 OFFCURVE",
"150 -115 OFFCURVE",
"133 -115 CURVE SMOOTH",
"117 -115 OFFCURVE",
"101 -107 OFFCURVE",
"94 -100 CURVE",
"68 -147 LINE",
"76 -153 OFFCURVE",
"102 -168 OFFCURVE",
"132 -168 CURVE SMOOTH",
"197 -168 OFFCURVE",
"241 -134 OFFCURVE",
"247 -94 CURVE SMOOTH",
"251 -64 OFFCURVE",
"234 -33 OFFCURVE",
"192 -33 CURVE SMOOTH",
"181 -33 OFFCURVE",
"172 -35 OFFCURVE",
"165 -37 CURVE",
"183 -12 LINE",
"282 -9 OFFCURVE",
"346 22 OFFCURVE",
"367 174 CURVE SMOOTH",
"378 248 LINE",
"219 248 LINE",
"199 110 LINE SMOOTH",
"196 87 OFFCURVE",
"188 80 OFFCURVE",
"179 80 CURVE SMOOTH",
"169 80 OFFCURVE",
"164 87 OFFCURVE",
"167 110 CURVE SMOOTH",
"218 473 LINE SMOOTH",
"221 496 OFFCURVE",
"228 503 OFFCURVE",
"238 503 CURVE SMOOTH",
"247 503 OFFCURVE",
"253 496 OFFCURVE",
"250 473 CURVE SMOOTH",
"230 327 LINE",
"389 327 LINE",
"408 465 LINE SMOOTH",
"422 564 OFFCURVE",
"361 600 OFFCURVE",
"252 600 CURVE SMOOTH"
);
}
);
width = 396;
}
);
leftKerningGroup = O;
rightKerningGroup = C;
unicode = 00C7;
},
{
glyphname = D;
lastChange = "2021-12-03 07:30:48 +0000";
layers = (
{
anchors = (
{
name = bottom;
position = "{152, 0}";
},
{
name = center;
position = "{91, 296}";
},
{
name = top;
position = "{254, 591}";
}
);
layerId = "6544E2DB-1912-401E-9B5B-A29F161A5995";
paths = (
{
closed = 1;
nodes = (
"194 0 LINE SMOOTH",
"290 0 OFFCURVE",
"351 34 OFFCURVE",
"366 141 CURVE SMOOTH",
"413 472 LINE SMOOTH",
"423 543 OFFCURVE",
"391 591 OFFCURVE",
"298 591 CURVE SMOOTH",
"73 591 LINE",
"-10 0 LINE"
);
},
{
closed = 1;
nodes = (
"88 573 LINE",
"295 573 LINE SMOOTH",
"376 573 OFFCURVE",
"405 532 OFFCURVE",
"396 472 CURVE SMOOTH",
"349 141 LINE SMOOTH",
"336 49 OFFCURVE",
"285 18 OFFCURVE",
"196 18 CURVE SMOOTH",
"10 18 LINE"
);
},
{
closed = 1;
nodes = (
"197 27 LINE SMOOTH",
"277 27 OFFCURVE",
"329 54 OFFCURVE",
"341 141 CURVE SMOOTH",
"388 472 LINE SMOOTH",
"396 527 OFFCURVE",
"370 564 OFFCURVE",
"294 564 CURVE SMOOTH",
"95 564 LINE",
"19 27 LINE"
);
},
{
closed = 1;
nodes = (
"226 484 LINE",
"239 484 LINE SMOOTH",
"244 484 OFFCURVE",
"247 482 OFFCURVE",
"249 479 CURVE SMOOTH",
"251 475 OFFCURVE",
"252 468 OFFCURVE",
"250 457 CURVE SMOOTH",
"203 127 LINE SMOOTH",
"201 116 OFFCURVE",
"200 109 OFFCURVE",
"197 106 CURVE SMOOTH",
"194 102 OFFCURVE",
"190 100 OFFCURVE",
"185 100 CURVE SMOOTH",
"172 100 LINE"
);
},
{
closed = 1;
nodes = (
"186 109 LINE SMOOTH",
"187 109 OFFCURVE",
"189 110 OFFCURVE",
"190 113 CURVE SMOOTH",
"191 115 OFFCURVE",
"193 120 OFFCURVE",
"194 127 CURVE SMOOTH",
"241 457 LINE SMOOTH",
"243 469 OFFCURVE",
"242 475 OFFCURVE",
"237 475 CURVE SMOOTH",
"233 475 LINE",
"182 109 LINE"
);
}
);
userData = {
assembly = "SVTCA[0]	/* SetFreedomAndProjectionVectorToAxis */\012PUSHW[ ]	/* 4 values pushed */\01216 2 8 4 \012CALL[ ]	/* CallFunction */\012IUP[0]	/* InterpolateUntPts */\012IUP[1]	/* InterpolateUntPts */";
};
width = 401;
}
);
leftKerningGroup = H;
leftMetricsKey = H;
note = D;
rightKerningGroup = O;
rightMetricsKey = O;
unicode = 0044;
},
{
glyphname = Eth;
lastChange = "2021-12-03 07:30:48 +0000";
layers = (
{
layerId = "6544E2DB-1912-401E-9B5B-A29F161A5995";
paths = (
{
closed = 1;
nodes = (
"217 0 LINE SMOOTH",
"373 0 OFFCURVE",
"393 64 OFFCURVE",
"417 232 CURVE SMOOTH",
"438 380 LINE SMOOTH",
"462 543 OFFCURVE",
"462 591 OFFCURVE",
"307 591 CURVE SMOOTH",
"84 591 LINE",
"43 300 LINE",
"11 300 LINE",
"-9 163 LINE",
"23 163 LINE",
"1 0 LINE"
);
},
{
closed = 1;
nodes = (
"43 182 LINE",
"12 182 LINE",
"26 282 LINE",
"57 282 LINE",
"98 573 LINE",
"304 573 LINE SMOOTH",
"445 573 OFFCURVE",
"442 527 OFFCURVE",
"421 380 CURVE SMOOTH",
"400 232 LINE SMOOTH",
"379 78 OFFCURVE",
"358 18 OFFCURVE",
"219 18 CURVE SMOOTH",
"20 18 LINE"
);
},
{
closed = 1;
nodes = (
"220 27 LINE SMOOTH",
"353 27 OFFCURVE",
"370 85 OFFCURVE",
"391 232 CURVE SMOOTH",
"412 380 LINE SMOOTH",
"431 522 OFFCURVE",
"435 564 OFFCURVE",
"303 564 CURVE SMOOTH",
"106 564 LINE",
"65 273 LINE",
"33 273 LINE",
"21 191 LINE",
"53 191 LINE",
"30 27 LINE"
);
},
{
closed = 1;
nodes = (
"200 191 LINE",
"217 191 LINE",
"229 273 LINE",
"212 273 LINE",
"242 488 LINE",
"262 488 LINE SMOOTH",
"275 488 OFFCURVE",
"283 482 OFFCURVE",
"280 461 CURVE SMOOTH",
"275 427 OFFCURVE",
"259 305 OFFCURVE",
"257 297 CURVE SMOOTH",
"234 129 LINE SMOOTH",
"231 106 OFFCURVE",
"221 101 OFFCURVE",
"208 101 CURVE SMOOTH",
"188 101 LINE"
);
},
{
closed = 1;
nodes = (
"209 110 LINE SMOOTH",
"217 110 OFFCURVE",
"222 114 OFFCURVE",
"225 129 CURVE SMOOTH",
"252 326 LINE SMOOTH",
"257 358 OFFCURVE",
"265 409 OFFCURVE",
"272 461 CURVE SMOOTH",
"275 476 OFFCURVE",
"269 479 OFFCURVE",
"261 479 CURVE SMOOTH",
"249 479 LINE",
"221 282 LINE",
"239 282 LINE",
"225 182 LINE",
"207 182 LINE",
"197 110 LINE"
);
}
);
userData = {
assembly = "SVTCA[0]	/* SetFreedomAndProjectionVectorToAxis */\012PUSHW[ ]	/* 4 values pushed */\01233 2 13 4 \012CALL[ ]	/* CallFunction */\012PUSHW[ ]	/* 4 values pushed */\0120 2 15 4 \012CALL[ ]	/* CallFunction */\012PUSHW[ ]	/* 1 value pushed */\0120 \012SRP0[ ]	/* SetRefPoint0 */\012PUSHW[ ]	/* 1 value pushed */\01228 \012MDRP[10000]	/* MoveDirectRelPt */\012PUSHW[ ]	/* 1 value pushed */\01215 \012SRP0[ ]	/* SetRefPoint0 */\012PUSHW[ ]	/* 1 value pushed */\01230 \012MDRP[10000]	/* MoveDirectRelPt */\012IUP[0]	/* InterpolateUntPts */\012IUP[1]	/* InterpolateUntPts */";
};
width = 451;
}
);
leftKerningGroup = H;
note = Eth;
rightKerningGroup = O;
unicode = 00D0;
},
{
glyphname = E;
lastChange = "2021-12-03 07:30:48 +0000";
layers = (
{
anchors = (
{
name = bottom;
position = "{131, 0}";
},
{
name = ogonek;
position = "{269, 0}";
},
{
name = top;
position = "{206, 591}";
},
{
name = topleft;
position = "{73, 591}";
}
);
layerId = "6544E2DB-1912-401E-9B5B-A29F161A5995";
paths = (
{
closed = 1;
nodes = (
"276 0 LINE",
"297 153 LINE",
"197 153 LINE",
"206 218 LINE",
"297 218 LINE",
"321 386 LINE",
"230 386 LINE",
"237 436 LINE",
"337 436 LINE",
"359 591 LINE",
"73 591 LINE",
"-10 0 LINE"
);
},
{
closed = 1;
nodes = (
"86 573 LINE",
"339 573 LINE",
"322 454 LINE",
"223 454 LINE",
"211 368 LINE",
"302 368 LINE",
"284 236 LINE",
"193 236 LINE",
"178 134 LINE",
"277 134 LINE",
"261 18 LINE",
"8 18 LINE"
);
},
{
closed = 1;
nodes = (
"254 27 LINE",
"268 125 LINE",
"169 125 LINE",
"186 245 LINE",
"277 245 LINE",
"293 359 LINE",
"202 359 LINE",
"217 463 LINE",
"316 463 LINE",
"330 564 LINE",
"93 564 LINE",
"17 27 LINE"
);
}
);
userData = {
assembly = "PUSHW[ ]	/* 4 values pushed */\01229 6 7 4 \012CALL[ ]	/* CallFunction */\012PUSHW[ ]	/* 1 value pushed */\01229 \012SRP0[ ]	/* SetRefPoint0 */\012PUSHW[ ]	/* 1 value pushed */\0122 \012MDRP[10000]	/* MoveDirectRelPt */\012PUSHW[ ]	/* 1 value pushed */\0122 \012MDAP[1]	/* MoveDirectAbsPt */\012PUSHW[ ]	/* 1 value pushed */\0127 \012SRP0[ ]	/* SetRefPoint0 */\012PUSHW[ ]	/* 1 value pushed */\01216 \012MDRP[10000]	/* MoveDirectRelPt */\012PUSHW[ ]	/* 1 value pushed */\01216 \012MDAP[1]	/* MoveDirectAbsPt */\012PUSHW[ ]	/* 1 value pushed */\01229 \012SRP0[ ]	/* SetRefPoint0 */\012PUSHW[ ]	/* 1 value pushed */\01221 \012MDRP[10000]	/* MoveDirectRelPt */\012PUSHW[ ]	/* 1 value pushed */\01221 \012MDAP[1]	/* MoveDirectAbsPt */\012PUSHW[ ]	/* 1 value pushed */\01229 \012SRP0[ ]	/* SetRefPoint0 */\012PUSHW[ ]	/* 1 value pushed */\01237 \012MDRP[11100]	/* MoveDirectRelPt */\012SVTCA[0]	/* SetFreedomAndProjectionVectorToAxis */\012PUSHW[ ]	/* 4 values pushed */\0129 3 10 4 \012CALL[ ]	/* CallFunction */\012IUP[0]	/* InterpolateUntPts */\012IUP[1]	/* InterpolateUntPts */";
};
width = 328;
}
);
leftKerningGroup = H;
leftMetricsKey = H;
note = E;
rightKerningGroup = E;
unicode = 0045;
},
{
color = 8;
glyphname = Eogonek;
lastChange = "2021-12-03 08:14:27 +0000";
layers = (
{
anchors = (
{
name = bottom;
position = "{130, 0}";
},
{
name = ogonek;
position = "{263, 10}";
},
{
name = top;
position = "{214, 591}";
},
{
name = topleft;
position = "{68, 591}";
}
);
background = {
components = (
{
name = E;
},
{
name = ogonek;
transform = "{1, 0, 0, 1, -33, 0}";
}
);
};
layerId = "6544E2DB-1912-401E-9B5B-A29F161A5995";
paths = (
{
closed = 1;
nodes = (
"73 591 LINE",
"-10 0 LINE",
"197 0 LINE",
"148 -10 OFFCURVE",
"114 -49 OFFCURVE",
"109 -83 CURVE SMOOTH",
"104 -117 OFFCURVE",
"134 -151 OFFCURVE",
"192 -151 CURVE SMOOTH",
"242 -151 OFFCURVE",
"264 -137 OFFCURVE",
"272 -133 CURVE",
"260 -96 LINE",
"257 -96 OFFCURVE",
"251 -99 OFFCURVE",
"242 -99 CURVE SMOOTH",
"226 -99 OFFCURVE",
"207 -85 OFFCURVE",
"210 -61 CURVE SMOOTH",
"213 -39 OFFCURVE",
"232 -10 OFFCURVE",
"269 0 CURVE",
"276 0 LINE",
"297 153 LINE",
"197 153 LINE",
"206 218 LINE",
"297 218 LINE",
"321 386 LINE",
"230 386 LINE",
"237 436 LINE",
"337 436 LINE",
"359 591 LINE"
);
}
);
width = 328;
}
);
leftKerningGroup = H;
rightKerningGroup = E;
unicode = 0118;
},
{
glyphname = F;
lastChange = "2021-12-03 07:30:48 +0000";
layers = (
{
layerId = "6544E2DB-1912-401E-9B5B-A29F161A5995";
paths = (
{
closed = 1;
nodes = (
"176 0 LINE",
"206 218 LINE",
"297 218 LINE",
"321 386 LINE",
"230 386 LINE",
"237 436 LINE",
"337 436 LINE",
"359 591 LINE",
"73 591 LINE",
"-10 0 LINE"
);
},
{
closed = 1;
nodes = (
"86 573 LINE",
"339 573 LINE",
"322 454 LINE",
"223 454 LINE",
"211 368 LINE",
"302 368 LINE",
"284 236 LINE",
"193 236 LINE",
"162 18 LINE",
"8 18 LINE"
);
},
{
closed = 1;
nodes = (
"155 27 LINE",
"186 245 LINE",
"277 245 LINE",
"293 359 LINE",
"202 359 LINE",
"217 463 LINE",
"316 463 LINE",
"330 564 LINE",
"93 564 LINE",
"17 27 LINE"
);
}
);
userData = {
assembly = "PUSHW[ ]	/* 4 values pushed */\01225 6 7 4 \012CALL[ ]	/* CallFunction */\012PUSHW[ ]	/* 1 value pushed */\01225 \012SRP0[ ]	/* SetRefPoint0 */\012PUSHW[ ]	/* 1 value pushed */\0122 \012MDRP[10000]	/* MoveDirectRelPt */\012PUSHW[ ]	/* 1 value pushed */\0122 \012MDAP[1]	/* MoveDirectAbsPt */\012PUSHW[ ]	/* 1 value pushed */\0127 \012SRP0[ ]	/* SetRefPoint0 */\012PUSHW[ ]	/* 1 value pushed */\01212 \012MDRP[10000]	/* MoveDirectRelPt */\012PUSHW[ ]	/* 1 value pushed */\01212 \012MDAP[1]	/* MoveDirectAbsPt */\012PUSHW[ ]	/* 1 value pushed */\01225 \012SRP0[ ]	/* SetRefPoint0 */\012PUSHW[ ]	/* 1 value pushed */\01217 \012MDRP[10000]	/* MoveDirectRelPt */\012PUSHW[ ]	/* 1 value pushed */\01217 \012MDAP[1]	/* MoveDirectAbsPt */\012PUSHW[ ]	/* 1 value pushed */\01225 \012SRP0[ ]	/* SetRefPoint0 */\012PUSHW[ ]	/* 1 value pushed */\01231 \012MDRP[11100]	/* MoveDirectRelPt */\012SVTCA[0]	/* SetFreedomAndProjectionVectorToAxis */\012PUSHW[ ]	/* 1 value pushed */\0128 \012MDAP[1]	/* MoveDirectAbsPt */\012IUP[0]	/* InterpolateUntPts */\012IUP[1]	/* InterpolateUntPts */";
};
width = 326;
}
);
leftKerningGroup = H;
leftMetricsKey = H;
note = F;
rightKerningGroup = F;
unicode = 0046;
},
{
glyphname = G;
lastChange = "2021-12-03 07:30:48 +0000";
layers = (
{
anchors = (
{
name = bottom;
position = "{163, 0}";
},
{
name = top;
position = "{246, 591}";
}
);
layerId = "6544E2DB-1912-401E-9B5B-A29F161A5995";
paths = (
{
closed = 1;
nodes = (
"150 -9 OFFCURVE",
"173 1 OFFCURVE",
"192 16 CURVE",
"193 0 LINE",
"342 0 LINE",
"389 338 LINE",
"220 338 LINE",
"220 339 LINE",
"389 339 LINE",
"405 449 LINE SMOOTH",
"421 556 OFFCURVE",
"353 599 OFFCURVE",
"245 599 CURVE SMOOTH",
"138 599 OFFCURVE",
"63 558 OFFCURVE",
"48 449 CURVE SMOOTH",
"8 165 LINE SMOOTH",
"-11 33 OFFCURVE",
"39 -9 OFFCURVE",
"119 -9 CURVE SMOOTH"
);
},
{
closed = 1;
nodes = (
"188 109 OFFCURVE",
"192 115 OFFCURVE",
"193 127 CURVE",
"206 220 LINE",
"185 220 LINE",
"172 127 LINE",
"171 115 OFFCURVE",
"174 109 OFFCURVE",
"181 109 CURVE SMOOTH"
);
},
{
closed = 1;
nodes = (
"50 9 OFFCURVE",
"9 48 OFFCURVE",
"25 165 CURVE SMOOTH",
"65 449 LINE SMOOTH",
"78 545 OFFCURVE",
"146 581 OFFCURVE",
"242 581 CURVE SMOOTH",
"338 581 OFFCURVE",
"401 544 OFFCURVE",
"388 449 CURVE SMOOTH",
"375 358 LINE",
"226 358 LINE",
"240 458 LINE SMOOTH",
"242 470 OFFCURVE",
"239 476 OFFCURVE",
"232 476 CURVE SMOOTH",
"225 476 OFFCURVE",
"221 470 OFFCURVE",
"219 458 CURVE SMOOTH",
"199 319 LINE",
"369 319 LINE",
"327 18 LINE",
"209 18 LINE",
"205 55 LINE",
"190 31 OFFCURVE",
"165 9 OFFCURVE",
"122 9 CURVE SMOOTH"
);
},
{
closed = 1;
nodes = (
"172 18 OFFCURVE",
"199 55 OFFCURVE",
"213 84 CURVE",
"217 27 LINE",
"319 27 LINE",
"359 310 LINE",
"206 310 LINE",
"195 229 LINE",
"217 229 LINE",
"202 127 LINE SMOOTH",
"199 106 OFFCURVE",
"191 100 OFFCURVE",
"180 100 CURVE SMOOTH",
"169 100 OFFCURVE",
"161 106 OFFCURVE",
"164 127 CURVE SMOOTH",
"211 458 LINE SMOOTH",
"214 479 OFFCURVE",
"223 485 OFFCURVE",
"234 485 CURVE SMOOTH",
"245 485 OFFCURVE",
"252 479 OFFCURVE",
"249 458 CURVE SMOOTH",
"236 367 LINE",
"367 367 LINE",
"379 449 LINE SMOOTH",
"390 538 OFFCURVE",
"334 572 OFFCURVE",
"241 572 CURVE SMOOTH",
"150 572 OFFCURVE",
"86 538 OFFCURVE",
"74 449 CURVE SMOOTH",
"34 165 LINE SMOOTH",
"18 56 OFFCURVE",
"55 18 OFFCURVE",
"123 18 CURVE SMOOTH"
);
}
);
userData = {
assembly = "PUSHW[ ]	/* 4 values pushed */\01275 6 48 4 \012CALL[ ]	/* CallFunction */\012PUSHW[ ]	/* 3 values pushed */\0123 48 75 \012SRP1[ ]	/* SetRefPoint1 */\012SRP2[ ]	/* SetRefPoint2 */\012IP[ ]	/* InterpolatePts */\012PUSHW[ ]	/* 3 values pushed */\01273 48 75 \012SRP1[ ]	/* SetRefPoint1 */\012SRP2[ ]	/* SetRefPoint2 */\012IP[ ]	/* InterpolatePts */\012PUSHW[ ]	/* 3 values pushed */\01279 48 75 \012SRP1[ ]	/* SetRefPoint1 */\012SRP2[ ]	/* SetRefPoint2 */\012IP[ ]	/* InterpolatePts */\012PUSHW[ ]	/* 1 value pushed */\01248 \012SRP0[ ]	/* SetRefPoint0 */\012PUSHW[ ]	/* 1 value pushed */\01283 \012MDRP[10000]	/* MoveDirectRelPt */\012PUSHW[ ]	/* 1 value pushed */\01283 \012MDAP[1]	/* MoveDirectAbsPt */\012PUSHW[ ]	/* 1 value pushed */\01275 \012SRP0[ ]	/* SetRefPoint0 */\012PUSHW[ ]	/* 1 value pushed */\012103 \012MDRP[11100]	/* MoveDirectRelPt */\012SVTCA[0]	/* SetFreedomAndProjectionVectorToAxis */\012PUSHW[ ]	/* 1 value pushed */\0121 \012MDAP[1]	/* MoveDirectAbsPt */\012PUSHW[ ]	/* 4 values pushed */\01235 2 8 4 \012CALL[ ]	/* CallFunction */\012PUSHW[ ]	/* 3 values pushed */\0123 8 35 \012SRP1[ ]	/* SetRefPoint1 */\012SRP2[ ]	/* SetRefPoint2 */\012IP[ ]	/* InterpolatePts */\012PUSHW[ ]	/* 3 values pushed */\01273 8 35 \012SRP1[ ]	/* SetRefPoint1 */\012SRP2[ ]	/* SetRefPoint2 */\012IP[ ]	/* InterpolatePts */\012PUSHW[ ]	/* 1 value pushed */\0128 \012SRP0[ ]	/* SetRefPoint0 */\012PUSHW[ ]	/* 1 value pushed */\01274 \012MDRP[10000]	/* MoveDirectRelPt */\012IUP[0]	/* InterpolateUntPts */\012IUP[1]	/* InterpolateUntPts */";
};
width = 395;
}
);
leftKerningGroup = O;
leftMetricsKey = O;
note = G;
rightKerningGroup = G;
unicode = 0047;
},
{
glyphname = H;
lastChange = "2021-12-03 07:30:48 +0000";
layers = (
{
anchors = (
{
name = bottom;
position = "{167, 0}";
},
{
name = center;
position = "{209, 296}";
},
{
name = top;
position = "{250, 591}";
},
{
name = topleft;
position = "{68, 591}";
}
);
layerId = "6544E2DB-1912-401E-9B5B-A29F161A5995";
paths = (
{
closed = 1;
nodes = (
"344 0 LINE",
"427 591 LINE",
"73 591 LINE",
"-10 0 LINE"
);
},
{
closed = 1;
nodes = (
"87 573 LINE",
"241 573 LINE",
"212 365 LINE",
"225 365 LINE",
"254 573 LINE",
"407 573 LINE",
"329 18 LINE",
"176 18 LINE",
"207 241 LINE",
"194 241 LINE",
"163 18 LINE",
"9 18 LINE"
);
},
{
closed = 1;
nodes = (
"155 27 LINE",
"187 250 LINE",
"218 250 LINE",
"186 27 LINE",
"322 27 LINE",
"398 564 LINE",
"262 564 LINE",
"233 356 LINE",
"202 356 LINE",
"231 564 LINE",
"95 564 LINE",
"19 27 LINE"
);
}
);
userData = {
assembly = "PUSHW[ ]	/* 1 value pushed */\01228 \012MDAP[1]	/* MoveDirectAbsPt */\012PUSHW[ ]	/* 1 value pushed */\01223 \012MDAP[1]	/* MoveDirectAbsPt */\012PUSHW[ ]	/* 1 value pushed */\0120 \012MDRP[10000]	/* MoveDirectRelPt */\012PUSHW[ ]	/* 1 value pushed */\0120 \012MDAP[1]	/* MoveDirectAbsPt */\012PUSHW[ ]	/* 1 value pushed */\01228 \012SRP0[ ]	/* SetRefPoint0 */\012PUSHW[ ]	/* 1 value pushed */\0122 \012MDRP[10000]	/* MoveDirectRelPt */\012PUSHW[ ]	/* 1 value pushed */\0122 \012MDAP[1]	/* MoveDirectAbsPt */\012PUSHW[ ]	/* 2 values pushed */\0121 6 \012MIRP[10100]	/* MoveIndirectRelPt */\012PUSHW[ ]	/* 1 value pushed */\01223 \012SRP0[ ]	/* SetRefPoint0 */\012PUSHW[ ]	/* 2 values pushed */\01214 6 \012MIRP[10100]	/* MoveIndirectRelPt */\012PUSHW[ ]	/* 1 value pushed */\0129 \012MDRP[10000]	/* MoveDirectRelPt */\012PUSHW[ ]	/* 1 value pushed */\0129 \012MDAP[1]	/* MoveDirectAbsPt */\012PUSHW[ ]	/* 1 value pushed */\01214 \012SRP0[ ]	/* SetRefPoint0 */\012PUSHW[ ]	/* 1 value pushed */\01229 \012MDRP[11100]	/* MoveDirectRelPt */\012SVTCA[0]	/* SetFreedomAndProjectionVectorToAxis */\012PUSHW[ ]	/* 1 value pushed */\0121 \012MDAP[1]	/* MoveDirectAbsPt */\012PUSHW[ ]	/* 1 value pushed */\0129 \012MDAP[1]	/* MoveDirectAbsPt */\012PUSHW[ ]	/* 4 values pushed */\0125 3 0 4 \012CALL[ ]	/* CallFunction */\012IUP[0]	/* InterpolateUntPts */\012IUP[1]	/* InterpolateUntPts */";
};
width = 404;
}
);
leftKerningGroup = H;
note = H;
rightKerningGroup = H;
unicode = 0048;
},
{
color = 8;
glyphname = Hbar;
lastChange = "2021-12-03 08:01:35 +0000";
layers = (
{
background = {
components = (
{
name = H;
},
{
name = hyphen;
transform = "{1.91197, 0, -0.09727, 0.69208, -4, 300}";
}
);
};
layerId = "6544E2DB-1912-401E-9B5B-A29F161A5995";
paths = (
{
closed = 1;
nodes = (
"428 591 LINE",
"269 591 LINE",
"258 517 LINE",
"222 517 LINE",
"233 591 LINE",
"74 591 LINE",
"63 517 LINE",
"32 517 LINE",
"22 445 LINE",
"53 445 LINE",
"-10 0 LINE",
"149 0 LINE",
"184 245 LINE",
"220 245 LINE",
"185 0 LINE",
"344 0 LINE",
"407 445 LINE",
"436 445 LINE",
"446 517 LINE",
"417 517 LINE"
);
},
{
closed = 1;
nodes = (
"212 445 LINE",
"248 445 LINE",
"236 362 LINE",
"200 362 LINE"
);
}
);
width = 404;
}
);
leftKerningGroup = H;
rightKerningGroup = H;
unicode = 0126;
},
{
glyphname = I;
lastChange = "2021-12-03 07:30:48 +0000";
layers = (
{
anchors = (
{
name = bottom;
position = "{70, 0}";
},
{
name = ogonek;
position = "{155, 10}";
},
{
name = top;
position = "{153, 591}";
},
{
name = topleft;
position = "{68, 591}";
}
);
layerId = "6544E2DB-1912-401E-9B5B-A29F161A5995";
paths = (
{
closed = 1;
nodes = (
"149 0 LINE",
"232 591 LINE",
"73 591 LINE",
"-10 0 LINE"
);
},
{
closed = 1;
nodes = (
"84 573 LINE",
"214 573 LINE",
"136 18 LINE",
"6 18 LINE"
);
},
{
closed = 1;
nodes = (
"130 27 LINE",
"206 564 LINE",
"91 564 LINE",
"15 27 LINE"
);
}
);
userData = {
assembly = "SVTCA[0]	/* SetFreedomAndProjectionVectorToAxis */\012PUSHW[ ]	/* 1 value pushed */\0120 \012MDAP[1]	/* MoveDirectAbsPt */\012IUP[0]	/* InterpolateUntPts */\012IUP[1]	/* InterpolateUntPts */";
};
width = 209;
}
);
leftKerningGroup = H;
leftMetricsKey = H;
note = I;
rightKerningGroup = H;
rightMetricsKey = H;
unicode = 0049;
},
{
color = 8;
glyphname = Iogonek;
lastChange = "2021-12-03 07:44:42 +0000";
layers = (
{
anchors = (
{
name = bottom;
position = "{70, 0}";
},
{
name = ogonek;
position = "{129, 0}";
},
{
name = top;
position = "{153, 591}";
},
{
name = topleft;
position = "{68, 591}";
}
);
background = {
components = (
{
name = I;
},
{
name = ogonek;
transform = "{1, 0, 0, 1, -177, 0}";
}
);
};
layerId = "6544E2DB-1912-401E-9B5B-A29F161A5995";
paths = (
{
closed = 1;
nodes = (
"233 591 LINE",
"74 591 LINE",
"-10 0 LINE",
"57 0 LINE",
"8 -10 OFFCURVE",
"-26 -49 OFFCURVE",
"-31 -83 CURVE SMOOTH",
"-36 -117 OFFCURVE",
"-6 -151 OFFCURVE",
"52 -151 CURVE SMOOTH",
"102 -151 OFFCURVE",
"124 -137 OFFCURVE",
"132 -133 CURVE",
"120 -96 LINE",
"117 -96 OFFCURVE",
"111 -99 OFFCURVE",
"102 -99 CURVE SMOOTH",
"86 -99 OFFCURVE",
"67 -85 OFFCURVE",
"70 -61 CURVE SMOOTH",
"73 -39 OFFCURVE",
"92 -10 OFFCURVE",
"129 0 CURVE",
"149 0 LINE"
);
}
);
width = 210;
}
);
unicode = 012E;
},
{
glyphname = J;
lastChange = "2021-12-03 07:30:48 +0000";
layers = (
{
layerId = "6544E2DB-1912-401E-9B5B-A29F161A5995";
paths = (
{
closed = 1;
nodes = (
"153 -1 OFFCURVE",
"201 40 OFFCURVE",
"222 172 CURVE SMOOTH",
"281 591 LINE",
"107 591 LINE",
"47 169 LINE SMOOTH",
"44 154 OFFCURVE",
"43 153 OFFCURVE",
"32 153 CURVE SMOOTH",
"-15 153 LINE",
"-36 3 LINE",
"-5 -1 OFFCURVE",
"21 -1 OFFCURVE",
"30 -1 CURVE SMOOTH"
);
},
{
closed = 1;
nodes = (
"10 17 LINE SMOOTH",
"-1 17 OFFCURVE",
"-10 18 OFFCURVE",
"-18 19 CURVE",
"-2 134 LINE",
"29 134 LINE SMOOTH",
"53 134 OFFCURVE",
"59 141 OFFCURVE",
"63 169 CURVE SMOOTH",
"120 573 LINE",
"262 573 LINE",
"206 172 LINE SMOOTH",
"191 54 OFFCURVE",
"142 17 OFFCURVE",
"33 17 CURVE SMOOTH"
);
},
{
closed = 1;
nodes = (
"139 26 OFFCURVE",
"182 60 OFFCURVE",
"198 172 CURVE SMOOTH",
"253 564 LINE",
"127 564 LINE",
"71 169 LINE SMOOTH",
"66 133 OFFCURVE",
"59 125 OFFCURVE",
"28 125 CURVE SMOOTH",
"5 125 LINE",
"-9 27 LINE",
"-5 26 OFFCURVE",
"2 26 OFFCURVE",
"12 26 CURVE SMOOTH",
"34 26 LINE SMOOTH"
);
}
);
width = 258;
}
);
leftKerningGroup = J;
note = J;
rightKerningGroup = J;
rightMetricsKey = "=O+5";
unicode = 004A;
},
{
glyphname = K;
lastChange = "2021-12-03 07:30:48 +0000";
layers = (
{
anchors = (
{
name = bottom;
position = "{182, 0}";
},
{
name = top;
position = "{265, 591}";
}
);
layerId = "6544E2DB-1912-401E-9B5B-A29F161A5995";
paths = (
{
closed = 1;
nodes = (
"180 0 LINE",
"182 17 LINE",
"183 0 LINE",
"393 0 LINE",
"339 306 LINE",
"475 591 LINE",
"73 591 LINE",
"-10 0 LINE"
);
},
{
closed = 1;
nodes = (
"87 573 LINE",
"242 573 LINE",
"223 436 LINE",
"270 573 LINE",
"448 573 LINE",
"321 306 LINE",
"336 213 OFFCURVE",
"354 110 OFFCURVE",
"371 18 CURVE",
"199 18 LINE",
"187 182 LINE",
"164 18 LINE",
"9 18 LINE"
);
},
{
closed = 1;
nodes = (
"157 27 LINE",
"191 269 LINE",
"207 27 LINE",
"361 27 LINE",
"312 306 LINE",
"435 564 LINE",
"276 564 LINE",
"202 345 LINE",
"233 564 LINE",
"95 564 LINE",
"19 27 LINE"
);
}
);
userData = {
assembly = "SVTCA[0]	/* SetFreedomAndProjectionVectorToAxis */\012PUSHW[ ]	/* 1 value pushed */\0124 \012MDAP[1]	/* MoveDirectAbsPt */\012PUSHW[ ]	/* 1 value pushed */\0127 \012MDAP[1]	/* MoveDirectAbsPt */\012IUP[0]	/* InterpolateUntPts */\012IUP[1]	/* InterpolateUntPts */";
};
width = 433;
}
);
leftKerningGroup = H;
leftMetricsKey = H;
note = K;
rightKerningGroup = K;
unicode = 004B;
},
{
glyphname = L;
lastChange = "2021-12-03 07:30:48 +0000";
layers = (
{
anchors = (
{
name = bottom;
position = "{115, 0}";
},
{
name = center;
position = "{157, 296}";
},
{
name = top;
position = "{209, 591}";
},
{
name = topright;
position = "{277, 441}";
}
);
layerId = "6544E2DB-1912-401E-9B5B-A29F161A5995";
paths = (
{
closed = 1;
nodes = (
"256 0 LINE",
"277 153 LINE",
"188 153 LINE",
"250 591 LINE",
"73 591 LINE",
"-10 0 LINE"
);
},
{
closed = 1;
nodes = (
"87 573 LINE",
"231 573 LINE",
"169 134 LINE",
"258 134 LINE",
"242 18 LINE",
"9 18 LINE"
);
},
{
closed = 1;
nodes = (
"235 27 LINE",
"249 125 LINE",
"160 125 LINE",
"222 564 LINE",
"94 564 LINE",
"18 27 LINE"
);
}
);
userData = {
assembly = "SVTCA[0]	/* SetFreedomAndProjectionVectorToAxis */\012PUSHW[ ]	/* 4 values pushed */\0123 3 4 4 \012CALL[ ]	/* CallFunction */\012IUP[0]	/* InterpolateUntPts */\012IUP[1]	/* InterpolateUntPts */";
};
width = 299;
}
);
leftKerningGroup = H;
leftMetricsKey = H;
note = L;
rightKerningGroup = L;
unicode = 004C;
},
{
glyphname = Lslash;
lastChange = "2021-12-03 07:30:48 +0000";
layers = (
{
layerId = "6544E2DB-1912-401E-9B5B-A29F161A5995";
paths = (
{
closed = 1;
nodes = (
"287 199 LINE",
"302 308 LINE",
"241 296 LINE",
"284 591 LINE",
"107 591 LINE",
"61 263 LINE",
"9 254 LINE",
"-7 144 LINE",
"46 153 LINE",
"24 0 LINE",
"290 0 LINE",
"311 153 LINE",
"222 153 LINE",
"227 187 LINE"
);
},
{
closed = 1;
nodes = (
"65 171 LINE",
"10 160 LINE",
"22 241 LINE",
"59 248 LINE",
"76 251 LINE",
"121 573 LINE",
"265 573 LINE",
"223 279 LINE",
"239 282 LINE",
"283 291 LINE",
"272 210 LINE",
"229 201 LINE",
"213 198 LINE",
"203 134 LINE",
"292 134 LINE",
"276 18 LINE",
"43 18 LINE"
);
},
{
closed = 1;
nodes = (
"128 564 LINE",
"52 27 LINE",
"269 27 LINE",
"283 125 LINE",
"194 125 LINE",
"256 564 LINE"
);
},
{
closed = 1;
nodes = (
"274 281 LINE",
"223 270 LINE",
"214 205 LINE",
"264 216 LINE"
);
},
{
closed = 1;
nodes = (
"20 170 LINE",
"65 178 LINE",
"75 243 LINE",
"30 235 LINE"
);
}
);
width = 351;
}
);
leftKerningGroup = H;
note = Lslash;
rightKerningGroup = L;
unicode = 0141;
},
{
glyphname = M;
lastChange = "2021-12-03 07:30:48 +0000";
layers = (
{
layerId = "6544E2DB-1912-401E-9B5B-A29F161A5995";
paths = (
{
closed = 1;
nodes = (
"480 0 LINE",
"563 591 LINE",
"333 591 LINE",
"302 483 LINE",
"303 591 LINE",
"73 591 LINE",
"-10 0 LINE"
);
},
{
closed = 1;
nodes = (
"88 573 LINE",
"285 573 LINE",
"285 357 LINE",
"346 573 LINE",
"542 573 LINE",
"464 18 LINE",
"323 18 LINE",
"356 255 LINE",
"293 18 LINE",
"182 18 LINE",
"185 255 LINE",
"152 18 LINE",
"10 18 LINE"
);
},
{
closed = 1;
nodes = (
"144 27 LINE",
"197 401 LINE",
"191 27 LINE",
"285 27 LINE",
"386 401 LINE",
"333 27 LINE",
"457 27 LINE",
"533 564 LINE",
"353 564 LINE",
"275 290 LINE",
"276 564 LINE",
"96 564 LINE",
"20 27 LINE"
);
}
);
userData = {
assembly = "SVTCA[0]	/* SetFreedomAndProjectionVectorToAxis */\012PUSHW[ ]	/* 1 value pushed */\0121 \012MDAP[1]	/* MoveDirectAbsPt */\012PUSHW[ ]	/* 1 value pushed */\0128 \012MDAP[1]	/* MoveDirectAbsPt */\012PUSHW[ ]	/* 1 value pushed */\01211 \012MDAP[1]	/* MoveDirectAbsPt */\012IUP[0]	/* InterpolateUntPts */\012IUP[1]	/* InterpolateUntPts */";
};
width = 540;
}
);
leftKerningGroup = H;
leftMetricsKey = H;
note = M;
rightKerningGroup = H;
rightMetricsKey = H;
unicode = 004D;
},
{
glyphname = N;
lastChange = "2021-12-03 07:30:48 +0000";
layers = (
{
anchors = (
{
name = bottom;
position = "{165, 0}";
},
{
name = top;
position = "{248, 591}";
}
);
layerId = "6544E2DB-1912-401E-9B5B-A29F161A5995";
paths = (
{
closed = 1;
nodes = (
"160 0 LINE",
"168 63 LINE",
"177 0 LINE",
"339 0 LINE",
"422 591 LINE",
"253 591 LINE",
"244 527 LINE",
"236 591 LINE",
"73 591 LINE",
"-10 0 LINE"
);
},
{
closed = 1;
nodes = (
"87 573 LINE",
"221 573 LINE",
"240 384 LINE",
"267 573 LINE",
"402 573 LINE",
"324 18 LINE",
"192 18 LINE",
"168 184 LINE",
"145 18 LINE",
"9 18 LINE"
);
},
{
closed = 1;
nodes = (
"138 27 LINE",
"170 250 LINE",
"200 27 LINE",
"317 27 LINE",
"393 564 LINE",
"274 564 LINE",
"239 314 LINE",
"213 564 LINE",
"95 564 LINE",
"19 27 LINE"
);
}
);
userData = {
assembly = "SVTCA[0]	/* SetFreedomAndProjectionVectorToAxis */\012PUSHW[ ]	/* 1 value pushed */\0121 \012MDAP[1]	/* MoveDirectAbsPt */\012PUSHW[ ]	/* 1 value pushed */\0128 \012MDAP[1]	/* MoveDirectAbsPt */\012IUP[0]	/* InterpolateUntPts */\012IUP[1]	/* InterpolateUntPts */";
};
width = 399;
}
);
leftKerningGroup = H;
leftMetricsKey = H;
note = N;
rightKerningGroup = H;
rightMetricsKey = H;
unicode = 004E;
},
{
glyphname = Eng;
lastChange = "2021-12-03 07:30:48 +0000";
layers = (
{
layerId = "6544E2DB-1912-401E-9B5B-A29F161A5995";
paths = (
{
closed = 1;
nodes = (
"257 -233 OFFCURVE",
"311 -193 OFFCURVE",
"332 -56 CURVE SMOOTH",
"425 608 LINE",
"256 608 LINE",
"247 542 LINE",
"239 608 LINE",
"76 608 LINE",
"-9 0 LINE",
"153 0 LINE",
"144 -59 LINE SMOOTH",
"141 -74 OFFCURVE",
"140 -76 OFFCURVE",
"129 -76 CURVE SMOOTH",
"78 -76 LINE",
"56 -230 LINE",
"91 -233 OFFCURVE",
"119 -233 OFFCURVE",
"128 -233 CURVE SMOOTH"
);
},
{
closed = 1;
nodes = (
"106 -215 LINE SMOOTH",
"95 -215 OFFCURVE",
"85 -214 OFFCURVE",
"77 -213 CURVE",
"93 -94 LINE",
"126 -94 LINE SMOOTH",
"151 -94 OFFCURVE",
"158 -88 OFFCURVE",
"162 -59 CURVE SMOOTH",
"184 94 LINE",
"170 190 LINE",
"146 19 LINE",
"10 19 LINE",
"90 589 LINE",
"224 589 LINE",
"243 395 LINE",
"270 589 LINE",
"405 589 LINE",
"315 -56 LINE SMOOTH",
"297 -177 OFFCURVE",
"247 -215 OFFCURVE",
"130 -215 CURVE SMOOTH"
);
},
{
closed = 1;
nodes = (
"243 -205 OFFCURVE",
"291 -172 OFFCURVE",
"307 -56 CURVE SMOOTH",
"396 580 LINE",
"277 580 LINE",
"241 323 LINE",
"216 580 LINE",
"98 580 LINE",
"20 28 LINE",
"139 28 LINE",
"172 257 LINE",
"192 97 LINE",
"170 -59 LINE SMOOTH",
"165 -95 OFFCURVE",
"157 -104 OFFCURVE",
"125 -104 CURVE SMOOTH",
"100 -104 LINE",
"86 -204 LINE",
"91 -205 OFFCURVE",
"98 -205 OFFCURVE",
"109 -205 CURVE SMOOTH",
"132 -205 LINE SMOOTH"
);
}
);
userData = {
assembly = "PUSHW[ ]	/* 4 values pushed */\01250 6 8 4 \012CALL[ ]	/* CallFunction */\012PUSHW[ ]	/* 4 values pushed */\01214 6 40 4 \012CALL[ ]	/* CallFunction */\012PUSHW[ ]	/* 3 values pushed */\0126 8 14 \012SRP1[ ]	/* SetRefPoint1 */\012SRP2[ ]	/* SetRefPoint2 */\012IP[ ]	/* InterpolatePts */\012PUSHW[ ]	/* 3 values pushed */\01211 40 14 \012SRP1[ ]	/* SetRefPoint1 */\012SRP2[ ]	/* SetRefPoint2 */\012IP[ ]	/* InterpolatePts */\012PUSHW[ ]	/* 3 values pushed */\01234 40 14 \012SRP1[ ]	/* SetRefPoint1 */\012SRP2[ ]	/* SetRefPoint2 */\012IP[ ]	/* InterpolatePts */\012PUSHW[ ]	/* 1 value pushed */\01250 \012SRP0[ ]	/* SetRefPoint0 */\012PUSHW[ ]	/* 1 value pushed */\01238 \012MDRP[10000]	/* MoveDirectRelPt */\012PUSHW[ ]	/* 1 value pushed */\01238 \012MDAP[1]	/* MoveDirectAbsPt */\012PUSHW[ ]	/* 1 value pushed */\0128 \012SRP0[ ]	/* SetRefPoint0 */\012PUSHW[ ]	/* 2 values pushed */\01251 6 \012MIRP[10100]	/* MoveIndirectRelPt */\012PUSHW[ ]	/* 3 values pushed */\01255 40 14 \012SRP1[ ]	/* SetRefPoint1 */\012SRP2[ ]	/* SetRefPoint2 */\012IP[ ]	/* InterpolatePts */\012SVTCA[0]	/* SetFreedomAndProjectionVectorToAxis */\012PUSHW[ ]	/* 1 value pushed */\0127 \012MDAP[1]	/* MoveDirectAbsPt */\012IUP[0]	/* InterpolateUntPts */\012IUP[1]	/* InterpolateUntPts */";
};
width = 400;
}
);
leftKerningGroup = H;
leftMetricsKey = H;
note = Eng;
rightKerningGroup = H;
rightMetricsKey = H;
unicode = 014A;
},
{
glyphname = O;
lastChange = "2021-12-03 07:30:48 +0000";
layers = (
{
anchors = (
{
name = bottom;
position = "{164, 0}";
},
{
name = center;
position = "{206, 296}";
},
{
name = ogonek;
position = "{221, 0}";
},
{
name = top;
position = "{252, 591}";
},
{
name = topleft;
position = "{68, 591}";
},
{
name = topright;
position = "{321, 591}";
}
);
layerId = "6544E2DB-1912-401E-9B5B-A29F161A5995";
paths = (
{
closed = 1;
nodes = (
"287 -11 OFFCURVE",
"347 29 OFFCURVE",
"369 186 CURVE SMOOTH",
"406 451 LINE SMOOTH",
"421 560 OFFCURVE",
"361 601 OFFCURVE",
"252 601 CURVE SMOOTH",
"142 601 OFFCURVE",
"64 559 OFFCURVE",
"49 451 CURVE SMOOTH",
"12 185 LINE SMOOTH",
"-10 29 OFFCURVE",
"44 -11 OFFCURVE",
"166 -11 CURVE SMOOTH"
);
},
{
closed = 1;
nodes = (
"56 7 OFFCURVE",
"9 44 OFFCURVE",
"29 185 CURVE SMOOTH",
"66 451 LINE SMOOTH",
"79 547 OFFCURVE",
"149 583 OFFCURVE",
"249 583 CURVE SMOOTH",
"348 583 OFFCURVE",
"402 547 OFFCURVE",
"389 451 CURVE SMOOTH",
"352 186 LINE SMOOTH",
"332 44 OFFCURVE",
"277 7 OFFCURVE",
"168 7 CURVE SMOOTH"
);
},
{
closed = 1;
nodes = (
"274 16 OFFCURVE",
"324 50 OFFCURVE",
"343 186 CURVE SMOOTH",
"380 451 LINE SMOOTH",
"392 540 OFFCURVE",
"341 574 OFFCURVE",
"248 574 CURVE SMOOTH",
"153 574 OFFCURVE",
"88 542 OFFCURVE",
"75 451 CURVE SMOOTH",
"38 185 LINE SMOOTH",
"19 51 OFFCURVE",
"65 16 OFFCURVE",
"170 16 CURVE SMOOTH"
);
},
{
closed = 1;
nodes = (
"177 100 OFFCURVE",
"174 102 OFFCURVE",
"172 106 CURVE SMOOTH",
"170 110 OFFCURVE",
"170 117 OFFCURVE",
"171 127 CURVE SMOOTH",
"218 458 LINE SMOOTH",
"220 469 OFFCURVE",
"222 476 OFFCURVE",
"225 480 CURVE SMOOTH",
"228 483 OFFCURVE",
"231 485 OFFCURVE",
"236 485 CURVE SMOOTH",
"239 485 OFFCURVE",
"242 483 OFFCURVE",
"244 480 CURVE SMOOTH",
"246 476 OFFCURVE",
"247 469 OFFCURVE",
"245 458 CURVE SMOOTH",
"198 127 LINE SMOOTH",
"197 117 OFFCURVE",
"195 110 OFFCURVE",
"192 106 CURVE SMOOTH",
"189 102 OFFCURVE",
"185 100 OFFCURVE",
"182 100 CURVE SMOOTH"
);
},
{
closed = 1;
nodes = (
"184 109 OFFCURVE",
"186 110 OFFCURVE",
"187 113 CURVE SMOOTH",
"188 116 OFFCURVE",
"189 120 OFFCURVE",
"190 127 CURVE SMOOTH",
"237 458 LINE SMOOTH",
"238 465 OFFCURVE",
"239 470 OFFCURVE",
"238 473 CURVE SMOOTH",
"237 475 OFFCURVE",
"235 476 OFFCURVE",
"234 476 CURVE SMOOTH",
"232 476 OFFCURVE",
"231 475 OFFCURVE",
"230 473 CURVE SMOOTH",
"229 470 OFFCURVE",
"227 465 OFFCURVE",
"226 458 CURVE SMOOTH",
"179 127 LINE",
"178 115 OFFCURVE",
"180 109 OFFCURVE",
"183 109 CURVE SMOOTH"
);
}
);
width = 398;
}
);
leftKerningGroup = O;
note = O;
rightKerningGroup = O;
unicode = 004F;
},
{
glyphname = Ohookabove;
lastChange = "2021-12-03 08:12:08 +0000";
layers = (
{
components = (
{
name = O;
},
{
name = hookabovecomb.case;
transform = "{1, 0, 0, 1, 115, 0}";
}
);
layerId = "6544E2DB-1912-401E-9B5B-A29F161A5995";
paths = (
{
closed = 1;
nodes = (
"359 613 OFFCURVE",
"347 597 OFFCURVE",
"327 593 CURVE",
"305 598 OFFCURVE",
"280 600 OFFCURVE",
"252 600 CURVE SMOOTH",
"143 600 OFFCURVE",
"65 564 OFFCURVE",
"51 465 CURVE SMOOTH",
"10 173 LINE SMOOTH",
"-12 14 OFFCURVE",
"57 -12 OFFCURVE",
"166 -12 CURVE SMOOTH",
"264 -12 OFFCURVE",
"343 14 OFFCURVE",
"366 174 CURVE SMOOTH",
"407 465 LINE SMOOTH",
"412 500 OFFCURVE",
"406 527 OFFCURVE",
"392 547 CURVE",
"425 564 OFFCURVE",
"458 594 OFFCURVE",
"462 638 CURVE SMOOTH",
"464 658 LINE",
"364 658 LINE",
"362 638 LINE SMOOTH"
);
},
{
closed = 1;
nodes = (
"206 87 OFFCURVE",
"188 80 OFFCURVE",
"179 80 CURVE SMOOTH",
"169 80 OFFCURVE",
"154 87 OFFCURVE",
"157 110 CURVE SMOOTH",
"208 473 LINE SMOOTH",
"211 496 OFFCURVE",
"217 503 OFFCURVE",
"227 503 CURVE SMOOTH",
"236 503 OFFCURVE",
"252 496 OFFCURVE",
"249 473 CURVE SMOOTH",
"209 110 LINE SMOOTH"
);
}
);
width = 398;
}
);
leftKerningGroup = O;
rightKerningGroup = O;
unicode = 1ECE;
},
{
color = 8;
glyphname = Ohorn;
lastChange = "2021-12-03 08:12:42 +0000";
layers = (
{
anchors = (
{
name = bottom;
position = "{169, 0}";
},
{
name = center;
position = "{211, 296}";
},
{
name = ogonek;
position = "{234, 0}";
},
{
name = top;
position = "{252, 591}";
},
{
name = topleft;
position = "{68, 591}";
},
{
name = topright;
position = "{485, 658}";
}
);
background = {
components = (
{
name = horncomb;
transform = "{1, 0, 0, 1, 226, 125}";
},
{
name = O;
}
);
};
layerId = "6544E2DB-1912-401E-9B5B-A29F161A5995";
paths = (
{
closed = 1;
nodes = (
"364 611 OFFCURVE",
"351 595 OFFCURVE",
"328 592 CURVE",
"307 598 OFFCURVE",
"281 601 OFFCURVE",
"252 601 CURVE SMOOTH",
"142 601 OFFCURVE",
"64 559 OFFCURVE",
"49 451 CURVE SMOOTH",
"12 185 LINE SMOOTH",
"-10 29 OFFCURVE",
"44 -11 OFFCURVE",
"166 -11 CURVE SMOOTH",
"287 -11 OFFCURVE",
"347 29 OFFCURVE",
"369 186 CURVE SMOOTH",
"406 451 LINE SMOOTH",
"411 489 OFFCURVE",
"407 518 OFFCURVE",
"396 541 CURVE",
"437 557 OFFCURVE",
"461 588 OFFCURVE",
"468 638 CURVE SMOOTH",
"470 658 LINE",
"370 658 LINE",
"368 638 LINE SMOOTH"
);
},
{
closed = 1;
nodes = (
"197 117 OFFCURVE",
"195 110 OFFCURVE",
"192 106 CURVE SMOOTH",
"189 102 OFFCURVE",
"185 100 OFFCURVE",
"182 100 CURVE SMOOTH",
"177 100 OFFCURVE",
"174 102 OFFCURVE",
"172 106 CURVE SMOOTH",
"170 110 OFFCURVE",
"170 117 OFFCURVE",
"171 127 CURVE SMOOTH",
"218 458 LINE SMOOTH",
"220 469 OFFCURVE",
"222 476 OFFCURVE",
"225 480 CURVE SMOOTH",
"228 483 OFFCURVE",
"231 485 OFFCURVE",
"236 485 CURVE SMOOTH",
"239 485 OFFCURVE",
"242 483 OFFCURVE",
"244 480 CURVE SMOOTH",
"246 476 OFFCURVE",
"247 469 OFFCURVE",
"245 458 CURVE SMOOTH",
"198 127 LINE SMOOTH"
);
}
);
width = 398;
}
);
leftKerningGroup = O;
rightKerningGroup = O;
unicode = 01A0;
},
{
color = 8;
glyphname = Oogonek;
lastChange = "2021-12-03 07:44:42 +0000";
layers = (
{
anchors = (
{
name = bottom;
position = "{169, 0}";
},
{
name = center;
position = "{211, 296}";
},
{
name = ogonek;
position = "{234, 0}";
},
{
name = top;
position = "{252, 591}";
},
{
name = topleft;
position = "{68, 591}";
},
{
name = topright;
position = "{292, 591}";
}
);
layerId = "6544E2DB-1912-401E-9B5B-A29F161A5995";
paths = (
{
closed = 1;
nodes = (
"143 600 OFFCURVE",
"65 564 OFFCURVE",
"51 465 CURVE SMOOTH",
"10 173 LINE SMOOTH",
"-10 32 OFFCURVE",
"43 -5 OFFCURVE",
"131 -11 CURVE",
"99 -27 OFFCURVE",
"78 -57 OFFCURVE",
"74 -83 CURVE SMOOTH",
"69 -117 OFFCURVE",
"99 -151 OFFCURVE",
"157 -151 CURVE SMOOTH",
"207 -151 OFFCURVE",
"229 -137 OFFCURVE",
"237 -133 CURVE",
"225 -96 LINE",
"222 -96 OFFCURVE",
"216 -99 OFFCURVE",
"207 -99 CURVE SMOOTH",
"191 -99 OFFCURVE",
"172 -85 OFFCURVE",
"175 -61 CURVE SMOOTH",
"177 -44 OFFCURVE",
"189 -24 OFFCURVE",
"210 -10 CURVE",
"296 -2 OFFCURVE",
"357 37 OFFCURVE",
"377 174 CURVE SMOOTH",
"418 465 LINE SMOOTH",
"432 564 OFFCURVE",
"361 600 OFFCURVE",
"252 600 CURVE SMOOTH"
);
},
{
closed = 1;
nodes = (
"206 87 OFFCURVE",
"188 80 OFFCURVE",
"179 80 CURVE SMOOTH",
"169 80 OFFCURVE",
"154 87 OFFCURVE",
"157 110 CURVE SMOOTH",
"208 473 LINE SMOOTH",
"211 496 OFFCURVE",
"228 503 OFFCURVE",
"238 503 CURVE SMOOTH",
"247 503 OFFCURVE",
"263 496 OFFCURVE",
"260 473 CURVE SMOOTH",
"209 110 LINE SMOOTH"
);
}
);
width = 407;
}
);
leftKerningGroup = O;
rightKerningGroup = O;
unicode = 01EA;
},
{
glyphname = Oslash;
lastChange = "2021-12-03 07:30:48 +0000";
layers = (
{
layerId = "6544E2DB-1912-401E-9B5B-A29F161A5995";
paths = (
{
closed = 1;
nodes = (
"78 -40 LINE",
"104 1 LINE",
"128 -8 OFFCURVE",
"156 -11 OFFCURVE",
"189 -11 CURVE SMOOTH",
"314 -11 OFFCURVE",
"374 29 OFFCURVE",
"396 187 CURVE SMOOTH",
"433 455 LINE SMOOTH",
"437 482 OFFCURVE",
"436 504 OFFCURVE",
"429 524 CURVE",
"499 634 LINE",
"379 634 LINE",
"355 596 LINE",
"333 603 OFFCURVE",
"307 606 OFFCURVE",
"276 606 CURVE SMOOTH",
"165 606 OFFCURVE",
"85 564 OFFCURVE",
"69 455 CURVE SMOOTH",
"32 186 LINE SMOOTH",
"25 139 OFFCURVE",
"26 106 OFFCURVE",
"34 77 CURVE",
"-39 -40 LINE"
);
},
{
closed = 1;
nodes = (
"210 110 OFFCURVE",
"213 116 OFFCURVE",
"215 129 CURVE SMOOTH",
"232 253 LINE",
"218 231 LINE",
"204 129 LINE SMOOTH",
"202 116 OFFCURVE",
"203 110 OFFCURVE",
"206 110 CURVE SMOOTH"
);
},
{
closed = 1;
nodes = (
"201 101 OFFCURVE",
"198 103 OFFCURVE",
"196 107 CURVE SMOOTH",
"194 110 OFFCURVE",
"194 118 OFFCURVE",
"195 129 CURVE SMOOTH",
"209 233 LINE",
"245 291 LINE",
"223 129 LINE SMOOTH",
"222 118 OFFCURVE",
"219 110 OFFCURVE",
"216 107 CURVE SMOOTH",
"213 103 OFFCURVE",
"209 101 OFFCURVE",
"205 101 CURVE SMOOTH"
);
},
{
closed = 1;
nodes = (
"53 76 LINE",
"44 102 OFFCURVE",
"43 139 OFFCURVE",
"50 186 CURVE SMOOTH",
"87 455 LINE SMOOTH",
"102 552 OFFCURVE",
"173 588 OFFCURVE",
"273 588 CURVE SMOOTH",
"308 588 OFFCURVE",
"337 583 OFFCURVE",
"360 573 CURVE",
"387 615 LINE",
"467 615 LINE",
"409 524 LINE",
"416 505 OFFCURVE",
"420 480 OFFCURVE",
"416 455 CURVE SMOOTH",
"379 187 LINE SMOOTH",
"359 44 OFFCURVE",
"302 7 OFFCURVE",
"191 7 CURVE SMOOTH",
"152 7 OFFCURVE",
"122 10 OFFCURVE",
"98 23 CURVE",
"69 -22 LINE",
"-9 -22 LINE"
);
},
{
closed = 1;
nodes = (
"65 -13 LINE",
"96 36 LINE",
"119 21 OFFCURVE",
"153 17 OFFCURVE",
"193 17 CURVE SMOOTH",
"300 17 OFFCURVE",
"350 51 OFFCURVE",
"370 187 CURVE SMOOTH",
"407 455 LINE SMOOTH",
"412 483 OFFCURVE",
"409 506 OFFCURVE",
"399 525 CURVE",
"451 606 LINE",
"391 606 LINE",
"363 561 LINE",
"340 573 OFFCURVE",
"309 579 OFFCURVE",
"272 579 CURVE SMOOTH",
"176 579 OFFCURVE",
"109 546 OFFCURVE",
"96 455 CURVE SMOOTH",
"59 186 LINE SMOOTH",
"52 138 OFFCURVE",
"54 104 OFFCURVE",
"63 77 CURVE",
"7 -13 LINE"
);
},
{
closed = 1;
nodes = (
"241 462 LINE SMOOTH",
"242 473 OFFCURVE",
"245 480 OFFCURVE",
"248 484 CURVE SMOOTH",
"251 487 OFFCURVE",
"255 489 OFFCURVE",
"259 489 CURVE SMOOTH",
"263 489 OFFCURVE",
"266 487 OFFCURVE",
"268 484 CURVE SMOOTH",
"270 480 OFFCURVE",
"270 473 OFFCURVE",
"269 462 CURVE SMOOTH",
"257 376 LINE",
"221 319 LINE"
);
},
{
closed = 1;
nodes = (
"250 378 LINE",
"261 462 LINE SMOOTH",
"262 469 OFFCURVE",
"263 474 OFFCURVE",
"262 477 CURVE SMOOTH",
"261 479 OFFCURVE",
"259 480 OFFCURVE",
"258 480 CURVE SMOOTH",
"257 480 OFFCURVE",
"255 479 OFFCURVE",
"254 477 CURVE SMOOTH",
"253 474 OFFCURVE",
"251 469 OFFCURVE",
"250 462 CURVE SMOOTH",
"236 356 LINE"
);
}
);
userData = {
assembly = "PUSHW[ ]	/* 4 values pushed */\01272 6 56 4 \012CALL[ ]	/* CallFunction */\012PUSHW[ ]	/* 1 value pushed */\01256 \012SRP0[ ]	/* SetRefPoint0 */\012PUSHW[ ]	/* 1 value pushed */\01229 \012MDRP[10000]	/* MoveDirectRelPt */\012PUSHW[ ]	/* 1 value pushed */\01229 \012MDAP[1]	/* MoveDirectAbsPt */\012PUSHW[ ]	/* 3 values pushed */\01230 56 72 \012SRP1[ ]	/* SetRefPoint1 */\012SRP2[ ]	/* SetRefPoint2 */\012IP[ ]	/* InterpolatePts */\012PUSHW[ ]	/* 1 value pushed */\01256 \012SRP0[ ]	/* SetRefPoint0 */\012PUSHW[ ]	/* 1 value pushed */\01235 \012MDRP[10000]	/* MoveDirectRelPt */\012PUSHW[ ]	/* 1 value pushed */\01235 \012MDAP[1]	/* MoveDirectAbsPt */\012PUSHW[ ]	/* 3 values pushed */\01252 56 72 \012SRP1[ ]	/* SetRefPoint1 */\012SRP2[ ]	/* SetRefPoint2 */\012IP[ ]	/* InterpolatePts */\012PUSHW[ ]	/* 1 value pushed */\01256 \012SRP0[ ]	/* SetRefPoint0 */\012PUSHW[ ]	/* 1 value pushed */\01258 \012MDRP[10000]	/* MoveDirectRelPt */\012PUSHW[ ]	/* 1 value pushed */\01258 \012MDAP[1]	/* MoveDirectAbsPt */\012PUSHW[ ]	/* 1 value pushed */\01272 \012SRP0[ ]	/* SetRefPoint0 */\012PUSHW[ ]	/* 1 value pushed */\012116 \012MDRP[11100]	/* MoveDirectRelPt */\012SVTCA[0]	/* SetFreedomAndProjectionVectorToAxis */\012PUSHW[ ]	/* 3 values pushed */\012101 4 3 \012CALL[ ]	/* CallFunction */\012PUSHW[ ]	/* 4 values pushed */\01226 2 83 4 \012CALL[ ]	/* CallFunction */\012PUSHW[ ]	/* 4 values pushed */\01272 2 40 4 \012CALL[ ]	/* CallFunction */\012PUSHW[ ]	/* 1 value pushed */\01283 \012SRP0[ ]	/* SetRefPoint0 */\012PUSHW[ ]	/* 1 value pushed */\0120 \012MDRP[10000]	/* MoveDirectRelPt */\012PUSHW[ ]	/* 1 value pushed */\0120 \012MDAP[1]	/* MoveDirectAbsPt */\012PUSHW[ ]	/* 1 value pushed */\01272 \012SRP0[ ]	/* SetRefPoint0 */\012PUSHW[ ]	/* 1 value pushed */\01213 \012MDRP[10000]	/* MoveDirectRelPt */\012PUSHW[ ]	/* 1 value pushed */\01213 \012MDAP[1]	/* MoveDirectAbsPt */\012PUSHW[ ]	/* 1 value pushed */\012101 \012SRP0[ ]	/* SetRefPoint0 */\012PUSHW[ ]	/* 1 value pushed */\01216 \012MDRP[10000]	/* MoveDirectRelPt */\012PUSHW[ ]	/* 3 values pushed */\01230 4 101 \012SRP1[ ]	/* SetRefPoint1 */\012SRP2[ ]	/* SetRefPoint2 */\012IP[ ]	/* InterpolatePts */\012PUSHW[ ]	/* 3 values pushed */\01235 4 101 \012SRP1[ ]	/* SetRefPoint1 */\012SRP2[ ]	/* SetRefPoint2 */\012IP[ ]	/* InterpolatePts */\012PUSHW[ ]	/* 3 values pushed */\01252 4 101 \012SRP1[ ]	/* SetRefPoint1 */\012SRP2[ ]	/* SetRefPoint2 */\012IP[ ]	/* InterpolatePts */\012PUSHW[ ]	/* 3 values pushed */\01257 4 101 \012SRP1[ ]	/* SetRefPoint1 */\012SRP2[ ]	/* SetRefPoint2 */\012IP[ ]	/* InterpolatePts */\012PUSHW[ ]	/* 1 value pushed */\0124 \012SRP0[ ]	/* SetRefPoint0 */\012PUSHW[ ]	/* 1 value pushed */\01286 \012MDRP[10000]	/* MoveDirectRelPt */\012PUSHW[ ]	/* 1 value pushed */\01286 \012MDAP[1]	/* MoveDirectAbsPt */\012IUP[0]	/* InterpolateUntPts */\012IUP[1]	/* InterpolateUntPts */";
};
width = 450;
}
);
leftKerningGroup = O;
note = Oslash;
rightKerningGroup = O;
unicode = 00D8;
},
{
glyphname = OE;
lastChange = "2021-12-03 07:30:48 +0000";
layers = (
{
layerId = "6544E2DB-1912-401E-9B5B-A29F161A5995";
paths = (
{
closed = 1;
nodes = (
"204 -11 OFFCURVE",
"234 -8 OFFCURVE",
"259 0 CURVE",
"462 0 LINE",
"483 153 LINE",
"376 153 LINE",
"385 219 LINE",
"483 219 LINE",
"507 387 LINE",
"409 387 LINE",
"416 437 LINE",
"523 437 LINE",
"545 593 LINE",
"333 593 LINE",
"310 600 OFFCURVE",
"287 601 OFFCURVE",
"258 601 CURVE SMOOTH",
"145 601 OFFCURVE",
"65 560 OFFCURVE",
"49 451 CURVE SMOOTH",
"12 185 LINE SMOOTH",
"-10 28 OFFCURVE",
"46 -11 OFFCURVE",
"172 -11 CURVE SMOOTH"
);
},
{
closed = 1;
nodes = (
"183 100 OFFCURVE",
"180 102 OFFCURVE",
"178 106 CURVE SMOOTH",
"176 110 OFFCURVE",
"176 117 OFFCURVE",
"177 127 CURVE SMOOTH",
"224 458 LINE SMOOTH",
"225 469 OFFCURVE",
"228 476 OFFCURVE",
"231 480 CURVE SMOOTH",
"234 483 OFFCURVE",
"237 485 OFFCURVE",
"242 485 CURVE SMOOTH",
"246 485 OFFCURVE",
"249 483 OFFCURVE",
"251 480 CURVE SMOOTH",
"253 476 OFFCURVE",
"253 469 OFFCURVE",
"252 458 CURVE SMOOTH",
"205 127 LINE SMOOTH",
"204 117 OFFCURVE",
"202 110 OFFCURVE",
"199 106 CURVE SMOOTH",
"196 102 OFFCURVE",
"192 100 OFFCURVE",
"188 100 CURVE SMOOTH"
);
},
{
closed = 1;
nodes = (
"193 109 OFFCURVE",
"195 115 OFFCURVE",
"196 127 CURVE",
"243 458 LINE SMOOTH",
"244 465 OFFCURVE",
"245 470 OFFCURVE",
"244 473 CURVE SMOOTH",
"243 475 OFFCURVE",
"241 476 OFFCURVE",
"240 476 CURVE SMOOTH",
"238 476 OFFCURVE",
"237 475 OFFCURVE",
"236 473 CURVE SMOOTH",
"233 458 LINE",
"186 127 LINE",
"185 115 OFFCURVE",
"186 109 OFFCURVE",
"189 109 CURVE SMOOTH"
);
},
{
closed = 1;
nodes = (
"60 7 OFFCURVE",
"10 44 OFFCURVE",
"30 185 CURVE SMOOTH",
"67 451 LINE SMOOTH",
"80 547 OFFCURVE",
"152 583 OFFCURVE",
"255 583 CURVE SMOOTH",
"282 583 OFFCURVE",
"308 579 OFFCURVE",
"327 575 CURVE",
"524 575 LINE",
"507 455 LINE",
"400 455 LINE",
"388 369 LINE",
"486 369 LINE",
"468 237 LINE",
"370 237 LINE",
"355 135 LINE",
"462 135 LINE",
"446 18 LINE",
"257 18 LINE",
"234 10 OFFCURVE",
"205 7 OFFCURVE",
"174 7 CURVE SMOOTH"
);
},
{
closed = 1;
nodes = (
"207 16 OFFCURVE",
"233 19 OFFCURVE",
"256 27 CURVE",
"438 27 LINE",
"452 126 LINE",
"346 126 LINE",
"363 246 LINE",
"460 246 LINE",
"476 360 LINE",
"379 360 LINE",
"394 464 LINE",
"500 464 LINE",
"514 566 LINE",
"323 566 LINE",
"304 571 OFFCURVE",
"281 574 OFFCURVE",
"254 574 CURVE SMOOTH",
"157 574 OFFCURVE",
"88 542 OFFCURVE",
"75 451 CURVE SMOOTH",
"38 185 LINE SMOOTH",
"18 50 OFFCURVE",
"68 16 OFFCURVE",
"176 16 CURVE SMOOTH"
);
}
);
userData = {
assembly = "PUSHW[ ]	/* 4 values pushed */\01291 6 49 4 \012CALL[ ]	/* CallFunction */\012PUSHW[ ]	/* 4 values pushed */\01212 6 58 4 \012CALL[ ]	/* CallFunction */\012PUSHW[ ]	/* 3 values pushed */\01211 49 91 \012SRP1[ ]	/* SetRefPoint1 */\012SRP2[ ]	/* SetRefPoint2 */\012IP[ ]	/* InterpolatePts */\012PUSHW[ ]	/* 1 value pushed */\01211 \012MDAP[1]	/* MoveDirectAbsPt */\012PUSHW[ ]	/* 1 value pushed */\01258 \012SRP0[ ]	/* SetRefPoint0 */\012PUSHW[ ]	/* 1 value pushed */\01218 \012MDRP[10000]	/* MoveDirectRelPt */\012PUSHW[ ]	/* 1 value pushed */\01218 \012MDAP[1]	/* MoveDirectAbsPt */\012PUSHW[ ]	/* 1 value pushed */\01211 \012SRP0[ ]	/* SetRefPoint0 */\012PUSHW[ ]	/* 2 values pushed */\01241 6 \012MIRP[10100]	/* MoveIndirectRelPt */\012PUSHW[ ]	/* 1 value pushed */\01212 \012SRP0[ ]	/* SetRefPoint0 */\012PUSHW[ ]	/* 1 value pushed */\01263 \012MDRP[10000]	/* MoveDirectRelPt */\012PUSHW[ ]	/* 1 value pushed */\01263 \012MDAP[1]	/* MoveDirectAbsPt */\012PUSHW[ ]	/* 1 value pushed */\01212 \012SRP0[ ]	/* SetRefPoint0 */\012PUSHW[ ]	/* 1 value pushed */\01296 \012MDRP[10000]	/* MoveDirectRelPt */\012PUSHW[ ]	/* 1 value pushed */\01296 \012MDAP[1]	/* MoveDirectAbsPt */\012PUSHW[ ]	/* 1 value pushed */\01258 \012SRP0[ ]	/* SetRefPoint0 */\012PUSHW[ ]	/* 1 value pushed */\01299 \012MDRP[10000]	/* MoveDirectRelPt */\012PUSHW[ ]	/* 1 value pushed */\01299 \012MDAP[1]	/* MoveDirectAbsPt */\012PUSHW[ ]	/* 1 value pushed */\01212 \012SRP0[ ]	/* SetRefPoint0 */\012PUSHW[ ]	/* 1 value pushed */\012106 \012MDRP[11100]	/* MoveDirectRelPt */\012SVTCA[0]	/* SetFreedomAndProjectionVectorToAxis */\012PUSHW[ ]	/* 4 values pushed */\01225 2 54 4 \012CALL[ ]	/* CallFunction */\012PUSHW[ ]	/* 4 values pushed */\01220 3 21 4 \012CALL[ ]	/* CallFunction */\012PUSHW[ ]	/* 4 values pushed */\01211 2 32 4 \012CALL[ ]	/* CallFunction */\012PUSHW[ ]	/* 1 value pushed */\01254 \012SRP0[ ]	/* SetRefPoint0 */\012PUSHW[ ]	/* 1 value pushed */\0120 \012MDRP[10000]	/* MoveDirectRelPt */\012PUSHW[ ]	/* 1 value pushed */\0120 \012MDAP[1]	/* MoveDirectAbsPt */\012PUSHW[ ]	/* 1 value pushed */\01225 \012SRP0[ ]	/* SetRefPoint0 */\012PUSHW[ ]	/* 2 values pushed */\01222 2 \012MIRP[10100]	/* MoveIndirectRelPt */\012IUP[0]	/* InterpolateUntPts */\012IUP[1]	/* InterpolateUntPts */";
};
width = 514;
}
);
leftKerningGroup = O;
leftMetricsKey = O;
note = OE;
rightKerningGroup = E;
rightMetricsKey = E;
unicode = 0152;
},
{
glyphname = P;
lastChange = "2021-12-03 07:30:48 +0000";
layers = (
{
layerId = "6544E2DB-1912-401E-9B5B-A29F161A5995";
paths = (
{
closed = 1;
nodes = (
"184 0 LINE",
"212 203 LINE",
"250 203 LINE SMOOTH",
"348 203 OFFCURVE",
"387 286 OFFCURVE",
"400 383 CURVE SMOOTH",
"413 472 LINE SMOOTH",
"424 543 OFFCURVE",
"391 591 OFFCURVE",
"298 591 CURVE SMOOTH",
"73 591 LINE",
"-10 0 LINE"
);
},
{
closed = 1;
nodes = (
"88 573 LINE",
"295 573 LINE SMOOTH",
"376 573 OFFCURVE",
"404 532 OFFCURVE",
"396 472 CURVE SMOOTH",
"383 383 LINE SMOOTH",
"369 296 OFFCURVE",
"339 222 OFFCURVE",
"253 222 CURVE SMOOTH",
"198 222 LINE",
"169 18 LINE",
"10 18 LINE"
);
},
{
closed = 1;
nodes = (
"161 27 LINE",
"190 231 LINE",
"254 231 LINE SMOOTH",
"331 231 OFFCURVE",
"364 302 OFFCURVE",
"375 383 CURVE SMOOTH",
"388 472 LINE SMOOTH",
"395 527 OFFCURVE",
"370 564 OFFCURVE",
"294 564 CURVE SMOOTH",
"95 564 LINE",
"19 27 LINE"
);
},
{
closed = 1;
nodes = (
"226 488 LINE",
"239 488 LINE SMOOTH",
"246 488 OFFCURVE",
"250 481 OFFCURVE",
"250 468 CURVE SMOOTH",
"249 455 OFFCURVE",
"246 431 OFFCURVE",
"241 398 CURVE SMOOTH",
"236 364 OFFCURVE",
"232 341 OFFCURVE",
"227 328 CURVE SMOOTH",
"222 315 OFFCURVE",
"217 309 OFFCURVE",
"211 309 CURVE SMOOTH",
"201 309 LINE"
);
},
{
closed = 1;
nodes = (
"212 318 LINE SMOOTH",
"215 318 OFFCURVE",
"219 324 OFFCURVE",
"222 336 CURVE SMOOTH",
"225 347 OFFCURVE",
"229 368 OFFCURVE",
"233 398 CURVE SMOOTH",
"238 428 OFFCURVE",
"241 449 OFFCURVE",
"242 461 CURVE SMOOTH",
"243 472 OFFCURVE",
"241 478 OFFCURVE",
"238 478 CURVE SMOOTH",
"234 478 LINE",
"211 318 LINE"
);
}
);
userData = {
assembly = "SVTCA[0]	/* SetFreedomAndProjectionVectorToAxis */\012PUSHW[ ]	/* 1 value pushed */\01212 \012MDAP[1]	/* MoveDirectAbsPt */\012PUSHW[ ]	/* 4 values pushed */\01214 1 34 4 \012CALL[ ]	/* CallFunction */\012IUP[0]	/* InterpolateUntPts */\012IUP[1]	/* InterpolateUntPts */";
};
width = 397;
}
);
leftKerningGroup = H;
leftMetricsKey = H;
note = P;
rightKerningGroup = P;
unicode = 0050;
},
{
glyphname = Thorn;
lastChange = "2021-12-03 07:30:48 +0000";
layers = (
{
layerId = "6544E2DB-1912-401E-9B5B-A29F161A5995";
paths = (
{
closed = 1;
nodes = (
"177 0 LINE",
"193 115 LINE",
"231 115 LINE SMOOTH",
"329 115 OFFCURVE",
"368 198 OFFCURVE",
"381 295 CURVE SMOOTH",
"393 384 LINE SMOOTH",
"404 455 OFFCURVE",
"371 503 OFFCURVE",
"278 503 CURVE SMOOTH",
"248 503 LINE",
"261 591 LINE",
"66 591 LINE",
"-17 0 LINE"
);
},
{
closed = 1;
nodes = (
"81 573 LINE",
"241 573 LINE",
"229 485 LINE",
"276 485 LINE SMOOTH",
"357 485 OFFCURVE",
"385 444 OFFCURVE",
"376 384 CURVE SMOOTH",
"364 295 LINE SMOOTH",
"351 209 OFFCURVE",
"317 133 OFFCURVE",
"233 133 CURVE SMOOTH",
"178 133 LINE",
"162 18 LINE",
"3 18 LINE"
);
},
{
closed = 1;
nodes = (
"154 27 LINE",
"171 143 LINE",
"235 143 LINE SMOOTH",
"312 143 OFFCURVE",
"345 214 OFFCURVE",
"356 295 CURVE SMOOTH",
"368 384 LINE SMOOTH",
"376 439 OFFCURVE",
"350 476 OFFCURVE",
"274 476 CURVE SMOOTH",
"218 476 LINE",
"231 564 LINE",
"88 564 LINE",
"12 27 LINE"
);
},
{
closed = 1;
nodes = (
"207 399 LINE",
"220 399 LINE SMOOTH",
"227 399 OFFCURVE",
"231 393 OFFCURVE",
"230 380 CURVE SMOOTH",
"229 367 OFFCURVE",
"227 343 OFFCURVE",
"222 310 CURVE SMOOTH",
"217 276 OFFCURVE",
"213 253 OFFCURVE",
"208 240 CURVE SMOOTH",
"203 227 OFFCURVE",
"198 221 OFFCURVE",
"192 221 CURVE SMOOTH",
"182 221 LINE"
);
},
{
closed = 1;
nodes = (
"193 230 LINE SMOOTH",
"196 230 OFFCURVE",
"200 236 OFFCURVE",
"203 248 CURVE SMOOTH",
"206 259 OFFCURVE",
"210 280 OFFCURVE",
"214 310 CURVE SMOOTH",
"218 340 OFFCURVE",
"221 361 OFFCURVE",
"222 373 CURVE SMOOTH",
"223 384 OFFCURVE",
"221 390 OFFCURVE",
"218 390 CURVE SMOOTH",
"214 390 LINE",
"192 230 LINE"
);
}
);
userData = {
assembly = "SVTCA[0]	/* SetFreedomAndProjectionVectorToAxis */\012PUSHW[ ]	/* 1 value pushed */\01214 \012MDAP[1]	/* MoveDirectAbsPt */\012IUP[0]	/* InterpolateUntPts */\012IUP[1]	/* InterpolateUntPts */";
};
width = 405;
}
);
leftKerningGroup = H;
note = Thorn;
rightKerningGroup = P;
unicode = 00DE;
},
{
glyphname = Q;
lastChange = "2021-12-03 07:30:48 +0000";
layers = (
{
layerId = "6544E2DB-1912-401E-9B5B-A29F161A5995";
paths = (
{
closed = 1;
nodes = (
"350 -45 LINE",
"334 -3 LINE SMOOTH",
"327 14 OFFCURVE",
"321 29 OFFCURVE",
"315 43 CURVE",
"342 74 OFFCURVE",
"359 120 OFFCURVE",
"370 188 CURVE SMOOTH",
"408 457 LINE SMOOTH",
"424 567 OFFCURVE",
"364 610 OFFCURVE",
"253 610 CURVE SMOOTH",
"142 610 OFFCURVE",
"66 568 OFFCURVE",
"50 457 CURVE SMOOTH",
"12 188 LINE SMOOTH",
"-10 33 OFFCURVE",
"40 -8 OFFCURVE",
"157 -11 CURVE",
"204 -129 LINE"
);
},
{
closed = 1;
nodes = (
"168 7 LINE",
"55 7 OFFCURVE",
"10 45 OFFCURVE",
"29 188 CURVE SMOOTH",
"67 457 LINE SMOOTH",
"82 556 OFFCURVE",
"151 591 OFFCURVE",
"251 591 CURVE SMOOTH",
"352 591 OFFCURVE",
"404 555 OFFCURVE",
"391 457 CURVE SMOOTH",
"353 188 LINE SMOOTH",
"342 115 OFFCURVE",
"323 72 OFFCURVE",
"295 45 CURVE",
"306 18 OFFCURVE",
"318 -14 OFFCURVE",
"327 -39 CURVE",
"214 -104 LINE"
);
},
{
closed = 1;
nodes = (
"316 -35 LINE",
"284 46 LINE",
"312 71 OFFCURVE",
"333 113 OFFCURVE",
"344 188 CURVE SMOOTH",
"382 457 LINE SMOOTH",
"395 549 OFFCURVE",
"342 582 OFFCURVE",
"249 582 CURVE SMOOTH",
"154 582 OFFCURVE",
"89 549 OFFCURVE",
"76 457 CURVE SMOOTH",
"38 188 LINE SMOOTH",
"18 52 OFFCURVE",
"65 17 OFFCURVE",
"170 17 CURVE SMOOTH",
"176 17 LINE",
"219 -91 LINE"
);
},
{
closed = 1;
nodes = (
"177 102 OFFCURVE",
"174 104 OFFCURVE",
"173 108 CURVE SMOOTH",
"171 111 OFFCURVE",
"171 118 OFFCURVE",
"172 129 CURVE SMOOTH",
"219 465 LINE SMOOTH",
"220 476 OFFCURVE",
"223 483 OFFCURVE",
"226 487 CURVE SMOOTH",
"229 490 OFFCURVE",
"232 492 OFFCURVE",
"237 492 CURVE SMOOTH",
"241 492 OFFCURVE",
"244 490 OFFCURVE",
"246 487 CURVE SMOOTH",
"248 483 OFFCURVE",
"248 476 OFFCURVE",
"247 465 CURVE SMOOTH",
"200 129 LINE SMOOTH",
"199 118 OFFCURVE",
"196 111 OFFCURVE",
"193 108 CURVE SMOOTH",
"190 104 OFFCURVE",
"186 102 OFFCURVE",
"182 102 CURVE SMOOTH"
);
},
{
closed = 1;
nodes = (
"184 111 OFFCURVE",
"186 112 OFFCURVE",
"187 115 CURVE SMOOTH",
"188 117 OFFCURVE",
"190 122 OFFCURVE",
"191 129 CURVE SMOOTH",
"238 465 LINE SMOOTH",
"239 472 OFFCURVE",
"240 477 OFFCURVE",
"239 480 CURVE SMOOTH",
"238 482 OFFCURVE",
"236 483 OFFCURVE",
"235 483 CURVE SMOOTH",
"234 483 OFFCURVE",
"233 482 OFFCURVE",
"232 480 CURVE SMOOTH",
"231 477 OFFCURVE",
"229 472 OFFCURVE",
"228 465 CURVE SMOOTH",
"181 129 LINE SMOOTH",
"180 122 OFFCURVE",
"179 117 OFFCURVE",
"180 115 CURVE SMOOTH",
"181 112 OFFCURVE",
"182 111 OFFCURVE",
"183 111 CURVE SMOOTH"
);
}
);
userData = {
assembly = "PUSHW[ ]	/* 4 values pushed */\01249 6 34 4 \012CALL[ ]	/* CallFunction */\012PUSHW[ ]	/* 1 value pushed */\01234 \012SRP0[ ]	/* SetRefPoint0 */\012PUSHW[ ]	/* 1 value pushed */\01237 \012MDRP[10000]	/* MoveDirectRelPt */\012PUSHW[ ]	/* 1 value pushed */\01237 \012MDAP[1]	/* MoveDirectAbsPt */\012PUSHW[ ]	/* 1 value pushed */\01249 \012SRP0[ ]	/* SetRefPoint0 */\012PUSHW[ ]	/* 1 value pushed */\01297 \012MDRP[11100]	/* MoveDirectRelPt */\012IUP[0]	/* InterpolateUntPts */\012IUP[1]	/* InterpolateUntPts */";
};
width = 411;
}
);
leftKerningGroup = O;
leftMetricsKey = O;
note = Q;
rightKerningGroup = Q;
rightMetricsKey = O;
unicode = 0051;
},
{
glyphname = R;
lastChange = "2021-12-03 07:30:48 +0000";
layers = (
{
anchors = (
{
name = bottom;
position = "{181, 0}";
},
{
name = top;
position = "{240, 591}";
}
);
layerId = "6544E2DB-1912-401E-9B5B-A29F161A5995";
paths = (
{
closed = 1;
nodes = (
"391 0 LINE",
"367 229 LINE",
"360 256 OFFCURVE",
"358 268 OFFCURVE",
"350 280 CURVE",
"386 307 OFFCURVE",
"400 347 OFFCURVE",
"406 390 CURVE SMOOTH",
"418 472 LINE SMOOTH",
"429 545 OFFCURVE",
"391 591 OFFCURVE",
"300 591 CURVE SMOOTH",
"73 591 LINE",
"-10 0 LINE"
);
},
{
closed = 1;
nodes = (
"87 573 LINE",
"297 573 LINE SMOOTH",
"380 573 OFFCURVE",
"409 531 OFFCURVE",
"400 472 CURVE SMOOTH",
"388 390 LINE SMOOTH",
"382 347 OFFCURVE",
"361 304 OFFCURVE",
"320 281 CURVE",
"335 272 OFFCURVE",
"342 257 OFFCURVE",
"350 218 CURVE",
"371 18 LINE",
"203 22 LINE",
"202 49 OFFCURVE",
"200 73 OFFCURVE",
"198 94 CURVE SMOOTH",
"197 112 OFFCURVE",
"195 129 OFFCURVE",
"194 145 CURVE SMOOTH",
"192 172 LINE",
"170 18 LINE",
"9 18 LINE"
);
},
{
closed = 1;
nodes = (
"163 27 LINE",
"197 265 LINE",
"198 265 LINE",
"198 259 OFFCURVE",
"201 174 OFFCURVE",
"202 142 CURVE SMOOTH",
"207 27 LINE",
"361 27 LINE",
"341 222 LINE",
"332 264 OFFCURVE",
"319 277 OFFCURVE",
"293 280 CURVE",
"352 295 OFFCURVE",
"373 339 OFFCURVE",
"380 390 CURVE SMOOTH",
"392 472 LINE SMOOTH",
"400 527 OFFCURVE",
"372 564 OFFCURVE",
"296 564 CURVE SMOOTH",
"95 564 LINE",
"19 27 LINE"
);
},
{
closed = 1;
nodes = (
"228 488 LINE",
"241 488 LINE SMOOTH",
"248 488 OFFCURVE",
"252 481 OFFCURVE",
"252 468 CURVE SMOOTH",
"251 455 OFFCURVE",
"248 431 OFFCURVE",
"243 398 CURVE SMOOTH",
"238 365 OFFCURVE",
"234 343 OFFCURVE",
"230 333 CURVE SMOOTH",
"225 323 OFFCURVE",
"220 318 OFFCURVE",
"214 318 CURVE SMOOTH",
"204 318 LINE"
);
},
{
closed = 1;
nodes = (
"215 327 LINE SMOOTH",
"218 327 OFFCURVE",
"221 332 OFFCURVE",
"224 341 CURVE SMOOTH",
"227 350 OFFCURVE",
"231 369 OFFCURVE",
"235 398 CURVE SMOOTH",
"240 428 OFFCURVE",
"243 449 OFFCURVE",
"244 461 CURVE SMOOTH",
"245 472 OFFCURVE",
"243 478 OFFCURVE",
"240 478 CURVE SMOOTH",
"235 478 LINE",
"213 327 LINE"
);
}
);
userData = {
assembly = "SVTCA[0]	/* SetFreedomAndProjectionVectorToAxis */\012PUSHW[ ]	/* 1 value pushed */\01214 \012MDAP[1]	/* MoveDirectAbsPt */\012PUSHW[ ]	/* 1 value pushed */\01224 \012MDAP[1]	/* MoveDirectAbsPt */\012PUSHW[ ]	/* 1 value pushed */\01251 \012MDAP[1]	/* MoveDirectAbsPt */\012IUP[0]	/* InterpolateUntPts */\012IUP[1]	/* InterpolateUntPts */";
};
width = 431;
}
);
leftKerningGroup = H;
leftMetricsKey = H;
note = R;
rightKerningGroup = R;
unicode = 0052;
},
{
glyphname = S;
lastChange = "2021-12-03 07:30:48 +0000";
layers = (
{
anchors = (
{
name = bottom;
position = "{168, 0}";
},
{
name = top;
position = "{251, 591}";
}
);
layerId = "6544E2DB-1912-401E-9B5B-A29F161A5995";
paths = (
{
closed = 1;
nodes = (
"287 -7 OFFCURVE",
"362 45 OFFCURVE",
"382 183 CURVE SMOOTH",
"397 276 OFFCURVE",
"380 317 OFFCURVE",
"323 348 CURVE",
"399 348 LINE",
"412 436 LINE SMOOTH",
"427 541 OFFCURVE",
"373 594 OFFCURVE",
"251 594 CURVE SMOOTH",
"112 594 OFFCURVE",
"60 547 OFFCURVE",
"41 411 CURVE SMOOTH",
"28 316 OFFCURVE",
"42 262 OFFCURVE",
"114 226 CURVE",
"115 225 LINE",
"11 225 LINE",
"5 181 LINE SMOOTH",
"-15 37 OFFCURVE",
"34 -7 OFFCURVE",
"162 -7 CURVE SMOOTH"
);
},
{
closed = 1;
nodes = (
"186 110 OFFCURVE",
"189 113 OFFCURVE",
"191 118 CURVE SMOOTH",
"193 123 OFFCURVE",
"195 134 OFFCURVE",
"198 151 CURVE SMOOTH",
"201 176 OFFCURVE",
"198 192 OFFCURVE",
"187 205 CURVE",
"181 158 LINE SMOOTH",
"178 137 OFFCURVE",
"176 124 OFFCURVE",
"177 119 CURVE SMOOTH",
"178 113 OFFCURVE",
"180 110 OFFCURVE",
"183 110 CURVE SMOOTH"
);
},
{
closed = 1;
nodes = (
"49 11 OFFCURVE",
"4 51 OFFCURVE",
"22 181 CURVE SMOOTH",
"26 207 LINE",
"184 207 LINE",
"171 219 OFFCURVE",
"152 228 OFFCURVE",
"124 243 CURVE SMOOTH",
"59 275 OFFCURVE",
"47 326 OFFCURVE",
"59 411 CURVE SMOOTH",
"75 531 OFFCURVE",
"123 576 OFFCURVE",
"248 576 CURVE SMOOTH",
"359 576 OFFCURVE",
"408 529 OFFCURVE",
"395 436 CURVE SMOOTH",
"385 366 LINE",
"237 366 LINE",
"244 361 OFFCURVE",
"253 357 OFFCURVE",
"264 354 CURVE",
"263 355 LINE",
"264 354 OFFCURVE",
"266 354 OFFCURVE",
"269 353 CURVE SMOOTH",
"274 350 LINE",
"275 349 LINE",
"355 315 OFFCURVE",
"380 291 OFFCURVE",
"365 183 CURVE SMOOTH",
"347 57 OFFCURVE",
"277 11 OFFCURVE",
"164 11 CURVE SMOOTH"
);
},
{
closed = 1;
nodes = (
"272 20 OFFCURVE",
"340 64 OFFCURVE",
"356 183 CURVE SMOOTH",
"371 284 OFFCURVE",
"347 310 OFFCURVE",
"270 341 CURVE SMOOTH",
"231 359 OFFCURVE",
"203 362 OFFCURVE",
"211 416 CURVE SMOOTH",
"215 443 OFFCURVE",
"220 465 OFFCURVE",
"235 465 CURVE SMOOTH",
"244 465 OFFCURVE",
"249 459 OFFCURVE",
"248 446 CURVE SMOOTH",
"247 433 OFFCURVE",
"245 415 OFFCURVE",
"242 390 CURVE SMOOTH",
"240 376 LINE",
"377 376 LINE",
"386 436 LINE SMOOTH",
"398 523 OFFCURVE",
"352 566 OFFCURVE",
"247 566 CURVE SMOOTH",
"128 566 OFFCURVE",
"83 527 OFFCURVE",
"67 411 CURVE SMOOTH",
"56 328 OFFCURVE",
"67 282 OFFCURVE",
"128 251 CURVE SMOOTH",
"189 221 OFFCURVE",
"214 210 OFFCURVE",
"206 151 CURVE SMOOTH",
"203 130 OFFCURVE",
"200 116 OFFCURVE",
"197 110 CURVE SMOOTH",
"194 104 OFFCURVE",
"189 101 OFFCURVE",
"182 101 CURVE SMOOTH",
"176 101 OFFCURVE",
"172 104 OFFCURVE",
"170 111 CURVE SMOOTH",
"168 118 OFFCURVE",
"169 133 OFFCURVE",
"172 158 CURVE SMOOTH",
"177 198 LINE",
"33 198 LINE",
"31 181 LINE SMOOTH",
"13 58 OFFCURVE",
"56 20 OFFCURVE",
"165 20 CURVE SMOOTH"
);
},
{
closed = 1;
nodes = (
"233 390 LINE SMOOTH",
"236 411 OFFCURVE",
"239 428 OFFCURVE",
"240 439 CURVE SMOOTH",
"241 450 OFFCURVE",
"239 456 OFFCURVE",
"234 456 CURVE SMOOTH",
"230 456 OFFCURVE",
"227 452 OFFCURVE",
"225 444 CURVE SMOOTH",
"222 436 OFFCURVE",
"220 427 OFFCURVE",
"219 416 CURVE SMOOTH",
"216 393 OFFCURVE",
"220 380 OFFCURVE",
"231 371 CURVE"
);
}
);
userData = {
assembly = "PUSHW[ ]	/* 4 values pushed */\012113 6 70 4 \012CALL[ ]	/* CallFunction */\012PUSHW[ ]	/* 3 values pushed */\01260 70 113 \012SRP1[ ]	/* SetRefPoint1 */\012SRP2[ ]	/* SetRefPoint2 */\012IP[ ]	/* InterpolatePts */\012PUSHW[ ]	/* 3 values pushed */\01280 70 113 \012SRP1[ ]	/* SetRefPoint1 */\012SRP2[ ]	/* SetRefPoint2 */\012IP[ ]	/* InterpolatePts */\012PUSHW[ ]	/* 1 value pushed */\012113 \012SRP0[ ]	/* SetRefPoint0 */\012PUSHW[ ]	/* 1 value pushed */\012144 \012MDRP[11100]	/* MoveDirectRelPt */\012SVTCA[0]	/* SetFreedomAndProjectionVectorToAxis */\012PUSHW[ ]	/* 4 values pushed */\01221 2 10 4 \012CALL[ ]	/* CallFunction */\012PUSHW[ ]	/* 4 values pushed */\01237 3 45 4 \012CALL[ ]	/* CallFunction */\012IUP[0]	/* InterpolateUntPts */\012IUP[1]	/* InterpolateUntPts */";
};
width = 405;
}
);
leftKerningGroup = S;
note = S;
rightKerningGroup = S;
unicode = 0053;
},
{
color = 8;
glyphname = Scedilla;
lastChange = "2021-12-03 07:40:58 +0000";
layers = (
{
anchors = (
{
name = bottom;
position = "{169, -253}";
},
{
name = top;
position = "{261, 591}";
}
);
background = {
components = (
{
name = S;
},
{
name = cedillacomb;
transform = "{1, 0, 0, 1, -53, 0}";
}
);
};
layerId = "6544E2DB-1912-401E-9B5B-A29F161A5995";
paths = (
{
closed = 1;
nodes = (
"110 593 OFFCURVE",
"61 548 OFFCURVE",
"43 422 CURVE SMOOTH",
"31 332 OFFCURVE",
"44 279 OFFCURVE",
"114 246 CURVE SMOOTH",
"190 211 OFFCURVE",
"217 211 OFFCURVE",
"208 147 CURVE SMOOTH",
"201 101 OFFCURVE",
"195 92 OFFCURVE",
"180 92 CURVE SMOOTH",
"166 92 OFFCURVE",
"161 101 OFFCURVE",
"168 155 CURVE SMOOTH",
"175 206 LINE",
"8 206 LINE",
"3 169 LINE SMOOTH",
"-14 41 OFFCURVE",
"30 1 OFFCURVE",
"134 -7 CURVE",
"100 -58 LINE",
"137 -80 LINE",
"140 -78 OFFCURVE",
"145 -74 OFFCURVE",
"153 -74 CURVE SMOOTH",
"163 -74 OFFCURVE",
"170 -79 OFFCURVE",
"168 -91 CURVE SMOOTH",
"166 -106 OFFCURVE",
"155 -115 OFFCURVE",
"138 -115 CURVE SMOOTH",
"122 -115 OFFCURVE",
"106 -107 OFFCURVE",
"99 -100 CURVE",
"73 -147 LINE",
"81 -153 OFFCURVE",
"107 -168 OFFCURVE",
"137 -168 CURVE SMOOTH",
"202 -168 OFFCURVE",
"246 -134 OFFCURVE",
"252 -94 CURVE SMOOTH",
"256 -64 OFFCURVE",
"239 -33 OFFCURVE",
"197 -33 CURVE SMOOTH",
"186 -33 OFFCURVE",
"177 -35 OFFCURVE",
"170 -37 CURVE",
"191 -8 LINE",
"287 -3 OFFCURVE",
"362 43 OFFCURVE",
"380 171 CURVE SMOOTH",
"397 290 OFFCURVE",
"363 313 OFFCURVE",
"279 345 CURVE SMOOTH",
"225 366 OFFCURVE",
"202 377 OFFCURVE",
"209 427 CURVE SMOOTH",
"213 456 OFFCURVE",
"218 467 OFFCURVE",
"235 467 CURVE SMOOTH",
"256 467 OFFCURVE",
"254 453 OFFCURVE",
"246 399 CURVE SMOOTH",
"242 373 LINE",
"401 373 LINE",
"412 449 LINE SMOOTH",
"426 546 OFFCURVE",
"370 593 OFFCURVE",
"250 593 CURVE SMOOTH"
);
}
);
width = 405;
}
);
leftKerningGroup = S;
rightKerningGroup = S;
unicode = 015E;
},
{
glyphname = Germandbls;
lastChange = "2021-12-03 07:30:48 +0000";
layers = (
{
layerId = "6544E2DB-1912-401E-9B5B-A29F161A5995";
paths = (
{
closed = 1;
nodes = (
"28 1 OFFCURVE",
"12 1 OFFCURVE",
"204 0 CURVE",
"274 0 LINE SMOOTH",
"381 0 OFFCURVE",
"448 39 OFFCURVE",
"463 151 CURVE SMOOTH",
"474 228 LINE SMOOTH",
"482 285 OFFCURVE",
"471 325 OFFCURVE",
"441 347 CURVE",
"471 372 OFFCURVE",
"485 407 OFFCURVE",
"491 450 CURVE SMOOTH",
"500 513 LINE SMOOTH",
"511 592 OFFCURVE",
"442 642 OFFCURVE",
"329 642 CURVE SMOOTH",
"196 642 OFFCURVE",
"108 621 OFFCURVE",
"88 497 CURVE",
"69 361 LINE",
"18 1 LINE"
);
},
{
closed = 1;
nodes = (
"248 271 LINE",
"272 270 LINE",
"260 175 LINE",
"259 171 LINE SMOOTH",
"257 158 OFFCURVE",
"254 133 OFFCURVE",
"257 130 CURVE",
"228 130 LINE"
);
},
{
closed = 1;
nodes = (
"188 29 LINE",
"253 490 LINE SMOOTH",
"258 527 OFFCURVE",
"267 546 OFFCURVE",
"299 546 CURVE SMOOTH",
"338 546 OFFCURVE",
"335 520 OFFCURVE",
"329 476 CURVE SMOOTH",
"323 432 LINE SMOOTH",
"317 396 OFFCURVE",
"312 374 OFFCURVE",
"289 374 CURVE SMOOTH",
"265 374 LINE",
"255 300 LINE",
"285 298 LINE SMOOTH",
"288 298 OFFCURVE",
"290 297 OFFCURVE",
"292 295 CURVE SMOOTH",
"296 292 OFFCURVE",
"299 286 OFFCURVE",
"298 274 CURVE",
"286 175 LINE SMOOTH",
"282 152 OFFCURVE",
"277 102 OFFCURVE",
"254 102 CURVE SMOOTH",
"222 102 LINE",
"212 28 LINE",
"278 28 LINE SMOOTH",
"366 28 OFFCURVE",
"424 58 OFFCURVE",
"437 151 CURVE SMOOTH",
"448 228 LINE SMOOTH",
"459 305 OFFCURVE",
"421 341 OFFCURVE",
"365 341 CURVE",
"365 343 LINE",
"426 350 OFFCURVE",
"456 394 OFFCURVE",
"464 450 CURVE SMOOTH",
"473 513 LINE SMOOTH",
"482 576 OFFCURVE",
"422 614 OFFCURVE",
"325 614 CURVE SMOOTH",
"206 614 OFFCURVE",
"128 596 OFFCURVE",
"114 493 CURVE SMOOTH",
"111 470 LINE",
"100 389 LINE",
"49 29 LINE"
);
},
{
closed = 1;
nodes = (
"39 19 LINE",
"89 380 LINE",
"103 479 LINE",
"105 493 LINE SMOOTH",
"121 606 OFFCURVE",
"203 624 OFFCURVE",
"326 624 CURVE SMOOTH",
"430 624 OFFCURVE",
"491 581 OFFCURVE",
"482 513 CURVE SMOOTH",
"473 450 LINE SMOOTH",
"467 405 OFFCURVE",
"444 364 OFFCURVE",
"406 343 CURVE",
"444 328 OFFCURVE",
"466 292 OFFCURVE",
"457 228 CURVE SMOOTH",
"446 151 LINE SMOOTH",
"432 52 OFFCURVE",
"373 19 OFFCURVE",
"277 19 CURVE SMOOTH",
"202 19 LINE",
"215 111 LINE",
"256 111 LINE SMOOTH",
"269 111 OFFCURVE",
"273 150 OFFCURVE",
"276 171 CURVE SMOOTH",
"277 175 LINE",
"289 274 LINE SMOOTH",
"290 280 OFFCURVE",
"290 284 OFFCURVE",
"287 287 CURVE SMOOTH",
"286 288 OFFCURVE",
"285 289 OFFCURVE",
"284 289 CURVE SMOOTH",
"245 291 LINE",
"258 383 LINE",
"291 383 LINE SMOOTH",
"298 383 OFFCURVE",
"303 387 OFFCURVE",
"306 396 CURVE SMOOTH",
"309 405 OFFCURVE",
"311 417 OFFCURVE",
"314 432 CURVE SMOOTH",
"320 476 LINE SMOOTH",
"325 515 OFFCURVE",
"329 536 OFFCURVE",
"298 536 CURVE SMOOTH",
"273 536 OFFCURVE",
"266 521 OFFCURVE",
"262 490 CURVE SMOOTH",
"196 19 LINE"
);
},
{
closed = 1;
nodes = (
"279 490 LINE SMOOTH",
"281 509 OFFCURVE",
"287 518 OFFCURVE",
"296 518 CURVE SMOOTH",
"302 518 OFFCURVE",
"305 514 OFFCURVE",
"305 507 CURVE SMOOTH",
"305 500 OFFCURVE",
"303 489 OFFCURVE",
"302 476 CURVE SMOOTH",
"296 432 LINE SMOOTH",
"293 412 OFFCURVE",
"292 409 OFFCURVE",
"291 402 CURVE",
"266 402 LINE"
);
}
);
width = 507;
}
);
unicode = 1E9E;
},
{
glyphname = Schwa;
lastChange = "2021-12-03 07:30:48 +0000";
layers = (
{
layerId = "6544E2DB-1912-401E-9B5B-A29F161A5995";
paths = (
{
closed = 1;
nodes = (
"128 601 OFFCURVE",
"65 567 OFFCURVE",
"39 381 CURVE SMOOTH",
"8 161 LINE SMOOTH",
"-10 33 OFFCURVE",
"48 -9 OFFCURVE",
"162 -9 CURVE SMOOTH",
"276 -9 OFFCURVE",
"347 33 OFFCURVE",
"365 161 CURVE SMOOTH",
"396 381 LINE SMOOTH",
"422 567 OFFCURVE",
"372 601 OFFCURVE",
"248 601 CURVE SMOOTH"
);
},
{
closed = 1;
nodes = (
"355 583 OFFCURVE",
"401 549 OFFCURVE",
"378 381 CURVE SMOOTH",
"347 161 LINE SMOOTH",
"331 47 OFFCURVE",
"268 13 OFFCURVE",
"165 13 CURVE SMOOTH",
"62 13 OFFCURVE",
"9 47 OFFCURVE",
"25 161 CURVE SMOOTH",
"44 296 LINE",
"214 296 LINE",
"236 454 LINE SMOOTH",
"238 465 OFFCURVE",
"239 476 OFFCURVE",
"234 476 CURVE SMOOTH",
"229 476 OFFCURVE",
"227 465 OFFCURVE",
"225 454 CURVE SMOOTH",
"211 350 LINE",
"52 350 LINE",
"56 381 LINE SMOOTH",
"79 548 OFFCURVE",
"134 583 OFFCURVE",
"245 583 CURVE SMOOTH"
);
},
{
closed = 1;
nodes = (
"140 574 OFFCURVE",
"88 538 OFFCURVE",
"66 381 CURVE SMOOTH",
"63 359 LINE",
"204 359 LINE",
"217 454 LINE SMOOTH",
"219 469 OFFCURVE",
"222 485 OFFCURVE",
"235 485 CURVE SMOOTH",
"244 485 OFFCURVE",
"247 476 OFFCURVE",
"244 454 CURVE SMOOTH",
"221 287 LINE",
"52 287 LINE",
"34 161 LINE SMOOTH",
"19 55 OFFCURVE",
"69 23 OFFCURVE",
"167 23 CURVE SMOOTH",
"266 23 OFFCURVE",
"324 55 OFFCURVE",
"339 161 CURVE SMOOTH",
"370 381 LINE SMOOTH",
"392 538 OFFCURVE",
"349 574 OFFCURVE",
"244 574 CURVE SMOOTH"
);
},
{
closed = 1;
nodes = (
"199 128 LINE SMOOTH",
"196 113 OFFCURVE",
"189 108 OFFCURVE",
"180 108 CURVE SMOOTH",
"172 108 OFFCURVE",
"166 114 OFFCURVE",
"167 124 CURVE SMOOTH",
"180 216 LINE",
"211 216 LINE"
);
},
{
closed = 1;
nodes = (
"188 207 LINE",
"178 136 LINE SMOOTH",
"176 122 OFFCURVE",
"175 118 OFFCURVE",
"182 118 CURVE SMOOTH",
"188 118 OFFCURVE",
"189 122 OFFCURVE",
"191 136 CURVE SMOOTH",
"201 207 LINE"
);
}
);
width = 397;
}
);
rightKerningGroup = o;
unicode = 018F;
},
{
glyphname = T;
lastChange = "2021-12-03 08:13:32 +0000";
layers = (
{
anchors = (
{
name = bottom;
position = "{142, 0}";
},
{
name = center;
position = "{180, 296}";
},
{
name = top;
position = "{221, 591}";
}
);
layerId = "6544E2DB-1912-401E-9B5B-A29F161A5995";
paths = (
{
closed = 1;
nodes = (
"231 0 LINE",
"292 436 LINE",
"363 436 LINE",
"385 591 LINE",
"56 591 LINE",
"34 436 LINE",
"106 436 LINE",
"45 0 LINE"
);
},
{
closed = 1;
nodes = (
"125 454 LINE",
"53 454 LINE",
"70 573 LINE",
"366 573 LINE",
"349 454 LINE",
"277 454 LINE",
"216 18 LINE",
"64 18 LINE"
);
},
{
closed = 1;
nodes = (
"208 27 LINE",
"270 463 LINE",
"342 463 LINE",
"356 564 LINE",
"78 564 LINE",
"64 463 LINE",
"136 463 LINE",
"74 27 LINE"
);
}
);
userData = {
assembly = "SVTCA[0]	/* SetFreedomAndProjectionVectorToAxis */\012PUSHW[ ]	/* 1 value pushed */\0121 \012MDAP[1]	/* MoveDirectAbsPt */\012IUP[0]	/* InterpolateUntPts */\012IUP[1]	/* InterpolateUntPts */";
};
width = 345;
}
);
leftKerningGroup = T;
note = T;
rightKerningGroup = T;
unicode = 0054;
},
{
color = 8;
glyphname = Tbar;
lastChange = "2021-12-03 08:13:22 +0000";
layers = (
{
anchors = (
{
name = bottom;
position = "{138, 0}";
},
{
name = center;
position = "{192, 379}";
},
{
name = top;
position = "{221, 591}";
}
);
background = {
components = (
{
name = T;
},
{
name = hyphen;
transform = "{1.1366, 0, 0, 0.76327, 29, 160}";
}
);
};
layerId = "6544E2DB-1912-401E-9B5B-A29F161A5995";
paths = (
{
closed = 1;
nodes = (
"56 591 LINE",
"34 436 LINE",
"106 436 LINE",
"92 334 LINE",
"64 334 LINE",
"54 257 LINE",
"81 257 LINE",
"45 0 LINE",
"231 0 LINE",
"267 257 LINE",
"296 257 LINE",
"306 334 LINE",
"278 334 LINE",
"292 436 LINE",
"363 436 LINE",
"385 591 LINE"
);
}
);
width = 345;
}
);
leftKerningGroup = T;
rightKerningGroup = T;
unicode = 0166;
},
{
color = 8;
glyphname = Tcedilla;
lastChange = "2021-12-03 07:40:58 +0000";
layers = (
{
anchors = (
{
name = bottom;
position = "{139, -253}";
},
{
name = center;
position = "{192, 379}";
},
{
name = top;
position = "{221, 591}";
}
);
background = {
components = (
{
name = T;
},
{
name = cedillacomb;
transform = "{1, 0, 0, 1, -100, 0}";
}
);
};
layerId = "6544E2DB-1912-401E-9B5B-A29F161A5995";
paths = (
{
closed = 1;
nodes = (
"126 480 LINE",
"58 0 LINE",
"109 0 LINE",
"70 -58 LINE",
"107 -80 LINE",
"110 -78 OFFCURVE",
"115 -74 OFFCURVE",
"123 -74 CURVE SMOOTH",
"133 -74 OFFCURVE",
"140 -79 OFFCURVE",
"138 -91 CURVE SMOOTH",
"136 -106 OFFCURVE",
"125 -115 OFFCURVE",
"108 -115 CURVE SMOOTH",
"92 -115 OFFCURVE",
"76 -107 OFFCURVE",
"69 -100 CURVE",
"43 -147 LINE",
"51 -153 OFFCURVE",
"77 -168 OFFCURVE",
"107 -168 CURVE SMOOTH",
"172 -168 OFFCURVE",
"216 -134 OFFCURVE",
"222 -94 CURVE SMOOTH",
"226 -64 OFFCURVE",
"209 -33 OFFCURVE",
"167 -33 CURVE SMOOTH",
"156 -33 OFFCURVE",
"147 -35 OFFCURVE",
"140 -37 CURVE",
"166 0 LINE",
"217 0 LINE",
"285 480 LINE",
"370 480 LINE",
"386 591 LINE",
"57 591 LINE",
"41 480 LINE"
);
}
);
width = 346;
}
);
leftKerningGroup = T;
rightKerningGroup = T;
unicode = 0162;
},
{
glyphname = U;
lastChange = "2021-12-03 07:30:48 +0000";
layers = (
{
anchors = (
{
name = bottom;
position = "{167, 0}";
},
{
name = ogonek;
position = "{330, 10}";
},
{
name = top;
position = "{250, 591}";
},
{
name = topright;
position = "{431, 591}";
}
);
layerId = "6544E2DB-1912-401E-9B5B-A29F161A5995";
paths = (
{
closed = 1;
nodes = (
"284 -11 OFFCURVE",
"345 19 OFFCURVE",
"367 176 CURVE SMOOTH",
"426 592 LINE",
"74 592 LINE",
"15 176 LINE SMOOTH",
"-7 20 OFFCURVE",
"44 -11 OFFCURVE",
"165 -11 CURVE SMOOTH"
);
},
{
closed = 1;
nodes = (
"59 7 OFFCURVE",
"12 35 OFFCURVE",
"32 176 CURVE SMOOTH",
"88 574 LINE",
"241 574 LINE",
"179 132 LINE SMOOTH",
"178 125 OFFCURVE",
"178 120 OFFCURVE",
"179 118 CURVE SMOOTH",
"180 115 OFFCURVE",
"182 114 OFFCURVE",
"183 114 CURVE SMOOTH",
"185 114 OFFCURVE",
"187 115 OFFCURVE",
"188 118 CURVE SMOOTH",
"189 120 OFFCURVE",
"190 125 OFFCURVE",
"191 132 CURVE SMOOTH",
"253 574 LINE",
"406 574 LINE",
"350 176 LINE SMOOTH",
"330 35 OFFCURVE",
"277 7 OFFCURVE",
"167 7 CURVE SMOOTH"
);
},
{
closed = 1;
nodes = (
"273 16 OFFCURVE",
"322 42 OFFCURVE",
"342 176 CURVE SMOOTH",
"397 565 LINE",
"261 565 LINE",
"200 132 LINE SMOOTH",
"197 111 OFFCURVE",
"190 105 OFFCURVE",
"181 105 CURVE SMOOTH",
"177 105 OFFCURVE",
"174 107 OFFCURVE",
"172 111 CURVE SMOOTH",
"170 114 OFFCURVE",
"170 121 OFFCURVE",
"171 132 CURVE SMOOTH",
"232 565 LINE",
"96 565 LINE",
"41 176 LINE SMOOTH",
"21 42 OFFCURVE",
"67 16 OFFCURVE",
"169 16 CURVE SMOOTH"
);
}
);
width = 403;
}
);
leftKerningGroup = U;
leftMetricsKey = "=O+5";
note = U;
rightKerningGroup = U;
rightMetricsKey = "=O+5";
unicode = 0055;
},
{
color = 8;
glyphname = Uhorn;
lastChange = "2021-12-03 07:45:37 +0000";
layers = (
{
anchors = (
{
name = bottom;
position = "{166, 0}";
},
{
name = ogonek;
position = "{227, 0}";
},
{
name = top;
position = "{249, 591}";
},
{
name = topright;
position = "{488, 658}";
}
);
background = {
components = (
{
name = horncomb;
transform = "{1, 0, 0, 1, 290, 119}";
},
{
name = U;
}
);
};
layerId = "6544E2DB-1912-401E-9B5B-A29F161A5995";
paths = (
{
closed = 1;
nodes = (
"360 608 OFFCURVE",
"345 591 OFFCURVE",
"316 591 CURVE SMOOTH",
"266 591 LINE",
"199 115 LINE SMOOTH",
"196 92 OFFCURVE",
"188 85 OFFCURVE",
"178 85 CURVE SMOOTH",
"168 85 OFFCURVE",
"162 92 OFFCURVE",
"165 115 CURVE SMOOTH",
"232 591 LINE",
"73 591 LINE",
"13 163 LINE SMOOTH",
"-9 4 OFFCURVE",
"59 -12 OFFCURVE",
"165 -12 CURVE SMOOTH",
"271 -12 OFFCURVE",
"343 4 OFFCURVE",
"365 164 CURVE SMOOTH",
"420 555 LINE",
"445 573 OFFCURVE",
"460 600 OFFCURVE",
"465 638 CURVE SMOOTH",
"467 658 LINE",
"367 658 LINE",
"365 638 LINE SMOOTH"
);
}
);
width = 402;
}
);
leftKerningGroup = U;
rightKerningGroup = U;
unicode = 01AF;
},
{
color = 8;
glyphname = Uogonek;
lastChange = "2021-12-03 07:44:42 +0000";
layers = (
{
anchors = (
{
name = bottom;
position = "{166, 0}";
},
{
name = ogonek;
position = "{227, 0}";
},
{
name = top;
position = "{249, 591}";
},
{
name = topright;
position = "{295, 591}";
}
);
background = {
components = (
{
name = U;
},
{
name = ogonek;
transform = "{1, 0, 0, 1, -77, -9}";
}
);
};
layerId = "6544E2DB-1912-401E-9B5B-A29F161A5995";
paths = (
{
closed = 1;
nodes = (
"196 92 OFFCURVE",
"188 85 OFFCURVE",
"178 85 CURVE SMOOTH",
"168 85 OFFCURVE",
"162 92 OFFCURVE",
"165 115 CURVE SMOOTH",
"232 591 LINE",
"73 591 LINE",
"13 163 LINE SMOOTH",
"-6 25 OFFCURVE",
"42 -5 OFFCURVE",
"125 -11 CURVE",
"92 -27 OFFCURVE",
"71 -57 OFFCURVE",
"67 -83 CURVE SMOOTH",
"62 -117 OFFCURVE",
"92 -151 OFFCURVE",
"150 -151 CURVE SMOOTH",
"200 -151 OFFCURVE",
"222 -137 OFFCURVE",
"230 -133 CURVE",
"218 -96 LINE",
"215 -96 OFFCURVE",
"209 -99 OFFCURVE",
"200 -99 CURVE SMOOTH",
"184 -99 OFFCURVE",
"165 -85 OFFCURVE",
"168 -61 CURVE SMOOTH",
"170 -45 OFFCURVE",
"181 -24 OFFCURVE",
"202 -11 CURVE",
"288 -6 OFFCURVE",
"346 23 OFFCURVE",
"365 164 CURVE SMOOTH",
"425 591 LINE",
"266 591 LINE",
"199 115 LINE SMOOTH"
);
}
);
width = 402;
}
);
leftKerningGroup = U;
rightKerningGroup = U;
unicode = 0172;
},
{
glyphname = V;
lastChange = "2021-12-03 07:30:48 +0000";
layers = (
{
layerId = "6544E2DB-1912-401E-9B5B-A29F161A5995";
paths = (
{
closed = 1;
nodes = (
"301 0 LINE",
"468 591 LINE",
"276 591 LINE",
"247 473 LINE",
"255 591 LINE",
"56 591 LINE",
"56 0 LINE"
);
},
{
closed = 1;
nodes = (
"73 573 LINE",
"235 573 LINE",
"219 275 LINE",
"288 573 LINE",
"445 573 LINE",
"288 18 LINE",
"73 18 LINE"
);
},
{
closed = 1;
nodes = (
"281 27 LINE",
"434 564 LINE",
"295 564 LINE",
"207 192 LINE",
"203 170 LINE",
"205 192 LINE",
"226 564 LINE",
"83 564 LINE",
"82 27 LINE"
);
}
);
userData = {
assembly = "SVTCA[0]	/* SetFreedomAndProjectionVectorToAxis */\012PUSHW[ ]	/* 1 value pushed */\0122 \012MDAP[1]	/* MoveDirectAbsPt */\012IUP[0]	/* InterpolateUntPts */\012IUP[1]	/* InterpolateUntPts */";
};
width = 428;
}
);
leftKerningGroup = V;
note = V;
rightKerningGroup = V;
unicode = 0056;
},
{
glyphname = W;
lastChange = "2021-12-03 07:30:48 +0000";
layers = (
{
anchors = (
{
name = bottom;
position = "{288, 0}";
},
{
name = top;
position = "{371, 591}";
}
);
layerId = "6544E2DB-1912-401E-9B5B-A29F161A5995";
paths = (
{
closed = 1;
nodes = (
"276 0 LINE",
"297 76 LINE",
"299 0 LINE",
"516 0 LINE",
"686 591 LINE",
"479 591 LINE",
"475 575 OFFCURVE",
"470 556 OFFCURVE",
"465 535 CURVE SMOOTH",
"450 476 LINE",
"456 591 LINE",
"284 591 LINE",
"258 483 LINE",
"263 591 LINE",
"56 591 LINE",
"59 0 LINE"
);
},
{
closed = 1;
nodes = (
"74 573 LINE",
"243 573 LINE",
"233 304 LINE",
"267 440 LINE SMOOTH",
"278 485 OFFCURVE",
"289 529 OFFCURVE",
"299 573 CURVE",
"436 573 LINE",
"425 304 LINE",
"436 349 OFFCURVE",
"448 395 OFFCURVE",
"459 440 CURVE SMOOTH",
"492 573 LINE",
"662 573 LINE",
"503 18 LINE",
"317 18 LINE",
"315 198 LINE",
"289 107 LINE SMOOTH",
"280 77 OFFCURVE",
"271 47 OFFCURVE",
"263 18 CURVE",
"77 18 LINE"
);
},
{
closed = 1;
nodes = (
"256 27 LINE",
"323 261 LINE",
"326 27 LINE",
"495 27 LINE",
"650 564 LINE",
"499 564 LINE",
"412 209 LINE",
"427 564 LINE",
"306 564 LINE",
"221 209 LINE",
"234 564 LINE",
"83 564 LINE",
"86 27 LINE"
);
}
);
userData = {
assembly = "SVTCA[0]	/* SetFreedomAndProjectionVectorToAxis */\012PUSHW[ ]	/* 1 value pushed */\0123 \012MDAP[1]	/* MoveDirectAbsPt */\012PUSHW[ ]	/* 1 value pushed */\0126 \012MDAP[1]	/* MoveDirectAbsPt */\012IUP[0]	/* InterpolateUntPts */\012IUP[1]	/* InterpolateUntPts */";
};
width = 646;
}
);
leftKerningGroup = W;
note = W;
rightKerningGroup = W;
unicode = 0057;
},
{
glyphname = X;
lastChange = "2021-12-03 07:30:48 +0000";
layers = (
{
layerId = "6544E2DB-1912-401E-9B5B-A29F161A5995";
paths = (
{
closed = 1;
nodes = (
"172 0 LINE",
"173.333 5.333 OFFCURVE",
"175 10.667 OFFCURVE",
"177 16 CURVE SMOOTH",
"179 21.333 OFFCURVE",
"180.667 27 OFFCURVE",
"182 33 CURVE",
"184 0 LINE",
"376 0 LINE",
"347 305 LINE",
"462 591 LINE",
"259 591 LINE",
"253 575 LINE SMOOTH",
"251 569.667 OFFCURVE",
"249.333 564 OFFCURVE",
"248 558 CURVE",
"246 591 LINE",
"53 591 LINE",
"70.5 448.5 LINE SMOOTH",
"75.472 407.07 OFFCURVE",
"84.601 341.189 OFFCURVE",
"89 306 CURVE",
"-31 0 LINE"
);
},
{
closed = 1;
nodes = (
"107 306 LINE",
"73 573 LINE",
"230 573 LINE",
"238 471 LINE",
"248.667 505.667 OFFCURVE",
"259.667 539.667 OFFCURVE",
"271 573 CURVE",
"436 573 LINE",
"331 306 LINE",
"357 18 LINE",
"200 18 LINE",
"192 120 LINE",
"160 18 LINE",
"-6 18 LINE"
);
},
{
closed = 1;
nodes = (
"153 27 LINE",
"198 167 LINE",
"208 27 LINE",
"346 27 LINE",
"321 306 LINE",
"424 564 LINE",
"277 564 LINE",
"232 423 LINE",
"222 564 LINE",
"84 564 LINE",
"116 306 LINE",
"6 27 LINE"
);
}
);
userData = {
assembly = "SVTCA[0]	/* SetFreedomAndProjectionVectorToAxis */\012PUSHW[ ]	/* 1 value pushed */\0121 \012MDAP[1]	/* MoveDirectAbsPt */\012PUSHW[ ]	/* 1 value pushed */\01210 \012MDAP[1]	/* MoveDirectAbsPt */\012PUSHW[ ]	/* 1 value pushed */\01227 \012MDAP[1]	/* MoveDirectAbsPt */\012PUSHW[ ]	/* 1 value pushed */\0124 \012MDAP[1]	/* MoveDirectAbsPt */\012PUSHW[ ]	/* 1 value pushed */\0127 \012MDAP[1]	/* MoveDirectAbsPt */\012PUSHW[ ]	/* 1 value pushed */\01239 \012MDAP[1]	/* MoveDirectAbsPt */\012PUSHW[ ]	/* 3 values pushed */\0120 1 4 \012SRP1[ ]	/* SetRefPoint1 */\012SRP2[ ]	/* SetRefPoint2 */\012IP[ ]	/* InterpolatePts */\012PUSHW[ ]	/* 3 values pushed */\0126 1 4 \012SRP1[ ]	/* SetRefPoint1 */\012SRP2[ ]	/* SetRefPoint2 */\012IP[ ]	/* InterpolatePts */\012PUSHW[ ]	/* 3 values pushed */\01218 1 4 \012SRP1[ ]	/* SetRefPoint1 */\012SRP2[ ]	/* SetRefPoint2 */\012IP[ ]	/* InterpolatePts */\012PUSHW[ ]	/* 3 values pushed */\01226 1 4 \012SRP1[ ]	/* SetRefPoint1 */\012SRP2[ ]	/* SetRefPoint2 */\012IP[ ]	/* InterpolatePts */\012IUP[0]	/* InterpolateUntPts */\012IUP[1]	/* InterpolateUntPts */";
};
width = 418;
}
);
leftKerningGroup = X;
note = X;
rightKerningGroup = X;
unicode = 0058;
},
{
glyphname = Y;
lastChange = "2021-12-03 07:30:48 +0000";
layers = (
{
anchors = (
{
name = bottom;
position = "{172, 0}";
},
{
name = top;
position = "{260, 591}";
},
{
name = topleft;
position = "{68, 591}";
}
);
layerId = "6544E2DB-1912-401E-9B5B-A29F161A5995";
paths = (
{
closed = 1;
nodes = (
"265 0 LINE",
"298 236 LINE",
"457 591 LINE",
"276 591 LINE",
"251 527 LINE",
"244 591 LINE",
"52 591 LINE",
"110 244 LINE",
"76 0 LINE"
);
},
{
closed = 1;
nodes = (
"127 247 LINE",
"73 573 LINE",
"228 573 LINE",
"241 456 LINE",
"286 573 LINE",
"430 573 LINE",
"281 239 LINE",
"250 18 LINE",
"95 18 LINE"
);
},
{
closed = 1;
nodes = (
"242 27 LINE",
"272 241 LINE",
"417 564 LINE",
"292 564 LINE",
"248 451 LINE",
"233 404 LINE",
"232 451 LINE",
"220 564 LINE",
"85 564 LINE",
"137 250 LINE",
"105 27 LINE"
);
}
);
userData = {
assembly = "SVTCA[0]	/* SetFreedomAndProjectionVectorToAxis */\012PUSHW[ ]	/* 1 value pushed */\0122 \012MDAP[1]	/* MoveDirectAbsPt */\012IUP[0]	/* InterpolateUntPts */\012IUP[1]	/* InterpolateUntPts */";
};
width = 413;
}
);
leftKerningGroup = Y;
note = Y;
rightKerningGroup = Y;
unicode = 0059;
},
{
glyphname = Z;
lastChange = "2021-12-03 07:30:48 +0000";
layers = (
{
anchors = (
{
name = bottom;
position = "{110, 0}";
},
{
name = center;
position = "{161, 296}";
},
{
name = top;
position = "{196, 591}";
}
);
layerId = "6544E2DB-1912-401E-9B5B-A29F161A5995";
paths = (
{
closed = 1;
nodes = (
"257 0 LINE",
"278 155 LINE",
"191 155 LINE",
"326 492 LINE",
"340 591 LINE",
"61 591 LINE",
"39 436 LINE",
"111 436 LINE",
"-15 120 LINE",
"-31 0 LINE"
);
},
{
closed = 1;
nodes = (
"2 119 LINE",
"135 454 LINE",
"57 454 LINE",
"74 573 LINE",
"321 573 LINE",
"310 493 LINE",
"167 137 LINE",
"260 137 LINE",
"243 18 LINE",
"-12 18 LINE"
);
},
{
closed = 1;
nodes = (
"235 27 LINE",
"249 128 LINE",
"154 128 LINE",
"301 496 LINE",
"311 564 LINE",
"81 564 LINE",
"67 463 LINE",
"148 463 LINE",
"10 116 LINE",
"-3 27 LINE"
);
}
);
userData = {
assembly = "PUSHW[ ]	/* 4 values pushed */\0129 5 20 4 \012CALL[ ]	/* CallFunction */\012PUSHW[ ]	/* 3 values pushed */\0122 20 9 \012SRP1[ ]	/* SetRefPoint1 */\012SRP2[ ]	/* SetRefPoint2 */\012IP[ ]	/* InterpolatePts */\012PUSHW[ ]	/* 3 values pushed */\0127 20 9 \012SRP1[ ]	/* SetRefPoint1 */\012SRP2[ ]	/* SetRefPoint2 */\012IP[ ]	/* InterpolatePts */\012PUSHW[ ]	/* 3 values pushed */\01212 20 9 \012SRP1[ ]	/* SetRefPoint1 */\012SRP2[ ]	/* SetRefPoint2 */\012IP[ ]	/* InterpolatePts */\012PUSHW[ ]	/* 3 values pushed */\01217 20 9 \012SRP1[ ]	/* SetRefPoint1 */\012SRP2[ ]	/* SetRefPoint2 */\012IP[ ]	/* InterpolatePts */\012PUSHW[ ]	/* 1 value pushed */\0129 \012SRP0[ ]	/* SetRefPoint0 */\012PUSHW[ ]	/* 2 values pushed */\01219 5 \012MIRP[10100]	/* MoveIndirectRelPt */\012PUSHW[ ]	/* 1 value pushed */\01221 \012MDRP[10000]	/* MoveDirectRelPt */\012PUSHW[ ]	/* 1 value pushed */\01221 \012MDAP[1]	/* MoveDirectAbsPt */\012PUSHW[ ]	/* 3 values pushed */\01222 20 9 \012SRP1[ ]	/* SetRefPoint1 */\012SRP2[ ]	/* SetRefPoint2 */\012IP[ ]	/* InterpolatePts */\012PUSHW[ ]	/* 3 values pushed */\01227 20 9 \012SRP1[ ]	/* SetRefPoint1 */\012SRP2[ ]	/* SetRefPoint2 */\012IP[ ]	/* InterpolatePts */\012SVTCA[0]	/* SetFreedomAndProjectionVectorToAxis */\012PUSHW[ ]	/* 4 values pushed */\0127 3 9 4 \012CALL[ ]	/* CallFunction */\012IUP[0]	/* InterpolateUntPts */\012IUP[1]	/* InterpolateUntPts */";
};
width = 308;
}
);
leftKerningGroup = Z;
note = Z;
rightKerningGroup = Z;
unicode = 005A;
},
{
glyphname = A.tabular;
lastChange = "2021-12-03 07:30:48 +0000";
layers = (
{
anchors = (
{
name = bottom;
position = "{177, 0}";
},
{
name = ogonek;
position = "{354, 0}";
},
{
name = top;
position = "{247, 495}";
}
);
layerId = "6544E2DB-1912-401E-9B5B-A29F161A5995";
paths = (
{
closed = 1;
nodes = (
"354 0 LINE",
"356 496 LINE",
"144 496 LINE",
"6 0 LINE"
);
},
{
closed = 1;
nodes = (
"204 158 LINE",
"209 228 LINE",
"195 158 LINE"
);
},
{
closed = 1;
nodes = (
"157 478 LINE",
"339 478 LINE",
"336 18 LINE",
"190 18 LINE",
"194 82 LINE",
"184 82 LINE",
"171 18 LINE",
"28 18 LINE"
);
},
{
closed = 1;
nodes = (
"163 27 LINE",
"177 91 LINE",
"203 91 LINE",
"199 27 LINE",
"327 27 LINE",
"330 469 LINE",
"162 469 LINE",
"39 27 LINE"
);
},
{
closed = 1;
nodes = (
"230 376 LINE",
"211 149 LINE",
"185 149 LINE"
);
}
);
userData = {
assembly = "PUSHW[ ]	/* 4 values pushed */\01226 6 24 4 \012CALL[ ]	/* CallFunction */\012PUSHW[ ]	/* 1 value pushed */\01226 \012SRP0[ ]	/* SetRefPoint0 */\012PUSHW[ ]	/* 1 value pushed */\0120 \012MDRP[10000]	/* MoveDirectRelPt */\012PUSHW[ ]	/* 1 value pushed */\0120 \012MDAP[1]	/* MoveDirectAbsPt */\012PUSHW[ ]	/* 1 value pushed */\01224 \012SRP0[ ]	/* SetRefPoint0 */\012PUSHW[ ]	/* 2 values pushed */\0121 6 \012MIRP[10100]	/* MoveIndirectRelPt */\012PUSHW[ ]	/* 1 value pushed */\01224 \012SRP0[ ]	/* SetRefPoint0 */\012PUSHW[ ]	/* 1 value pushed */\0122 \012MDRP[10000]	/* MoveDirectRelPt */\012PUSHW[ ]	/* 1 value pushed */\0122 \012MDAP[1]	/* MoveDirectAbsPt */\012PUSHW[ ]	/* 1 value pushed */\01226 \012SRP0[ ]	/* SetRefPoint0 */\012PUSHW[ ]	/* 2 values pushed */\01211 6 \012MIRP[10100]	/* MoveIndirectRelPt */\012PUSHW[ ]	/* 1 value pushed */\0123 \012MDRP[10000]	/* MoveDirectRelPt */\012PUSHW[ ]	/* 1 value pushed */\0123 \012MDAP[1]	/* MoveDirectAbsPt */\012PUSHW[ ]	/* 1 value pushed */\01211 \012SRP0[ ]	/* SetRefPoint0 */\012PUSHW[ ]	/* 1 value pushed */\0129 \012MDRP[10000]	/* MoveDirectRelPt */\012PUSHW[ ]	/* 1 value pushed */\0129 \012MDAP[1]	/* MoveDirectAbsPt */\012PUSHW[ ]	/* 3 values pushed */\01210 24 26 \012SRP1[ ]	/* SetRefPoint1 */\012SRP2[ ]	/* SetRefPoint2 */\012IP[ ]	/* InterpolatePts */\012PUSHW[ ]	/* 1 value pushed */\01211 \012SRP0[ ]	/* SetRefPoint0 */\012PUSHW[ ]	/* 1 value pushed */\01216 \012MDRP[10000]	/* MoveDirectRelPt */\012PUSHW[ ]	/* 1 value pushed */\01216 \012MDAP[1]	/* MoveDirectAbsPt */\012PUSHW[ ]	/* 1 value pushed */\01224 \012SRP0[ ]	/* SetRefPoint0 */\012PUSHW[ ]	/* 1 value pushed */\01217 \012MDRP[10000]	/* MoveDirectRelPt */\012PUSHW[ ]	/* 1 value pushed */\01217 \012MDAP[1]	/* MoveDirectAbsPt */\012PUSHW[ ]	/* 1 value pushed */\01224 \012SRP0[ ]	/* SetRefPoint0 */\012PUSHW[ ]	/* 2 values pushed */\01229 5 \012MIRP[10100]	/* MoveIndirectRelPt */\012SVTCA[0]	/* SetFreedomAndProjectionVectorToAxis */\012PUSHW[ ]	/* 1 value pushed */\0120 \012RCVT[ ]	/* ReadCVT */\012IF[ ]	/* If */\012PUSHW[ ]	/* 1 value pushed */\01228 \012MDAP[1]	/* MoveDirectAbsPt */\012ELSE[ ]	/* Else */\012PUSHW[ ]	/* 2 values pushed */\01228 11 \012MIAP[0]	/* MoveIndirectAbsPt */\012EIF[ ]	/* EndIf */\012PUSHW[ ]	/* 1 value pushed */\0120 \012RCVT[ ]	/* ReadCVT */\012IF[ ]	/* If */\012PUSHW[ ]	/* 1 value pushed */\01229 \012MDAP[1]	/* MoveDirectAbsPt */\012ELSE[ ]	/* Else */\012PUSHW[ ]	/* 2 values pushed */\01229 7 \012MIAP[0]	/* MoveIndirectAbsPt */\012EIF[ ]	/* EndIf */\012PUSHW[ ]	/* 3 values pushed */\0126 29 28 \012SRP1[ ]	/* SetRefPoint1 */\012SRP2[ ]	/* SetRefPoint2 */\012IP[ ]	/* InterpolatePts */\012PUSHW[ ]	/* 3 values pushed */\01210 29 28 \012SRP1[ ]	/* SetRefPoint1 */\012SRP2[ ]	/* SetRefPoint2 */\012IP[ ]	/* InterpolatePts */\012PUSHW[ ]	/* 3 values pushed */\01211 29 28 \012SRP1[ ]	/* SetRefPoint1 */\012SRP2[ ]	/* SetRefPoint2 */\012IP[ ]	/* InterpolatePts */\012PUSHW[ ]	/* 3 values pushed */\01219 29 28 \012SRP1[ ]	/* SetRefPoint1 */\012SRP2[ ]	/* SetRefPoint2 */\012IP[ ]	/* InterpolatePts */\012IUP[0]	/* InterpolateUntPts */\012IUP[1]	/* InterpolateUntPts */";
};
width = 450;
}
);
note = A.tabular;
},
{
glyphname = AE.tabular;
lastChange = "2021-12-03 07:30:48 +0000";
layers = (
{
layerId = "6544E2DB-1912-401E-9B5B-A29F161A5995";
paths = (
{
closed = 1;
nodes = (
"599 0 LINE",
"617 135 LINE",
"523 135 LINE",
"523.667 145 OFFCURVE",
"523.833 153.167 OFFCURVE",
"523.5 159.5 CURVE SMOOTH",
"523 180 LINE",
"617 180 LINE",
"637 327 LINE",
"524 327 LINE",
"524.667 334.333 OFFCURVE",
"524.833 340.5 OFFCURVE",
"524.5 345.5 CURVE SMOOTH",
"524 360 LINE",
"649 360 LINE",
"668 496 LINE",
"305 496 LINE",
"166 0 LINE"
);
},
{
closed = 1;
nodes = (
"369 158 LINE",
"374 230 LINE",
"360 158 LINE"
);
},
{
closed = 1;
nodes = (
"391 357 LINE",
"394 376 LINE",
"393 357 LINE",
"375 149 LINE",
"349 149 LINE"
);
},
{
closed = 1;
nodes = (
"318 478 LINE",
"649 478 LINE",
"634 377 LINE",
"505 377 LINE",
"505 365.667 OFFCURVE",
"505.333 354.667 OFFCURVE",
"506 344 CURVE SMOOTH",
"506.667 333.333 OFFCURVE",
"506.667 322 OFFCURVE",
"506 310 CURVE",
"618 310 LINE",
"602 198 LINE",
"505 198 LINE",
"505 184 OFFCURVE",
"505.167 170.5 OFFCURVE",
"505.5 157.5 CURVE SMOOTH",
"506 117 LINE",
"598 117 LINE",
"584 18 LINE",
"356 18 LINE",
"358 82 LINE",
"348 82 LINE",
"346 72 OFFCURVE",
"343.667 61.167 OFFCURVE",
"341 49.5 CURVE SMOOTH",
"334 18 LINE",
"188 18 LINE"
);
},
{
closed = 1;
nodes = (
"327 27 LINE",
"340 91 LINE",
"367 91 LINE",
"364 27 LINE",
"576 27 LINE",
"588 108 LINE",
"497 108 LINE",
"497 207 LINE",
"595 207 LINE",
"608 301 LINE",
"497 301 LINE",
"497 386 LINE",
"627 386 LINE",
"638 469 LINE",
"324 469 LINE",
"199 27 LINE"
);
}
);
userData = {
assembly = "SVTCA[0]	/* SetFreedomAndProjectionVectorToAxis */\012PUSHW[ ]	/* 1 value pushed */\0120 \012RCVT[ ]	/* ReadCVT */\012IF[ ]	/* If */\012PUSHW[ ]	/* 1 value pushed */\01246 \012MDAP[1]	/* MoveDirectAbsPt */\012ELSE[ ]	/* Else */\012PUSHW[ ]	/* 2 values pushed */\01246 11 \012MIAP[0]	/* MoveIndirectAbsPt */\012EIF[ ]	/* EndIf */\012PUSHW[ ]	/* 1 value pushed */\0120 \012RCVT[ ]	/* ReadCVT */\012IF[ ]	/* If */\012PUSHW[ ]	/* 1 value pushed */\01260 \012MDAP[1]	/* MoveDirectAbsPt */\012ELSE[ ]	/* Else */\012PUSHW[ ]	/* 2 values pushed */\01260 7 \012MIAP[0]	/* MoveIndirectAbsPt */\012EIF[ ]	/* EndIf */\012PUSHW[ ]	/* 4 values pushed */\01258 4 14 4 \012CALL[ ]	/* CallFunction */\012PUSHW[ ]	/* 4 values pushed */\01231 2 26 4 \012CALL[ ]	/* CallFunction */\012PUSHW[ ]	/* 4 values pushed */\0129 4 54 4 \012CALL[ ]	/* CallFunction */\012PUSHW[ ]	/* 4 values pushed */\01237 2 32 4 \012CALL[ ]	/* CallFunction */\012PUSHW[ ]	/* 1 value pushed */\01214 \012SRP0[ ]	/* SetRefPoint0 */\012PUSHW[ ]	/* 1 value pushed */\0122 \012MDRP[10000]	/* MoveDirectRelPt */\012PUSHW[ ]	/* 1 value pushed */\01260 \012SRP0[ ]	/* SetRefPoint0 */\012PUSHW[ ]	/* 2 values pushed */\01212 4 \012MIRP[10100]	/* MoveIndirectRelPt */\012PUSHW[ ]	/* 3 values pushed */\0123 60 12 \012SRP1[ ]	/* SetRefPoint1 */\012SRP2[ ]	/* SetRefPoint2 */\012IP[ ]	/* InterpolatePts */\012PUSHW[ ]	/* 1 value pushed */\01246 \012SRP0[ ]	/* SetRefPoint0 */\012PUSHW[ ]	/* 2 values pushed */\0126 4 \012MIRP[10100]	/* MoveIndirectRelPt */\012PUSHW[ ]	/* 2 values pushed */\0125 2 \012MIRP[10100]	/* MoveIndirectRelPt */\012PUSHW[ ]	/* 1 value pushed */\0129 \012SRP0[ ]	/* SetRefPoint0 */\012PUSHW[ ]	/* 2 values pushed */\01210 1 \012MIRP[10100]	/* MoveIndirectRelPt */\012PUSHW[ ]	/* 1 value pushed */\0125 \012SRP0[ ]	/* SetRefPoint0 */\012PUSHW[ ]	/* 2 values pushed */\01248 4 \012MIRP[10100]	/* MoveIndirectRelPt */\012PUSHW[ ]	/* 3 values pushed */\01219 5 48 \012SRP1[ ]	/* SetRefPoint1 */\012SRP2[ ]	/* SetRefPoint2 */\012IP[ ]	/* InterpolatePts */\012PUSHW[ ]	/* 3 values pushed */\01223 54 9 \012SRP1[ ]	/* SetRefPoint1 */\012SRP2[ ]	/* SetRefPoint2 */\012IP[ ]	/* InterpolatePts */\012PUSHW[ ]	/* 3 values pushed */\01240 60 12 \012SRP1[ ]	/* SetRefPoint1 */\012SRP2[ ]	/* SetRefPoint2 */\012IP[ ]	/* InterpolatePts */\012PUSHW[ ]	/* 1 value pushed */\01210 \012SRP0[ ]	/* SetRefPoint0 */\012PUSHW[ ]	/* 2 values pushed */\01253 4 \012MIRP[10100]	/* MoveIndirectRelPt */\012IUP[0]	/* InterpolateUntPts */\012IUP[1]	/* InterpolateUntPts */";
};
width = 858;
}
);
note = AE.tabular;
},
{
glyphname = B.tabular;
lastChange = "2021-12-03 07:30:48 +0000";
layers = (
{
layerId = "6544E2DB-1912-401E-9B5B-A29F161A5995";
paths = (
{
closed = 1;
nodes = (
"204 0 LINE SMOOTH",
"285.333 0 OFFCURVE",
"338 29.333 OFFCURVE",
"350 120 CURVE SMOOTH",
"359 178 LINE SMOOTH",
"364.333 218 OFFCURVE",
"354.333 250.333 OFFCURVE",
"337 269 CURVE",
"355.667 287.667 OFFCURVE",
"368 316.667 OFFCURVE",
"372 346 CURVE SMOOTH",
"379 394 LINE SMOOTH",
"387 452.667 OFFCURVE",
"358.667 496 OFFCURVE",
"280 496 CURVE SMOOTH",
"91 496 LINE",
"22 0 LINE"
);
},
{
closed = 1;
nodes = (
"193 213 LINE",
"204 213 LINE SMOOTH",
"210 213 OFFCURVE",
"212.833 207 OFFCURVE",
"212.5 195 CURVE SMOOTH",
"212.167 183 OFFCURVE",
"210.667 168.333 OFFCURVE",
"208 151 CURVE SMOOTH",
"205.333 133 OFFCURVE",
"202.5 117.833 OFFCURVE",
"199.5 105.5 CURVE SMOOTH",
"196.5 93.167 OFFCURVE",
"192.333 87 OFFCURVE",
"187 87 CURVE SMOOTH",
"176 87 LINE"
);
},
{
closed = 1;
nodes = (
"188 96 LINE SMOOTH",
"189.333 96 OFFCURVE",
"191 101.333 OFFCURVE",
"193 112 CURVE SMOOTH",
"195 122.667 OFFCURVE",
"197.333 135.667 OFFCURVE",
"200 151 CURVE SMOOTH",
"204.5 188.5 LINE SMOOTH",
"205.5 198.833 OFFCURVE",
"205 204 OFFCURVE",
"203 204 CURVE SMOOTH",
"200 204 LINE",
"185 96 LINE"
);
},
{
closed = 1;
nodes = (
"106 478 LINE",
"278 478 LINE SMOOTH",
"346 478 OFFCURVE",
"368.667 443.333 OFFCURVE",
"362 394 CURVE SMOOTH",
"355 346 LINE SMOOTH",
"349.667 311.333 OFFCURVE",
"335 282 OFFCURVE",
"307 266 CURVE",
"333.667 254 OFFCURVE",
"348.667 226 OFFCURVE",
"342 178 CURVE SMOOTH",
"333 120 LINE SMOOTH",
"322.333 41.333 OFFCURVE",
"275.333 18 OFFCURVE",
"206 18 CURVE SMOOTH",
"41 18 LINE"
);
},
{
closed = 1;
nodes = (
"207 27 LINE SMOOTH",
"272.333 27 OFFCURVE",
"314.333 48 OFFCURVE",
"325 120 CURVE SMOOTH",
"334 178 LINE SMOOTH",
"342 236.667 OFFCURVE",
"313 263 OFFCURVE",
"273 263 CURVE",
"274 265 LINE",
"318 270.333 OFFCURVE",
"340.333 303.333 OFFCURVE",
"347 346 CURVE SMOOTH",
"354 394 LINE SMOOTH",
"360.667 438 OFFCURVE",
"338.667 469 OFFCURVE",
"276 469 CURVE SMOOTH",
"112 469 LINE",
"50 27 LINE"
);
},
{
closed = 1;
nodes = (
"221 407 LINE",
"232 407 LINE SMOOTH",
"238 407 OFFCURVE",
"240.667 401.167 OFFCURVE",
"240 389.5 CURVE SMOOTH",
"239.333 377.833 OFFCURVE",
"237.667 363.667 OFFCURVE",
"235 347 CURVE SMOOTH",
"233 330.333 OFFCURVE",
"230 316.167 OFFCURVE",
"226 304.5 CURVE SMOOTH",
"222 292.833 OFFCURVE",
"217.667 287 OFFCURVE",
"213 287 CURVE SMOOTH",
"204 287 LINE"
);
},
{
closed = 1;
nodes = (
"214 296 LINE SMOOTH",
"216 296 OFFCURVE",
"218.167 301 OFFCURVE",
"220.5 311 CURVE SMOOTH",
"222.833 321 OFFCURVE",
"225 333 OFFCURVE",
"227 347 CURVE SMOOTH",
"231.5 383 LINE SMOOTH",
"232.5 393 OFFCURVE",
"232 398 OFFCURVE",
"230 398 CURVE SMOOTH",
"227 398 LINE",
"213 296 LINE"
);
}
);
userData = {
assembly = "SVTCA[0]	/* SetFreedomAndProjectionVectorToAxis */\012PUSHW[ ]	/* 1 value pushed */\0120 \012RCVT[ ]	/* ReadCVT */\012IF[ ]	/* If */\012PUSHW[ ]	/* 1 value pushed */\01271 \012MDAP[1]	/* MoveDirectAbsPt */\012ELSE[ ]	/* Else */\012PUSHW[ ]	/* 2 values pushed */\01271 11 \012MIAP[0]	/* MoveIndirectAbsPt */\012EIF[ ]	/* EndIf */\012PUSHW[ ]	/* 1 value pushed */\0120 \012RCVT[ ]	/* ReadCVT */\012IF[ ]	/* If */\012PUSHW[ ]	/* 1 value pushed */\01286 \012MDAP[1]	/* MoveDirectAbsPt */\012ELSE[ ]	/* Else */\012PUSHW[ ]	/* 2 values pushed */\01286 7 \012MIAP[0]	/* MoveIndirectAbsPt */\012EIF[ ]	/* EndIf */\012PUSHW[ ]	/* 3 values pushed */\0129 86 71 \012SRP1[ ]	/* SetRefPoint1 */\012SRP2[ ]	/* SetRefPoint2 */\012IP[ ]	/* InterpolatePts */\012PUSHW[ ]	/* 3 values pushed */\01244 86 71 \012SRP1[ ]	/* SetRefPoint1 */\012SRP2[ ]	/* SetRefPoint2 */\012IP[ ]	/* InterpolatePts */\012PUSHW[ ]	/* 3 values pushed */\01253 86 71 \012SRP1[ ]	/* SetRefPoint1 */\012SRP2[ ]	/* SetRefPoint2 */\012IP[ ]	/* InterpolatePts */\012PUSHW[ ]	/* 3 values pushed */\01262 86 71 \012SRP1[ ]	/* SetRefPoint1 */\012SRP2[ ]	/* SetRefPoint2 */\012IP[ ]	/* InterpolatePts */\012IUP[0]	/* InterpolateUntPts */\012IUP[1]	/* InterpolateUntPts */";
};
width = 445;
}
);
note = B.tabular;
},
{
glyphname = C.tabular;
lastChange = "2021-12-03 07:33:29 +0000";
layers = (
{
anchors = (
{
name = bottom;
position = "{187, 0}";
},
{
name = top;
position = "{248, 495}";
}
);
layerId = "6544E2DB-1912-401E-9B5B-A29F161A5995";
paths = (
{
closed = 1;
nodes = (
"280.611 -9 OFFCURVE",
"330 25 OFFCURVE",
"348 158 CURVE SMOOTH",
"359 240 LINE",
"225 240 LINE",
"226 246 LINE",
"360 246 LINE",
"378 377 LINE SMOOTH",
"391 470 OFFCURVE",
"341 505 OFFCURVE",
"249 505 CURVE SMOOTH",
"157 505 OFFCURVE",
"91 472 OFFCURVE",
"78 377 CURVE SMOOTH",
"48 157 LINE SMOOTH",
"30 25 OFFCURVE",
"74.021 -9 OFFCURVE",
"177 -9 CURVE SMOOTH"
);
},
{
closed = 1;
nodes = (
"87.317 9 OFFCURVE",
"49 41 OFFCURVE",
"65 157 CURVE SMOOTH",
"95 377 LINE SMOOTH",
"106 458 OFFCURVE",
"164.333 487 OFFCURVE",
"247 487 CURVE SMOOTH",
"328.333 487 OFFCURVE",
"373 458 OFFCURVE",
"362 377 CURVE SMOOTH",
"347 264 LINE",
"218 264 LINE",
"234 382 LINE SMOOTH",
"235 392 OFFCURVE",
"236 397 OFFCURVE",
"234 397 CURVE SMOOTH",
"232.667 397 OFFCURVE",
"230 392 OFFCURVE",
"229 382 CURVE SMOOTH",
"191 109 LINE",
"189 100.333 OFFCURVE",
"189.333 96 OFFCURVE",
"192 96 CURVE SMOOTH",
"192.667 96 OFFCURVE",
"195 100 OFFCURVE",
"196 109 CURVE SMOOTH",
"212 222 LINE",
"341 222 LINE",
"332 158 LINE SMOOTH",
"316 41 OFFCURVE",
"271.52 9 OFFCURVE",
"180 9 CURVE SMOOTH"
);
},
{
closed = 1;
nodes = (
"264.899 18 OFFCURVE",
"309 47 OFFCURVE",
"323 158 CURVE SMOOTH",
"330 213 LINE",
"219 213 LINE",
"205 109 LINE SMOOTH",
"204 100 OFFCURVE",
"201.833 94.5 OFFCURVE",
"199.5 91.5 CURVE SMOOTH",
"197.167 88.5 OFFCURVE",
"194.333 87 OFFCURVE",
"191 87 CURVE SMOOTH",
"187 87 OFFCURVE",
"184.167 88.5 OFFCURVE",
"182.5 91.5 CURVE SMOOTH",
"180.833 94.5 OFFCURVE",
"181 100 OFFCURVE",
"182 109 CURVE SMOOTH",
"220 382 LINE SMOOTH",
"221 391 OFFCURVE",
"223.333 397.667 OFFCURVE",
"226 401 CURVE SMOOTH",
"228.667 404.333 OFFCURVE",
"232 406 OFFCURVE",
"236 406 CURVE SMOOTH",
"239.333 406 OFFCURVE",
"241.667 404.333 OFFCURVE",
"243 401 CURVE SMOOTH",
"244.333 397.667 OFFCURVE",
"244 391 OFFCURVE",
"243 382 CURVE SMOOTH",
"228 273 LINE",
"339 273 LINE",
"353 377 LINE SMOOTH",
"363 452 OFFCURVE",
"322 478 OFFCURVE",
"246 478 CURVE SMOOTH",
"168.667 478 OFFCURVE",
"113 452 OFFCURVE",
"103 377 CURVE SMOOTH",
"73 157 LINE SMOOTH",
"58 47 OFFCURVE",
"94.078 18 OFFCURVE",
"181 18 CURVE SMOOTH"
);
}
);
userData = {
assembly = "SVTCA[0]	/* SetFreedomAndProjectionVectorToAxis */\012PUSHW[ ]	/* 1 value pushed */\0120 \012RCVT[ ]	/* ReadCVT */\012IF[ ]	/* If */\012PUSHW[ ]	/* 1 value pushed */\01276 \012MDAP[1]	/* MoveDirectAbsPt */\012ELSE[ ]	/* Else */\012PUSHW[ ]	/* 2 values pushed */\01276 7 \012MIAP[0]	/* MoveIndirectAbsPt */\012EIF[ ]	/* EndIf */\012PUSHW[ ]	/* 4 values pushed */\01269 4 6 4 \012CALL[ ]	/* CallFunction */\012PUSHW[ ]	/* 4 values pushed */\01247 2 36 4 \012CALL[ ]	/* CallFunction */\012PUSHW[ ]	/* 4 values pushed */\01215 4 20 4 \012CALL[ ]	/* CallFunction */\012PUSHW[ ]	/* 1 value pushed */\01276 \012SRP0[ ]	/* SetRefPoint0 */\012PUSHW[ ]	/* 2 values pushed */\0120 4 \012MIRP[10100]	/* MoveIndirectRelPt */\012PUSHW[ ]	/* 1 value pushed */\0126 \012SRP0[ ]	/* SetRefPoint0 */\012PUSHW[ ]	/* 2 values pushed */\01235 4 \012MIRP[10100]	/* MoveIndirectRelPt */\012PUSHW[ ]	/* 1 value pushed */\01215 \012SRP0[ ]	/* SetRefPoint0 */\012PUSHW[ ]	/* 1 value pushed */\01268 \012MDRP[11100]	/* MoveDirectRelPt */\012PUSHW[ ]	/* 1 value pushed */\01220 \012SRP0[ ]	/* SetRefPoint0 */\012PUSHW[ ]	/* 1 value pushed */\01285 \012MDRP[11100]	/* MoveDirectRelPt */\012PUSHW[ ]	/* 1 value pushed */\01269 \012SRP0[ ]	/* SetRefPoint0 */\012PUSHW[ ]	/* 1 value pushed */\01289 \012MDRP[10000]	/* MoveDirectRelPt */\012PUSHW[ ]	/* 1 value pushed */\01289 \012MDAP[1]	/* MoveDirectAbsPt */\012IUP[0]	/* InterpolateUntPts */\012IUP[1]	/* InterpolateUntPts */";
};
width = 443;
}
);
note = C.tabular;
},
{
glyphname = D.tabular;
lastChange = "2021-12-03 07:30:48 +0000";
layers = (
{
layerId = "6544E2DB-1912-401E-9B5B-A29F161A5995";
paths = (
{
closed = 1;
nodes = (
"197 0 LINE SMOOTH",
"278.333 0 OFFCURVE",
"330 29.333 OFFCURVE",
"342 120 CURVE SMOOTH",
"381 394 LINE SMOOTH",
"389 452.667 OFFCURVE",
"361.667 496 OFFCURVE",
"283 496 CURVE SMOOTH",
"95 496 LINE",
"26 0 LINE"
);
},
{
closed = 1;
nodes = (
"110 478 LINE",
"281 478 LINE SMOOTH",
"349 478 OFFCURVE",
"371.667 443.333 OFFCURVE",
"365 394 CURVE SMOOTH",
"326 120 LINE SMOOTH",
"315.333 41.333 OFFCURVE",
"268.333 18 OFFCURVE",
"199 18 CURVE SMOOTH",
"45 18 LINE"
);
},
{
closed = 1;
nodes = (
"200 27 LINE SMOOTH",
"265.333 27 OFFCURVE",
"306.333 48 OFFCURVE",
"317 120 CURVE SMOOTH",
"356 394 LINE SMOOTH",
"362.667 438 OFFCURVE",
"341.667 469 OFFCURVE",
"279 469 CURVE SMOOTH",
"116 469 LINE",
"54 27 LINE"
);
},
{
closed = 1;
nodes = (
"223 404 LINE",
"234 404 LINE SMOOTH",
"237.333 404 OFFCURVE",
"240 402.5 OFFCURVE",
"242 399.5 CURVE SMOOTH",
"244 396.5 OFFCURVE",
"244.333 390.333 OFFCURVE",
"243 381 CURVE SMOOTH",
"205 109 LINE SMOOTH",
"203.667 100.333 OFFCURVE",
"201.667 94.5 OFFCURVE",
"199 91.5 CURVE SMOOTH",
"196.333 88.5 OFFCURVE",
"193.333 87 OFFCURVE",
"190 87 CURVE SMOOTH",
"179 87 LINE"
);
},
{
closed = 1;
nodes = (
"191 95 LINE SMOOTH",
"192.333 95 OFFCURVE",
"194 99.667 OFFCURVE",
"196 109 CURVE SMOOTH",
"234 381 LINE SMOOTH",
"236 390.333 OFFCURVE",
"235.667 395 OFFCURVE",
"233 395 CURVE SMOOTH",
"231 395 LINE",
"189 95 LINE"
);
}
);
userData = {
assembly = "SVTCA[0]	/* SetFreedomAndProjectionVectorToAxis */\012PUSHW[ ]	/* 1 value pushed */\0120 \012RCVT[ ]	/* ReadCVT */\012IF[ ]	/* If */\012PUSHW[ ]	/* 1 value pushed */\01238 \012MDAP[1]	/* MoveDirectAbsPt */\012ELSE[ ]	/* Else */\012PUSHW[ ]	/* 2 values pushed */\01238 11 \012MIAP[0]	/* MoveIndirectAbsPt */\012EIF[ ]	/* EndIf */\012PUSHW[ ]	/* 1 value pushed */\0120 \012RCVT[ ]	/* ReadCVT */\012IF[ ]	/* If */\012PUSHW[ ]	/* 1 value pushed */\01246 \012MDAP[1]	/* MoveDirectAbsPt */\012ELSE[ ]	/* Else */\012PUSHW[ ]	/* 2 values pushed */\01246 7 \012MIAP[0]	/* MoveIndirectAbsPt */\012EIF[ ]	/* EndIf */\012PUSHW[ ]	/* 3 values pushed */\01223 46 38 \012SRP1[ ]	/* SetRefPoint1 */\012SRP2[ ]	/* SetRefPoint2 */\012IP[ ]	/* InterpolatePts */\012IUP[0]	/* InterpolateUntPts */\012IUP[1]	/* InterpolateUntPts */";
};
width = 443;
}
);
note = D.tabular;
},
{
glyphname = E.tabular;
lastChange = "2021-12-03 07:30:48 +0000";
layers = (
{
anchors = (
{
name = bottom;
position = "{179, 0}";
},
{
name = ogonek;
position = "{283, 0}";
},
{
name = top;
position = "{232, 495}";
},
{
name = topleft;
position = "{68, 591}";
}
);
layerId = "6544E2DB-1912-401E-9B5B-A29F161A5995";
paths = (
{
closed = 1;
nodes = (
"288 0 LINE",
"306 135 LINE",
"225 135 LINE",
"232 180 LINE",
"307 180 LINE",
"327 327 LINE",
"252 327 LINE",
"257 360 LINE",
"338 360 LINE",
"357 496 LINE",
"117 496 LINE",
"48 0 LINE"
);
},
{
closed = 1;
nodes = (
"131 478 LINE",
"339 478 LINE",
"324 377 LINE",
"243 377 LINE",
"234 310 LINE",
"309 310 LINE",
"293 198 LINE",
"218 198 LINE",
"207 117 LINE",
"288 117 LINE",
"274 18 LINE",
"66 18 LINE"
);
},
{
closed = 1;
nodes = (
"267 27 LINE",
"279 108 LINE",
"198 108 LINE",
"212 207 LINE",
"287 207 LINE",
"300 301 LINE",
"225 301 LINE",
"237 386 LINE",
"318 386 LINE",
"329 469 LINE",
"137 469 LINE",
"75 27 LINE"
);
}
);
userData = {
assembly = "SVTCA[0]	/* SetFreedomAndProjectionVectorToAxis */\012PUSHW[ ]	/* 1 value pushed */\0120 \012RCVT[ ]	/* ReadCVT */\012IF[ ]	/* If */\012PUSHW[ ]	/* 1 value pushed */\01224 \012MDAP[1]	/* MoveDirectAbsPt */\012ELSE[ ]	/* Else */\012PUSHW[ ]	/* 2 values pushed */\01224 11 \012MIAP[0]	/* MoveIndirectAbsPt */\012EIF[ ]	/* EndIf */\012PUSHW[ ]	/* 1 value pushed */\0120 \012RCVT[ ]	/* ReadCVT */\012IF[ ]	/* If */\012PUSHW[ ]	/* 1 value pushed */\01234 \012MDAP[1]	/* MoveDirectAbsPt */\012ELSE[ ]	/* Else */\012PUSHW[ ]	/* 2 values pushed */\01234 7 \012MIAP[0]	/* MoveIndirectAbsPt */\012EIF[ ]	/* EndIf */\012PUSHW[ ]	/* 4 values pushed */\01233 4 10 4 \012CALL[ ]	/* CallFunction */\012PUSHW[ ]	/* 4 values pushed */\01217 2 14 4 \012CALL[ ]	/* CallFunction */\012PUSHW[ ]	/* 4 values pushed */\0125 4 30 4 \012CALL[ ]	/* CallFunction */\012PUSHW[ ]	/* 4 values pushed */\01221 2 18 4 \012CALL[ ]	/* CallFunction */\012PUSHW[ ]	/* 1 value pushed */\01224 \012SRP0[ ]	/* SetRefPoint0 */\012PUSHW[ ]	/* 2 values pushed */\0122 4 \012MIRP[10100]	/* MoveIndirectRelPt */\012PUSHW[ ]	/* 2 values pushed */\0121 2 \012MIRP[10100]	/* MoveIndirectRelPt */\012PUSHW[ ]	/* 1 value pushed */\0125 \012SRP0[ ]	/* SetRefPoint0 */\012PUSHW[ ]	/* 2 values pushed */\0126 1 \012MIRP[10100]	/* MoveIndirectRelPt */\012PUSHW[ ]	/* 1 value pushed */\01234 \012SRP0[ ]	/* SetRefPoint0 */\012PUSHW[ ]	/* 2 values pushed */\0128 4 \012MIRP[10100]	/* MoveIndirectRelPt */\012PUSHW[ ]	/* 1 value pushed */\01210 \012SRP0[ ]	/* SetRefPoint0 */\012PUSHW[ ]	/* 2 values pushed */\0129 2 \012MIRP[10100]	/* MoveIndirectRelPt */\012PUSHW[ ]	/* 1 value pushed */\0121 \012SRP0[ ]	/* SetRefPoint0 */\012PUSHW[ ]	/* 2 values pushed */\01226 4 \012MIRP[10100]	/* MoveIndirectRelPt */\012PUSHW[ ]	/* 1 value pushed */\0126 \012SRP0[ ]	/* SetRefPoint0 */\012PUSHW[ ]	/* 2 values pushed */\01228 4 \012MIRP[10100]	/* MoveIndirectRelPt */\012IUP[0]	/* InterpolateUntPts */\012IUP[1]	/* InterpolateUntPts */";
};
width = 428;
}
);
note = E.tabular;
},
{
glyphname = F.tabular;
lastChange = "2021-12-03 07:30:48 +0000";
layers = (
{
layerId = "6544E2DB-1912-401E-9B5B-A29F161A5995";
paths = (
{
closed = 1;
nodes = (
"207 0 LINE",
"232 180 LINE",
"307 180 LINE",
"327 327 LINE",
"252 327 LINE",
"257 360 LINE",
"338 360 LINE",
"357 496 LINE",
"117 496 LINE",
"48 0 LINE"
);
},
{
closed = 1;
nodes = (
"131 478 LINE",
"339 478 LINE",
"324 377 LINE",
"243 377 LINE",
"234 310 LINE",
"309 310 LINE",
"293 198 LINE",
"218 198 LINE",
"193 18 LINE",
"66 18 LINE"
);
},
{
closed = 1;
nodes = (
"186 27 LINE",
"212 207 LINE",
"287 207 LINE",
"300 301 LINE",
"225 301 LINE",
"237 386 LINE",
"318 386 LINE",
"329 469 LINE",
"137 469 LINE",
"75 27 LINE"
);
}
);
userData = {
assembly = "SVTCA[0]	/* SetFreedomAndProjectionVectorToAxis */\012PUSHW[ ]	/* 1 value pushed */\0120 \012RCVT[ ]	/* ReadCVT */\012IF[ ]	/* If */\012PUSHW[ ]	/* 1 value pushed */\01220 \012MDAP[1]	/* MoveDirectAbsPt */\012ELSE[ ]	/* Else */\012PUSHW[ ]	/* 2 values pushed */\01220 11 \012MIAP[0]	/* MoveIndirectAbsPt */\012EIF[ ]	/* EndIf */\012PUSHW[ ]	/* 1 value pushed */\0120 \012RCVT[ ]	/* ReadCVT */\012IF[ ]	/* If */\012PUSHW[ ]	/* 1 value pushed */\01228 \012MDAP[1]	/* MoveDirectAbsPt */\012ELSE[ ]	/* Else */\012PUSHW[ ]	/* 2 values pushed */\01228 7 \012MIAP[0]	/* MoveIndirectAbsPt */\012EIF[ ]	/* EndIf */\012PUSHW[ ]	/* 4 values pushed */\0125 4 26 4 \012CALL[ ]	/* CallFunction */\012PUSHW[ ]	/* 4 values pushed */\01217 2 14 4 \012CALL[ ]	/* CallFunction */\012PUSHW[ ]	/* 4 values pushed */\01224 4 6 4 \012CALL[ ]	/* CallFunction */\012PUSHW[ ]	/* 1 value pushed */\01220 \012SRP0[ ]	/* SetRefPoint0 */\012PUSHW[ ]	/* 2 values pushed */\0122 4 \012MIRP[10100]	/* MoveIndirectRelPt */\012PUSHW[ ]	/* 2 values pushed */\0121 2 \012MIRP[10100]	/* MoveIndirectRelPt */\012PUSHW[ ]	/* 2 values pushed */\01222 4 \012MIRP[10100]	/* MoveIndirectRelPt */\012IUP[0]	/* InterpolateUntPts */\012IUP[1]	/* InterpolateUntPts */";
};
width = 428;
}
);
note = F.tabular;
},
{
glyphname = G.tabular;
lastChange = "2021-12-03 07:30:48 +0000";
layers = (
{
layerId = "6544E2DB-1912-401E-9B5B-A29F161A5995";
paths = (
{
closed = 1;
nodes = (
"164 -7 OFFCURVE",
"181.333 0.333 OFFCURVE",
"196 11 CURVE",
"197 0 LINE",
"326 0 LINE",
"378 375 LINE SMOOTH",
"391.026 466.182 OFFCURVE",
"336.995 503 OFFCURVE",
"245 503 CURVE SMOOTH",
"155.667 503 OFFCURVE",
"91.333 469.667 OFFCURVE",
"78 375 CURVE SMOOTH",
"45 140 LINE SMOOTH",
"28.273 27.69 OFFCURVE",
"71.383 -7 OFFCURVE",
"140 -7 CURVE SMOOTH"
);
},
{
closed = 1;
nodes = (
"195 96 OFFCURVE",
"198 100.333 OFFCURVE",
"200 109 CURVE",
"210 184 LINE",
"196 184 LINE",
"186 109 LINE",
"184 100.333 OFFCURVE",
"185.667 96 OFFCURVE",
"191 96 CURVE SMOOTH"
);
},
{
closed = 1;
nodes = (
"83.668 11 OFFCURVE",
"47.85 43.31 OFFCURVE",
"62 140 CURVE SMOOTH",
"95 375 LINE SMOOTH",
"105.667 455 OFFCURVE",
"163 485 OFFCURVE",
"243 485 CURVE SMOOTH",
"323 485 OFFCURVE",
"372.667 455 OFFCURVE",
"362 375 CURVE SMOOTH",
"351 298 LINE",
"226 298 LINE",
"238 382 LINE SMOOTH",
"240 391.333 OFFCURVE",
"238.333 396 OFFCURVE",
"233 396 CURVE SMOOTH",
"229 396 OFFCURVE",
"226 391.333 OFFCURVE",
"224 382 CURVE SMOOTH",
"208 269 LINE",
"347 269 LINE",
"312 18 LINE",
"213 18 LINE",
"210 47 LINE",
"196.667 28.333 OFFCURVE",
"175.333 11 OFFCURVE",
"142 11 CURVE SMOOTH"
);
},
{
closed = 1;
nodes = (
"181.354 20 OFFCURVE",
"206.944 49.535 OFFCURVE",
"217 73 CURVE",
"220 27 LINE",
"304 27 LINE",
"337 260 LINE",
"212 260 LINE",
"203 193 LINE",
"220 193 LINE",
"208 109 LINE SMOOTH",
"205.333 91.667 OFFCURVE",
"199.333 87 OFFCURVE",
"190 87 CURVE SMOOTH",
"180.667 87 OFFCURVE",
"174.333 91.667 OFFCURVE",
"177 109 CURVE SMOOTH",
"215 382 LINE SMOOTH",
"217.667 400.667 OFFCURVE",
"224.667 405 OFFCURVE",
"234 405 CURVE SMOOTH",
"243.333 405 OFFCURVE",
"248.667 400.667 OFFCURVE",
"246 382 CURVE SMOOTH",
"236 307 LINE",
"344 307 LINE",
"353 375 LINE SMOOTH",
"363.381 447.667 OFFCURVE",
"316.507 476 OFFCURVE",
"241 476 CURVE SMOOTH",
"166.333 476 OFFCURVE",
"113.667 449.667 OFFCURVE",
"103 375 CURVE SMOOTH",
"70 140 LINE SMOOTH",
"58.323 51.251 OFFCURVE",
"88.44 20 OFFCURVE",
"143 20 CURVE SMOOTH"
);
}
);
userData = {
assembly = "SVTCA[0]	/* SetFreedomAndProjectionVectorToAxis */\012PUSHW[ ]	/* 1 value pushed */\0120 \012RCVT[ ]	/* ReadCVT */\012IF[ ]	/* If */\012PUSHW[ ]	/* 1 value pushed */\01276 \012MDAP[1]	/* MoveDirectAbsPt */\012ELSE[ ]	/* Else */\012PUSHW[ ]	/* 2 values pushed */\01276 7 \012MIAP[0]	/* MoveIndirectAbsPt */\012EIF[ ]	/* EndIf */\012PUSHW[ ]	/* 1 value pushed */\0120 \012RCVT[ ]	/* ReadCVT */\012IF[ ]	/* If */\012PUSHW[ ]	/* 1 value pushed */\01281 \012MDAP[1]	/* MoveDirectAbsPt */\012ELSE[ ]	/* Else */\012PUSHW[ ]	/* 2 values pushed */\01281 7 \012MIAP[0]	/* MoveIndirectAbsPt */\012EIF[ ]	/* EndIf */\012PUSHW[ ]	/* 4 values pushed */\01217 4 24 4 \012CALL[ ]	/* CallFunction */\012PUSHW[ ]	/* 3 values pushed */\01255 74 3 \012CALL[ ]	/* CallFunction */\012PUSHW[ ]	/* 1 value pushed */\01281 \012SRP0[ ]	/* SetRefPoint0 */\012PUSHW[ ]	/* 1 value pushed */\0128 \012MDRP[11100]	/* MoveDirectRelPt */\012NPUSHW[ ]	/* 27 values pushed */\0127 8 23 8 39 8 55 8 71 8 87 8 103 8 119 8 135 8 151 8 167 8 183 8 199 8 13 \012DELTAP1[ ]	/* DeltaExceptionP1 */\012NPUSHW[ ]	/* 5 values pushed */\012214 8 230 8 2 \012DELTAP1[ ]	/* DeltaExceptionP1 */\012PUSHW[ ]	/* 1 value pushed */\0121 \012MDRP[10000]	/* MoveDirectRelPt */\012PUSHW[ ]	/* 1 value pushed */\0121 \012MDAP[1]	/* MoveDirectAbsPt */\012PUSHW[ ]	/* 1 value pushed */\0128 \012SRP0[ ]	/* SetRefPoint0 */\012PUSHW[ ]	/* 1 value pushed */\01241 \012MDRP[11100]	/* MoveDirectRelPt */\012PUSHW[ ]	/* 3 values pushed */\0123 8 41 \012SRP1[ ]	/* SetRefPoint1 */\012SRP2[ ]	/* SetRefPoint2 */\012IP[ ]	/* InterpolatePts */\012PUSHW[ ]	/* 1 value pushed */\0128 \012SRP0[ ]	/* SetRefPoint0 */\012PUSHW[ ]	/* 1 value pushed */\01268 \012MDRP[10000]	/* MoveDirectRelPt */\012PUSHW[ ]	/* 1 value pushed */\01268 \012MDAP[1]	/* MoveDirectAbsPt */\012PUSHW[ ]	/* 1 value pushed */\01272 \012MDRP[10000]	/* MoveDirectRelPt */\012PUSHW[ ]	/* 1 value pushed */\01273 \012MDRP[10000]	/* MoveDirectRelPt */\012PUSHW[ ]	/* 3 values pushed */\01278 81 8 \012SRP1[ ]	/* SetRefPoint1 */\012SRP2[ ]	/* SetRefPoint2 */\012IP[ ]	/* InterpolatePts */\012PUSHW[ ]	/* 1 value pushed */\01224 \012SRP0[ ]	/* SetRefPoint0 */\012PUSHW[ ]	/* 2 values pushed */\01290 4 \012MIRP[10100]	/* MoveIndirectRelPt */\012IUP[0]	/* InterpolateUntPts */\012IUP[1]	/* InterpolateUntPts */";
};
width = 443;
}
);
note = G.tabular;
},
{
glyphname = H.tabular;
lastChange = "2021-12-03 07:30:48 +0000";
layers = (
{
layerId = "6544E2DB-1912-401E-9B5B-A29F161A5995";
paths = (
{
closed = 1;
nodes = (
"324 0 LINE",
"393 496 LINE",
"96 496 LINE",
"27 0 LINE"
);
},
{
closed = 1;
nodes = (
"111 478 LINE",
"239 478 LINE",
"215 307 LINE",
"223 307 LINE",
"247 478 LINE",
"375 478 LINE",
"310 18 LINE",
"182 18 LINE",
"208 202 LINE",
"200 202 LINE",
"174 18 LINE",
"46 18 LINE"
);
},
{
closed = 1;
nodes = (
"167 27 LINE",
"193 211 LINE",
"218 211 LINE",
"192 27 LINE",
"302 27 LINE",
"364 469 LINE",
"254 469 LINE",
"230 298 LINE",
"205 298 LINE",
"229 469 LINE",
"117 469 LINE",
"55 27 LINE"
);
}
);
userData = {
assembly = "SVTCA[0]	/* SetFreedomAndProjectionVectorToAxis */\012PUSHW[ ]	/* 1 value pushed */\0120 \012RCVT[ ]	/* ReadCVT */\012IF[ ]	/* If */\012PUSHW[ ]	/* 1 value pushed */\01225 \012MDAP[1]	/* MoveDirectAbsPt */\012ELSE[ ]	/* Else */\012PUSHW[ ]	/* 2 values pushed */\01225 11 \012MIAP[0]	/* MoveIndirectAbsPt */\012EIF[ ]	/* EndIf */\012PUSHW[ ]	/* 1 value pushed */\0120 \012RCVT[ ]	/* ReadCVT */\012IF[ ]	/* If */\012PUSHW[ ]	/* 1 value pushed */\01224 \012MDAP[1]	/* MoveDirectAbsPt */\012ELSE[ ]	/* Else */\012PUSHW[ ]	/* 2 values pushed */\01224 7 \012MIAP[0]	/* MoveIndirectAbsPt */\012EIF[ ]	/* EndIf */\012IUP[0]	/* InterpolateUntPts */\012IUP[1]	/* InterpolateUntPts */";
};
width = 442;
}
);
note = H.tabular;
},
{
glyphname = I.tabular;
lastChange = "2021-12-03 07:30:48 +0000";
layers = (
{
anchors = (
{
name = bottom;
position = "{162, 0}";
},
{
name = ogonek;
position = "{228, 0}";
},
{
name = top;
position = "{232, 495}";
},
{
name = topleft;
position = "{68, 591}";
}
);
layerId = "6544E2DB-1912-401E-9B5B-A29F161A5995";
paths = (
{
closed = 1;
nodes = (
"280 0 LINE",
"299 136 LINE",
"262 136 LINE",
"293 360 LINE",
"330 360 LINE",
"349 496 LINE",
"121 496 LINE",
"102 360 LINE",
"139 360 LINE",
"108 136 LINE",
"71 136 LINE",
"52 0 LINE"
);
},
{
closed = 1;
nodes = (
"84 119 LINE",
"121 119 LINE",
"157 377 LINE",
"120 377 LINE",
"135 478 LINE",
"331 478 LINE",
"316 377 LINE",
"279 377 LINE",
"243 119 LINE",
"280 119 LINE",
"266 18 LINE",
"70 18 LINE"
);
},
{
closed = 1;
nodes = (
"259 27 LINE",
"271 110 LINE",
"234 110 LINE",
"273 386 LINE",
"310 386 LINE",
"321 469 LINE",
"141 469 LINE",
"130 386 LINE",
"167 386 LINE",
"128 110 LINE",
"91 110 LINE",
"79 27 LINE"
);
}
);
userData = {
assembly = "SVTCA[0]	/* SetFreedomAndProjectionVectorToAxis */\012PUSHW[ ]	/* 1 value pushed */\0120 \012RCVT[ ]	/* ReadCVT */\012IF[ ]	/* If */\012PUSHW[ ]	/* 1 value pushed */\01224 \012MDAP[1]	/* MoveDirectAbsPt */\012ELSE[ ]	/* Else */\012PUSHW[ ]	/* 2 values pushed */\01224 11 \012MIAP[0]	/* MoveIndirectAbsPt */\012EIF[ ]	/* EndIf */\012PUSHW[ ]	/* 1 value pushed */\0120 \012RCVT[ ]	/* ReadCVT */\012IF[ ]	/* If */\012PUSHW[ ]	/* 1 value pushed */\01230 \012MDAP[1]	/* MoveDirectAbsPt */\012ELSE[ ]	/* Else */\012PUSHW[ ]	/* 2 values pushed */\01230 7 \012MIAP[0]	/* MoveIndirectAbsPt */\012EIF[ ]	/* EndIf */\012PUSHW[ ]	/* 4 values pushed */\0125 2 6 4 \012CALL[ ]	/* CallFunction */\012PUSHW[ ]	/* 1 value pushed */\01224 \012SRP0[ ]	/* SetRefPoint0 */\012PUSHW[ ]	/* 2 values pushed */\0122 4 \012MIRP[10100]	/* MoveIndirectRelPt */\012PUSHW[ ]	/* 2 values pushed */\0121 2 \012MIRP[10100]	/* MoveIndirectRelPt */\012PUSHW[ ]	/* 1 value pushed */\01230 \012SRP0[ ]	/* SetRefPoint0 */\012PUSHW[ ]	/* 2 values pushed */\0124 4 \012MIRP[10100]	/* MoveIndirectRelPt */\012PUSHW[ ]	/* 1 value pushed */\0128 \012MDRP[10000]	/* MoveDirectRelPt */\012PUSHW[ ]	/* 1 value pushed */\0129 \012MDRP[10000]	/* MoveDirectRelPt */\012PUSHW[ ]	/* 1 value pushed */\0122 \012SRP0[ ]	/* SetRefPoint0 */\012PUSHW[ ]	/* 1 value pushed */\01210 \012MDRP[10000]	/* MoveDirectRelPt */\012PUSHW[ ]	/* 1 value pushed */\01211 \012MDRP[10000]	/* MoveDirectRelPt */\012PUSHW[ ]	/* 1 value pushed */\0121 \012SRP0[ ]	/* SetRefPoint0 */\012PUSHW[ ]	/* 2 values pushed */\01226 4 \012MIRP[10100]	/* MoveIndirectRelPt */\012PUSHW[ ]	/* 1 value pushed */\0126 \012SRP0[ ]	/* SetRefPoint0 */\012PUSHW[ ]	/* 2 values pushed */\01228 4 \012MIRP[10100]	/* MoveIndirectRelPt */\012PUSHW[ ]	/* 1 value pushed */\01232 \012MDRP[10000]	/* MoveDirectRelPt */\012PUSHW[ ]	/* 1 value pushed */\01226 \012SRP0[ ]	/* SetRefPoint0 */\012PUSHW[ ]	/* 1 value pushed */\01234 \012MDRP[10000]	/* MoveDirectRelPt */\012IUP[0]	/* InterpolateUntPts */\012IUP[1]	/* InterpolateUntPts */";
};
width = 424;
}
);
note = I.tabular;
},
{
glyphname = J.tabular;
lastChange = "2021-12-03 07:30:48 +0000";
layers = (
{
layerId = "6544E2DB-1912-401E-9B5B-A29F161A5995";
paths = (
{
closed = 1;
nodes = (
"228.874 -103 OFFCURVE",
"278.404 -67.37 OFFCURVE",
"294 47 CURVE SMOOTH",
"339 367 LINE",
"387 367 LINE",
"407 506 LINE",
"143 506 LINE",
"123 367 LINE",
"176 367 LINE",
"131 45 LINE SMOOTH",
"129.667 37 OFFCURVE",
"129.667 36 OFFCURVE",
"123 36 CURVE SMOOTH",
"119 36 OFFCURVE",
"111.833 36.667 OFFCURVE",
"101.5 38 CURVE SMOOTH",
"91.167 39.333 OFFCURVE",
"80.333 40.667 OFFCURVE",
"69 42 CURVE SMOOTH",
"26 48 LINE",
"7 -91 LINE",
"20.068 -91 OFFCURVE",
"105.639 -103 OFFCURVE",
"120 -103 CURVE SMOOTH"
);
},
{
closed = 1;
nodes = (
"111.179 -85 OFFCURVE",
"36.253 -75 OFFCURVE",
"26 -75 CURVE",
"40 27 LINE",
"74 22 LINE SMOOTH",
"92.667 19.333 OFFCURVE",
"112 17 OFFCURVE",
"120 17 CURVE SMOOTH",
"138.667 17 OFFCURVE",
"144.333 22.333 OFFCURVE",
"147 45 CURVE SMOOTH",
"195 385 LINE",
"142 385 LINE",
"156 488 LINE",
"387 488 LINE",
"373 385 LINE",
"325 385 LINE",
"277 47 LINE SMOOTH",
"263.958 -54.726 OFFCURVE",
"219.677 -85 OFFCURVE",
"123 -85 CURVE SMOOTH"
);
},
{
closed = 1;
nodes = (
"214.971 -76 OFFCURVE",
"254.769 -48.264 OFFCURVE",
"268 47 CURVE SMOOTH",
"317 394 LINE",
"366 394 LINE",
"378 479 LINE",
"164 479 LINE",
"152 394 LINE",
"205 394 LINE",
"156 45 LINE SMOOTH",
"152 14.333 OFFCURVE",
"145.667 8 OFFCURVE",
"119 8 CURVE SMOOTH",
"108.333 8 OFFCURVE",
"90.667 9.333 OFFCURVE",
"76 12 CURVE SMOOTH",
"48 16 LINE",
"36 -66 LINE",
"45.858 -66 OFFCURVE",
"112.534 -76 OFFCURVE",
"124 -76 CURVE SMOOTH"
);
}
);
userData = {
assembly = "SVTCA[0]	/* SetFreedomAndProjectionVectorToAxis */\012PUSHW[ ]	/* 4 values pushed */\01220 4 61 4 \012CALL[ ]	/* CallFunction */\012PUSHW[ ]	/* 4 values pushed */\0121 2 2 4 \012CALL[ ]	/* CallFunction */\012PUSHW[ ]	/* 1 value pushed */\01220 \012SRP0[ ]	/* SetRefPoint0 */\012PUSHW[ ]	/* 2 values pushed */\0129 2 \012MIRP[10100]	/* MoveIndirectRelPt */\012PUSHW[ ]	/* 1 value pushed */\0122 \012SRP0[ ]	/* SetRefPoint0 */\012PUSHW[ ]	/* 1 value pushed */\01224 \012MDRP[10000]	/* MoveDirectRelPt */\012PUSHW[ ]	/* 1 value pushed */\0122 \012SRP0[ ]	/* SetRefPoint0 */\012PUSHW[ ]	/* 2 values pushed */\01253 4 \012MIRP[10100]	/* MoveIndirectRelPt */\012PUSHW[ ]	/* 1 value pushed */\0121 \012SRP0[ ]	/* SetRefPoint0 */\012PUSHW[ ]	/* 2 values pushed */\01254 4 \012MIRP[10100]	/* MoveIndirectRelPt */\012PUSHW[ ]	/* 1 value pushed */\01276 \012MDRP[10000]	/* MoveDirectRelPt */\012IUP[0]	/* InterpolateUntPts */\012IUP[1]	/* InterpolateUntPts */";
};
width = 446;
}
);
note = J.tabular;
},
{
glyphname = K.tabular;
lastChange = "2021-12-03 07:30:48 +0000";
layers = (
{
layerId = "6544E2DB-1912-401E-9B5B-A29F161A5995";
paths = (
{
closed = 1;
nodes = (
"355 0 LINE",
"310 257 LINE",
"422 496 LINE",
"83 496 LINE",
"14 0 LINE"
);
},
{
closed = 1;
nodes = (
"98 478 LINE",
"228 478 LINE",
"213 375 LINE",
"249 478 LINE",
"397 478 LINE",
"292 258 LINE",
"333 18 LINE",
"189 18 LINE",
"180 141 LINE",
"163 18 LINE",
"33 18 LINE"
);
},
{
closed = 1;
nodes = (
"156 27 LINE",
"184 226 LINE",
"196 27 LINE",
"323 27 LINE",
"283 257 LINE",
"383 469 LINE",
"253 469 LINE",
"193 289 LINE",
"218 469 LINE",
"104 469 LINE",
"42 27 LINE"
);
}
);
userData = {
assembly = "SVTCA[0]	/* SetFreedomAndProjectionVectorToAxis */\012PUSHW[ ]	/* 1 value pushed */\0120 \012RCVT[ ]	/* ReadCVT */\012IF[ ]	/* If */\012PUSHW[ ]	/* 1 value pushed */\01222 \012MDAP[1]	/* MoveDirectAbsPt */\012ELSE[ ]	/* Else */\012PUSHW[ ]	/* 2 values pushed */\01222 11 \012MIAP[0]	/* MoveIndirectAbsPt */\012EIF[ ]	/* EndIf */\012PUSHW[ ]	/* 1 value pushed */\0120 \012RCVT[ ]	/* ReadCVT */\012IF[ ]	/* If */\012PUSHW[ ]	/* 1 value pushed */\01229 \012MDAP[1]	/* MoveDirectAbsPt */\012ELSE[ ]	/* Else */\012PUSHW[ ]	/* 2 values pushed */\01229 7 \012MIAP[0]	/* MoveIndirectAbsPt */\012EIF[ ]	/* EndIf */\012PUSHW[ ]	/* 3 values pushed */\0120 29 22 \012SRP1[ ]	/* SetRefPoint1 */\012SRP2[ ]	/* SetRefPoint2 */\012IP[ ]	/* InterpolatePts */\012PUSHW[ ]	/* 3 values pushed */\0122 29 22 \012SRP1[ ]	/* SetRefPoint1 */\012SRP2[ ]	/* SetRefPoint2 */\012IP[ ]	/* InterpolatePts */\012PUSHW[ ]	/* 3 values pushed */\0126 29 22 \012SRP1[ ]	/* SetRefPoint1 */\012SRP2[ ]	/* SetRefPoint2 */\012IP[ ]	/* InterpolatePts */\012PUSHW[ ]	/* 3 values pushed */\01215 29 22 \012SRP1[ ]	/* SetRefPoint1 */\012SRP2[ ]	/* SetRefPoint2 */\012IP[ ]	/* InterpolatePts */\012PUSHW[ ]	/* 3 values pushed */\01219 29 22 \012SRP1[ ]	/* SetRefPoint1 */\012SRP2[ ]	/* SetRefPoint2 */\012IP[ ]	/* InterpolatePts */\012PUSHW[ ]	/* 3 values pushed */\01221 29 22 \012SRP1[ ]	/* SetRefPoint1 */\012SRP2[ ]	/* SetRefPoint2 */\012IP[ ]	/* InterpolatePts */\012IUP[0]	/* InterpolateUntPts */\012IUP[1]	/* InterpolateUntPts */";
};
width = 449;
}
);
note = K.tabular;
},
{
glyphname = L.tabular;
lastChange = "2021-12-03 07:30:48 +0000";
layers = (
{
layerId = "6544E2DB-1912-401E-9B5B-A29F161A5995";
paths = (
{
closed = 1;
nodes = (
"276 0 LINE",
"294 135 LINE",
"222 135 LINE",
"273 496 LINE",
"122 496 LINE",
"53 0 LINE"
);
},
{
closed = 1;
nodes = (
"136 478 LINE",
"256 478 LINE",
"205 117 LINE",
"276 117 LINE",
"262 18 LINE",
"71 18 LINE"
);
},
{
closed = 1;
nodes = (
"255 27 LINE",
"267 108 LINE",
"196 108 LINE",
"246 469 LINE",
"142 469 LINE",
"80 27 LINE"
);
}
);
userData = {
assembly = "SVTCA[0]	/* SetFreedomAndProjectionVectorToAxis */\012PUSHW[ ]	/* 1 value pushed */\0120 \012RCVT[ ]	/* ReadCVT */\012IF[ ]	/* If */\012PUSHW[ ]	/* 1 value pushed */\01212 \012MDAP[1]	/* MoveDirectAbsPt */\012ELSE[ ]	/* Else */\012PUSHW[ ]	/* 2 values pushed */\01212 11 \012MIAP[0]	/* MoveIndirectAbsPt */\012EIF[ ]	/* EndIf */\012PUSHW[ ]	/* 1 value pushed */\0120 \012RCVT[ ]	/* ReadCVT */\012IF[ ]	/* If */\012PUSHW[ ]	/* 1 value pushed */\01216 \012MDAP[1]	/* MoveDirectAbsPt */\012ELSE[ ]	/* Else */\012PUSHW[ ]	/* 2 values pushed */\01216 7 \012MIAP[0]	/* MoveIndirectAbsPt */\012EIF[ ]	/* EndIf */\012PUSHW[ ]	/* 4 values pushed */\0123 2 4 4 \012CALL[ ]	/* CallFunction */\012PUSHW[ ]	/* 1 value pushed */\01216 \012SRP0[ ]	/* SetRefPoint0 */\012PUSHW[ ]	/* 2 values pushed */\0122 4 \012MIRP[10100]	/* MoveIndirectRelPt */\012PUSHW[ ]	/* 1 value pushed */\0124 \012SRP0[ ]	/* SetRefPoint0 */\012PUSHW[ ]	/* 2 values pushed */\01214 4 \012MIRP[10100]	/* MoveIndirectRelPt */\012IUP[0]	/* InterpolateUntPts */\012IUP[1]	/* InterpolateUntPts */";
};
width = 423;
}
);
note = L.tabular;
},
{
glyphname = M.tabular;
lastChange = "2021-12-03 07:30:48 +0000";
layers = (
{
layerId = "6544E2DB-1912-401E-9B5B-A29F161A5995";
paths = (
{
closed = 1;
nodes = (
"364 0 LINE",
"433 496 LINE",
"70 496 LINE",
"1 0 LINE"
);
},
{
closed = 1;
nodes = (
"85 478 LINE",
"234 478 LINE",
"228 331 LINE",
"234 357 OFFCURVE",
"240.167 381.833 OFFCURVE",
"246.5 405.5 CURVE SMOOTH",
"265 478 LINE",
"414 478 LINE",
"349 18 LINE",
"243 18 LINE",
"263 157 LINE",
"230 18 LINE",
"137 18 LINE",
"144 146 LINE",
"126 18 LINE",
"20 18 LINE"
);
},
{
closed = 1;
nodes = (
"118 27 LINE",
"162 335 LINE",
"145 27 LINE",
"224 27 LINE",
"297 335 LINE",
"253 27 LINE",
"341 27 LINE",
"403 469 LINE",
"271 469 LINE",
"216 244 LINE",
"225 469 LINE",
"92 469 LINE",
"30 27 LINE"
);
}
);
userData = {
assembly = "SVTCA[0]	/* SetFreedomAndProjectionVectorToAxis */\012PUSHW[ ]	/* 1 value pushed */\0120 \012RCVT[ ]	/* ReadCVT */\012IF[ ]	/* If */\012PUSHW[ ]	/* 1 value pushed */\01229 \012MDAP[1]	/* MoveDirectAbsPt */\012ELSE[ ]	/* Else */\012PUSHW[ ]	/* 2 values pushed */\01229 11 \012MIAP[0]	/* MoveIndirectAbsPt */\012EIF[ ]	/* EndIf */\012PUSHW[ ]	/* 1 value pushed */\0120 \012RCVT[ ]	/* ReadCVT */\012IF[ ]	/* If */\012PUSHW[ ]	/* 1 value pushed */\01228 \012MDAP[1]	/* MoveDirectAbsPt */\012ELSE[ ]	/* Else */\012PUSHW[ ]	/* 2 values pushed */\01228 7 \012MIAP[0]	/* MoveIndirectAbsPt */\012EIF[ ]	/* EndIf */\012PUSHW[ ]	/* 3 values pushed */\0120 28 29 \012SRP1[ ]	/* SetRefPoint1 */\012SRP2[ ]	/* SetRefPoint2 */\012IP[ ]	/* InterpolatePts */\012PUSHW[ ]	/* 3 values pushed */\0125 28 29 \012SRP1[ ]	/* SetRefPoint1 */\012SRP2[ ]	/* SetRefPoint2 */\012IP[ ]	/* InterpolatePts */\012PUSHW[ ]	/* 3 values pushed */\01210 28 29 \012SRP1[ ]	/* SetRefPoint1 */\012SRP2[ ]	/* SetRefPoint2 */\012IP[ ]	/* InterpolatePts */\012PUSHW[ ]	/* 3 values pushed */\01215 28 29 \012SRP1[ ]	/* SetRefPoint1 */\012SRP2[ ]	/* SetRefPoint2 */\012IP[ ]	/* InterpolatePts */\012PUSHW[ ]	/* 3 values pushed */\01222 28 29 \012SRP1[ ]	/* SetRefPoint1 */\012SRP2[ ]	/* SetRefPoint2 */\012IP[ ]	/* InterpolatePts */\012PUSHW[ ]	/* 3 values pushed */\01227 28 29 \012SRP1[ ]	/* SetRefPoint1 */\012SRP2[ ]	/* SetRefPoint2 */\012IP[ ]	/* InterpolatePts */\012IUP[0]	/* InterpolateUntPts */\012IUP[1]	/* InterpolateUntPts */";
};
width = 454;
}
);
note = M.tabular;
},
{
glyphname = N.tabular;
lastChange = "2021-12-03 07:30:48 +0000";
layers = (
{
anchors = (
{
name = bottom;
position = "{176, 0}";
},
{
name = top;
position = "{244, 495}";
}
);
layerId = "6544E2DB-1912-401E-9B5B-A29F161A5995";
paths = (
{
closed = 1;
nodes = (
"176 0 LINE",
"179 26 LINE",
"182 0 LINE",
"322 0 LINE",
"391 496 LINE",
"244 496 LINE",
"241 474 LINE",
"230 496 LINE",
"98 496 LINE",
"29 0 LINE"
);
},
{
closed = 1;
nodes = (
"112 478 LINE",
"224 478 LINE",
"238 335 LINE",
"258 478 LINE",
"372 478 LINE",
"307 18 LINE",
"197 18 LINE",
"179 146 LINE",
"161 18 LINE",
"47 18 LINE"
);
},
{
closed = 1;
nodes = (
"154 27 LINE",
"180 211 LINE",
"204 27 LINE",
"300 27 LINE",
"362 469 LINE",
"265 469 LINE",
"236 263 LINE",
"215 469 LINE",
"119 469 LINE",
"57 27 LINE"
);
}
);
userData = {
assembly = "SVTCA[0]	/* SetFreedomAndProjectionVectorToAxis */\012PUSHW[ ]	/* 1 value pushed */\0120 \012RCVT[ ]	/* ReadCVT */\012IF[ ]	/* If */\012PUSHW[ ]	/* 1 value pushed */\01223 \012MDAP[1]	/* MoveDirectAbsPt */\012ELSE[ ]	/* Else */\012PUSHW[ ]	/* 2 values pushed */\01223 11 \012MIAP[0]	/* MoveIndirectAbsPt */\012EIF[ ]	/* EndIf */\012PUSHW[ ]	/* 1 value pushed */\0120 \012RCVT[ ]	/* ReadCVT */\012IF[ ]	/* If */\012PUSHW[ ]	/* 1 value pushed */\01226 \012MDAP[1]	/* MoveDirectAbsPt */\012ELSE[ ]	/* Else */\012PUSHW[ ]	/* 2 values pushed */\01226 11 \012MIAP[0]	/* MoveIndirectAbsPt */\012EIF[ ]	/* EndIf */\012PUSHW[ ]	/* 1 value pushed */\0120 \012RCVT[ ]	/* ReadCVT */\012IF[ ]	/* If */\012PUSHW[ ]	/* 1 value pushed */\01221 \012MDAP[1]	/* MoveDirectAbsPt */\012ELSE[ ]	/* Else */\012PUSHW[ ]	/* 2 values pushed */\01221 7 \012MIAP[0]	/* MoveIndirectAbsPt */\012EIF[ ]	/* EndIf */\012PUSHW[ ]	/* 1 value pushed */\0120 \012RCVT[ ]	/* ReadCVT */\012IF[ ]	/* If */\012PUSHW[ ]	/* 1 value pushed */\01228 \012MDAP[1]	/* MoveDirectAbsPt */\012ELSE[ ]	/* Else */\012PUSHW[ ]	/* 2 values pushed */\01228 7 \012MIAP[0]	/* MoveIndirectAbsPt */\012EIF[ ]	/* EndIf */\012PUSHW[ ]	/* 3 values pushed */\0120 21 23 \012SRP1[ ]	/* SetRefPoint1 */\012SRP2[ ]	/* SetRefPoint2 */\012IP[ ]	/* InterpolatePts */\012PUSHW[ ]	/* 3 values pushed */\0125 21 23 \012SRP1[ ]	/* SetRefPoint1 */\012SRP2[ ]	/* SetRefPoint2 */\012IP[ ]	/* InterpolatePts */\012PUSHW[ ]	/* 3 values pushed */\01214 21 23 \012SRP1[ ]	/* SetRefPoint1 */\012SRP2[ ]	/* SetRefPoint2 */\012IP[ ]	/* InterpolatePts */\012PUSHW[ ]	/* 3 values pushed */\01219 21 23 \012SRP1[ ]	/* SetRefPoint1 */\012SRP2[ ]	/* SetRefPoint2 */\012IP[ ]	/* InterpolatePts */\012PUSHW[ ]	/* 3 values pushed */\01220 21 23 \012SRP1[ ]	/* SetRefPoint1 */\012SRP2[ ]	/* SetRefPoint2 */\012IP[ ]	/* InterpolatePts */\012PUSHW[ ]	/* 3 values pushed */\01225 21 23 \012SRP1[ ]	/* SetRefPoint1 */\012SRP2[ ]	/* SetRefPoint2 */\012IP[ ]	/* InterpolatePts */\012IUP[0]	/* InterpolateUntPts */\012IUP[1]	/* InterpolateUntPts */";
};
width = 442;
}
);
note = N.tabular;
},
{
glyphname = O.tabular;
lastChange = "2021-12-03 07:30:48 +0000";
layers = (
{
anchors = (
{
name = bottom;
position = "{178, 0}";
},
{
name = center;
position = "{229, 296}";
},
{
name = ogonek;
position = "{220, 0}";
},
{
name = top;
position = "{249, 495}";
},
{
name = topleft;
position = "{68, 591}";
},
{
name = topright;
position = "{291, 495}";
}
);
layerId = "6544E2DB-1912-401E-9B5B-A29F161A5995";
paths = (
{
closed = 1;
nodes = (
"280.611 -9 OFFCURVE",
"330 25 OFFCURVE",
"348 158 CURVE SMOOTH",
"378 377 LINE SMOOTH",
"391 470 OFFCURVE",
"341 505 OFFCURVE",
"249 505 CURVE SMOOTH",
"157 505 OFFCURVE",
"91 472 OFFCURVE",
"78 377 CURVE SMOOTH",
"48 157 LINE SMOOTH",
"30 25 OFFCURVE",
"74.021 -9 OFFCURVE",
"177 -9 CURVE SMOOTH"
);
},
{
closed = 1;
nodes = (
"87.317 9 OFFCURVE",
"49 41 OFFCURVE",
"65 157 CURVE SMOOTH",
"95 377 LINE SMOOTH",
"106 458 OFFCURVE",
"164.333 487 OFFCURVE",
"247 487 CURVE SMOOTH",
"328.333 487 OFFCURVE",
"373 458 OFFCURVE",
"362 377 CURVE SMOOTH",
"332 158 LINE SMOOTH",
"316 41 OFFCURVE",
"271.52 9 OFFCURVE",
"180 9 CURVE SMOOTH"
);
},
{
closed = 1;
nodes = (
"264.899 18 OFFCURVE",
"308 47 OFFCURVE",
"323 158 CURVE SMOOTH",
"353 377 LINE SMOOTH",
"363 452 OFFCURVE",
"322 478 OFFCURVE",
"246 478 CURVE SMOOTH",
"168.667 478 OFFCURVE",
"113 452 OFFCURVE",
"103 377 CURVE SMOOTH",
"73 157 LINE SMOOTH",
"58 47 OFFCURVE",
"94.078 18 OFFCURVE",
"181 18 CURVE SMOOTH"
);
},
{
closed = 1;
nodes = (
"187 87 OFFCURVE",
"184.167 88.5 OFFCURVE",
"182.5 91.5 CURVE SMOOTH",
"180.833 94.5 OFFCURVE",
"181 100 OFFCURVE",
"182 109 CURVE SMOOTH",
"220 382 LINE SMOOTH",
"221 391 OFFCURVE",
"223.333 397.667 OFFCURVE",
"226 401 CURVE SMOOTH",
"228.667 404.333 OFFCURVE",
"232 406 OFFCURVE",
"236 406 CURVE SMOOTH",
"239.333 406 OFFCURVE",
"241.667 404.333 OFFCURVE",
"243 401 CURVE SMOOTH",
"244.333 397.667 OFFCURVE",
"244 391 OFFCURVE",
"243 382 CURVE SMOOTH",
"205 109 LINE SMOOTH",
"204 100 OFFCURVE",
"201.833 94.5 OFFCURVE",
"199.5 91.5 CURVE SMOOTH",
"197.167 88.5 OFFCURVE",
"194.333 87 OFFCURVE",
"191 87 CURVE SMOOTH"
);
},
{
closed = 1;
nodes = (
"192.667 96 OFFCURVE",
"194 100.333 OFFCURVE",
"196 109 CURVE",
"234 382 LINE SMOOTH",
"235 392 OFFCURVE",
"236 397 OFFCURVE",
"234 397 CURVE SMOOTH",
"232.667 397 OFFCURVE",
"230 392 OFFCURVE",
"229 382 CURVE SMOOTH",
"191 109 LINE",
"189 100.333 OFFCURVE",
"189.333 96 OFFCURVE",
"192 96 CURVE SMOOTH"
);
}
);
userData = {
assembly = "SVTCA[0]	/* SetFreedomAndProjectionVectorToAxis */\012PUSHW[ ]	/* 1 value pushed */\01269 \012MDAP[1]	/* MoveDirectAbsPt */\012PUSHW[ ]	/* 1 value pushed */\0120 \012RCVT[ ]	/* ReadCVT */\012IF[ ]	/* If */\012PUSHW[ ]	/* 1 value pushed */\01260 \012MDAP[1]	/* MoveDirectAbsPt */\012ELSE[ ]	/* Else */\012PUSHW[ ]	/* 2 values pushed */\01260 7 \012MIAP[0]	/* MoveIndirectAbsPt */\012EIF[ ]	/* EndIf */\012IUP[0]	/* InterpolateUntPts */\012IUP[1]	/* InterpolateUntPts */";
};
width = 443;
}
);
note = O.tabular;
},
{
glyphname = Oslash.tabular;
lastChange = "2021-12-03 07:30:48 +0000";
layers = (
{
layerId = "6544E2DB-1912-401E-9B5B-A29F161A5995";
paths = (
{
closed = 1;
nodes = (
"99 -40 LINE",
"101.667 -34.667 OFFCURVE",
"105.167 -28.667 OFFCURVE",
"109.5 -22 CURVE SMOOTH",
"123 -1 LINE",
"144.333 -7.667 OFFCURVE",
"166.667 -9 OFFCURVE",
"192 -9 CURVE SMOOTH",
"298.69 -9 OFFCURVE",
"349.106 25.716 OFFCURVE",
"369 160 CURVE SMOOTH",
"400 382 LINE SMOOTH",
"402.667 402 OFFCURVE",
"402.667 419.667 OFFCURVE",
"400 435 CURVE",
"473 549 LINE",
"340 549 LINE",
"314 508 LINE",
"299.333 510.667 OFFCURVE",
"282.333 512 OFFCURVE",
"265 512 CURVE SMOOTH",
"170.333 512 OFFCURVE",
"102.333 476.667 OFFCURVE",
"89 382 CURVE SMOOTH",
"58 159 LINE SMOOTH",
"54 135 OFFCURVE",
"52.667 113.667 OFFCURVE",
"54 95 CURVE",
"-31 -40 LINE"
);
},
{
closed = 1;
nodes = (
"209.667 97 OFFCURVE",
"211.333 101.667 OFFCURVE",
"212 111 CURVE SMOOTH",
"223 186 LINE",
"215 174 LINE",
"206 111 LINE SMOOTH",
"205.333 101.667 OFFCURVE",
"205.667 97 OFFCURVE",
"207 97 CURVE SMOOTH"
);
},
{
closed = 1;
nodes = (
"202 88 OFFCURVE",
"199.167 89.5 OFFCURVE",
"197.5 92.5 CURVE SMOOTH",
"195.833 95.5 OFFCURVE",
"195.667 101.667 OFFCURVE",
"197 111 CURVE SMOOTH",
"206 177 LINE",
"236 225 LINE",
"220 111 LINE SMOOTH",
"218.667 101.667 OFFCURVE",
"216.833 95.5 OFFCURVE",
"214.5 92.5 CURVE SMOOTH",
"212.167 89.5 OFFCURVE",
"209.333 88 OFFCURVE",
"206 88 CURVE SMOOTH"
);
},
{
closed = 1;
nodes = (
"72 93 LINE",
"70 111 OFFCURVE",
"71 133 OFFCURVE",
"75 159 CURVE SMOOTH",
"106 382 LINE SMOOTH",
"118 464.667 OFFCURVE",
"177.667 494 OFFCURVE",
"263 494 CURVE SMOOTH",
"285.667 494 OFFCURVE",
"305.333 493.333 OFFCURVE",
"320 488 CURVE",
"348 531 LINE",
"440 531 LINE",
"381 436 LINE",
"383.667 428 OFFCURVE",
"385 419.833 OFFCURVE",
"385 411.5 CURVE SMOOTH",
"385 403.167 OFFCURVE",
"384.333 393.333 OFFCURVE",
"383 382 CURVE SMOOTH",
"352 160 LINE SMOOTH",
"334.931 40.514 OFFCURVE",
"287.987 9 OFFCURVE",
"195 9 CURVE SMOOTH",
"164.333 9 OFFCURVE",
"138 11.333 OFFCURVE",
"118 22 CURVE",
"90 -22 LINE",
"-1 -22 LINE"
);
},
{
closed = 1;
nodes = (
"87 -13 LINE",
"115 34 LINE",
"137.667 22 OFFCURVE",
"162.667 18 OFFCURVE",
"196 18 CURVE SMOOTH",
"283.179 18 OFFCURVE",
"328.196 46.5 OFFCURVE",
"343 160 CURVE SMOOTH",
"374 382 LINE SMOOTH",
"376.667 404 OFFCURVE",
"375.333 422 OFFCURVE",
"370 436 CURVE",
"425 522 LINE",
"352 522 LINE",
"323 476 LINE",
"305.667 482 OFFCURVE",
"285.333 485 OFFCURVE",
"262 485 CURVE SMOOTH",
"183.333 485 OFFCURVE",
"125.667 456.667 OFFCURVE",
"115 382 CURVE SMOOTH",
"84 159 LINE SMOOTH",
"80 131.667 OFFCURVE",
"79.333 109.667 OFFCURVE",
"82 93 CURVE",
"16 -13 LINE"
);
},
{
closed = 1;
nodes = (
"236 388 LINE SMOOTH",
"237.333 397.333 OFFCURVE",
"239.167 403.5 OFFCURVE",
"241.5 406.5 CURVE SMOOTH",
"243.833 409.5 OFFCURVE",
"247 411 OFFCURVE",
"251 411 CURVE SMOOTH",
"254.333 411 OFFCURVE",
"256.833 409.5 OFFCURVE",
"258.5 406.5 CURVE SMOOTH",
"260.167 403.5 OFFCURVE",
"260.333 397.333 OFFCURVE",
"259 388 CURVE SMOOTH",
"257 371 LINE",
"227 324 LINE"
);
},
{
closed = 1;
nodes = (
"249 374 LINE",
"251 388 LINE SMOOTH",
"251.667 397.333 OFFCURVE",
"251.333 402 OFFCURVE",
"250 402 CURVE SMOOTH",
"247.333 402 OFFCURVE",
"245.667 397.333 OFFCURVE",
"245 388 CURVE SMOOTH",
"241 362 LINE"
);
}
);
userData = {
assembly = "SVTCA[0]	/* SetFreedomAndProjectionVectorToAxis */\012PUSHW[ ]	/* 1 value pushed */\01297 \012MDAP[1]	/* MoveDirectAbsPt */\012PUSHW[ ]	/* 1 value pushed */\012113 \012MDAP[1]	/* MoveDirectAbsPt */\012PUSHW[ ]	/* 3 values pushed */\01210 113 97 \012SRP1[ ]	/* SetRefPoint1 */\012SRP2[ ]	/* SetRefPoint2 */\012IP[ ]	/* InterpolatePts */\012PUSHW[ ]	/* 3 values pushed */\01224 113 97 \012SRP1[ ]	/* SetRefPoint1 */\012SRP2[ ]	/* SetRefPoint2 */\012IP[ ]	/* InterpolatePts */\012PUSHW[ ]	/* 3 values pushed */\01229 113 97 \012SRP1[ ]	/* SetRefPoint1 */\012SRP2[ ]	/* SetRefPoint2 */\012IP[ ]	/* InterpolatePts */\012PUSHW[ ]	/* 3 values pushed */\01234 113 97 \012SRP1[ ]	/* SetRefPoint1 */\012SRP2[ ]	/* SetRefPoint2 */\012IP[ ]	/* InterpolatePts */\012PUSHW[ ]	/* 3 values pushed */\01249 113 97 \012SRP1[ ]	/* SetRefPoint1 */\012SRP2[ ]	/* SetRefPoint2 */\012IP[ ]	/* InterpolatePts */\012PUSHW[ ]	/* 3 values pushed */\01254 113 97 \012SRP1[ ]	/* SetRefPoint1 */\012SRP2[ ]	/* SetRefPoint2 */\012IP[ ]	/* InterpolatePts */\012PUSHW[ ]	/* 3 values pushed */\01257 113 97 \012SRP1[ ]	/* SetRefPoint1 */\012SRP2[ ]	/* SetRefPoint2 */\012IP[ ]	/* InterpolatePts */\012PUSHW[ ]	/* 3 values pushed */\01272 113 97 \012SRP1[ ]	/* SetRefPoint1 */\012SRP2[ ]	/* SetRefPoint2 */\012IP[ ]	/* InterpolatePts */\012IUP[0]	/* InterpolateUntPts */\012IUP[1]	/* InterpolateUntPts */";
};
width = 457;
}
);
note = Oslash.tabular;
},
{
glyphname = OE.tabular;
lastChange = "2021-12-03 07:30:48 +0000";
layers = (
{
layerId = "6544E2DB-1912-401E-9B5B-A29F161A5995";
paths = (
{
closed = 1;
nodes = (
"166.667 -9 OFFCURVE",
"192.333 -6.667 OFFCURVE",
"215 0 CURVE",
"390 0 LINE",
"408 135 LINE",
"320 135 LINE",
"327 181 LINE",
"408 181 LINE",
"429 329 LINE",
"348 329 LINE",
"352 361 LINE",
"440 361 LINE",
"459 498 LINE",
"276 498 LINE",
"258 502.667 OFFCURVE",
"236.667 505 OFFCURVE",
"212 505 CURVE SMOOTH",
"116 505 OFFCURVE",
"48.667 471.667 OFFCURVE",
"34 377 CURVE SMOOTH",
"4 157 LINE SMOOTH",
"-15.584 24.811 OFFCURVE",
"33.672 -9 OFFCURVE",
"140 -9 CURVE SMOOTH"
);
},
{
closed = 1;
nodes = (
"150 87 OFFCURVE",
"147.167 88.5 OFFCURVE",
"145.5 91.5 CURVE SMOOTH",
"143.833 94.5 OFFCURVE",
"143.667 100.333 OFFCURVE",
"145 109 CURVE SMOOTH",
"183 382 LINE SMOOTH",
"184.333 391.333 OFFCURVE",
"186.333 397.667 OFFCURVE",
"189 401 CURVE SMOOTH",
"191.667 404.333 OFFCURVE",
"195 406 OFFCURVE",
"199 406 CURVE SMOOTH",
"202.333 406 OFFCURVE",
"204.667 404.333 OFFCURVE",
"206 401 CURVE SMOOTH",
"207.333 397.667 OFFCURVE",
"207.333 391.333 OFFCURVE",
"206 382 CURVE SMOOTH",
"168 109 LINE SMOOTH",
"166.667 100.333 OFFCURVE",
"164.833 94.5 OFFCURVE",
"162.5 91.5 CURVE SMOOTH",
"160.167 88.5 OFFCURVE",
"157.333 87 OFFCURVE",
"154 87 CURVE SMOOTH"
);
},
{
closed = 1;
nodes = (
"155.667 96 OFFCURVE",
"157 100.333 OFFCURVE",
"159 109 CURVE",
"197 382 LINE SMOOTH",
"199 392 OFFCURVE",
"199 397 OFFCURVE",
"197 397 CURVE SMOOTH",
"195 397 OFFCURVE",
"193 392 OFFCURVE",
"191 382 CURVE SMOOTH",
"153 109 LINE",
"151 100.333 OFFCURVE",
"151.667 96 OFFCURVE",
"155 96 CURVE SMOOTH"
);
},
{
closed = 1;
nodes = (
"47.632 9 OFFCURVE",
"4.911 39.817 OFFCURVE",
"22 157 CURVE SMOOTH",
"52 377 LINE SMOOTH",
"64 458.333 OFFCURVE",
"123.333 487 OFFCURVE",
"210 487 CURVE SMOOTH",
"231.333 487 OFFCURVE",
"256 484 OFFCURVE",
"272 480 CURVE",
"440 480 LINE",
"426 379 LINE",
"338 379 LINE",
"328 311 LINE",
"409 311 LINE",
"393 199 LINE",
"312 199 LINE",
"301 117 LINE",
"389 117 LINE",
"375 18 LINE",
"214 18 LINE",
"192.667 12 OFFCURVE",
"169 9 OFFCURVE",
"143 9 CURVE SMOOTH"
);
},
{
closed = 1;
nodes = (
"169.333 18 OFFCURVE",
"192 21 OFFCURVE",
"212 27 CURVE",
"367 27 LINE",
"379 108 LINE",
"291 108 LINE",
"305 208 LINE",
"386 208 LINE",
"399 302 LINE",
"318 302 LINE",
"330 388 LINE",
"418 388 LINE",
"430 471 LINE",
"269 471 LINE",
"250.333 475 OFFCURVE",
"231.667 478 OFFCURVE",
"209 478 CURVE SMOOTH",
"129 478 OFFCURVE",
"70.667 451.667 OFFCURVE",
"60 377 CURVE SMOOTH",
"30 157 LINE SMOOTH",
"15.212 46.089 OFFCURVE",
"54.219 18 OFFCURVE",
"144 18 CURVE SMOOTH"
);
}
);
userData = {
assembly = "SVTCA[0]	/* SetFreedomAndProjectionVectorToAxis */\012PUSHW[ ]	/* 1 value pushed */\01283 \012MDAP[1]	/* MoveDirectAbsPt */\012PUSHW[ ]	/* 1 value pushed */\01285 \012MDAP[1]	/* MoveDirectAbsPt */\012PUSHW[ ]	/* 1 value pushed */\0120 \012RCVT[ ]	/* ReadCVT */\012IF[ ]	/* If */\012PUSHW[ ]	/* 1 value pushed */\01286 \012MDAP[1]	/* MoveDirectAbsPt */\012ELSE[ ]	/* Else */\012PUSHW[ ]	/* 2 values pushed */\01286 11 \012MIAP[0]	/* MoveIndirectAbsPt */\012EIF[ ]	/* EndIf */\012PUSHW[ ]	/* 1 value pushed */\0120 \012RCVT[ ]	/* ReadCVT */\012IF[ ]	/* If */\012PUSHW[ ]	/* 1 value pushed */\01295 \012MDAP[1]	/* MoveDirectAbsPt */\012ELSE[ ]	/* Else */\012PUSHW[ ]	/* 2 values pushed */\01295 7 \012MIAP[0]	/* MoveIndirectAbsPt */\012EIF[ ]	/* EndIf */\012PUSHW[ ]	/* 1 value pushed */\0120 \012RCVT[ ]	/* ReadCVT */\012IF[ ]	/* If */\012PUSHW[ ]	/* 1 value pushed */\01274 \012MDAP[1]	/* MoveDirectAbsPt */\012ELSE[ ]	/* Else */\012PUSHW[ ]	/* 2 values pushed */\01274 7 \012MIAP[0]	/* MoveIndirectAbsPt */\012EIF[ ]	/* EndIf */\012PUSHW[ ]	/* 4 values pushed */\01221 2 22 4 \012CALL[ ]	/* CallFunction */\012PUSHW[ ]	/* 4 values pushed */\01256 2 53 4 \012CALL[ ]	/* CallFunction */\012PUSHW[ ]	/* 4 values pushed */\01217 4 91 4 \012CALL[ ]	/* CallFunction */\012PUSHW[ ]	/* 4 values pushed */\01260 2 57 4 \012CALL[ ]	/* CallFunction */\012PUSHW[ ]	/* 4 values pushed */\01289 4 18 4 \012CALL[ ]	/* CallFunction */\012PUSHW[ ]	/* 1 value pushed */\01274 \012SRP0[ ]	/* SetRefPoint0 */\012PUSHW[ ]	/* 1 value pushed */\0120 \012MDRP[11100]	/* MoveDirectRelPt */\012NPUSHW[ ]	/* 27 values pushed */\0127 0 23 0 39 0 55 0 71 0 87 0 103 0 119 0 135 0 151 0 167 0 183 0 199 0 13 \012DELTAP1[ ]	/* DeltaExceptionP1 */\012NPUSHW[ ]	/* 5 values pushed */\012214 0 230 0 2 \012DELTAP1[ ]	/* DeltaExceptionP1 */\012PUSHW[ ]	/* 1 value pushed */\01286 \012SRP0[ ]	/* SetRefPoint0 */\012PUSHW[ ]	/* 2 values pushed */\01214 4 \012MIRP[10100]	/* MoveIndirectRelPt */\012PUSHW[ ]	/* 2 values pushed */\01213 2 \012MIRP[10100]	/* MoveIndirectRelPt */\012PUSHW[ ]	/* 1 value pushed */\0129 \012MDRP[10000]	/* MoveDirectRelPt */\012PUSHW[ ]	/* 1 value pushed */\0129 \012MDAP[1]	/* MoveDirectAbsPt */\012PUSHW[ ]	/* 1 value pushed */\0120 \012SRP0[ ]	/* SetRefPoint0 */\012PUSHW[ ]	/* 1 value pushed */\01251 \012MDRP[10000]	/* MoveDirectRelPt */\012PUSHW[ ]	/* 1 value pushed */\01252 \012MDRP[10000]	/* MoveDirectRelPt */\012PUSHW[ ]	/* 1 value pushed */\01213 \012SRP0[ ]	/* SetRefPoint0 */\012PUSHW[ ]	/* 2 values pushed */\01287 4 \012MIRP[10100]	/* MoveIndirectRelPt */\012PUSHW[ ]	/* 1 value pushed */\01222 \012SRP0[ ]	/* SetRefPoint0 */\012PUSHW[ ]	/* 2 values pushed */\01294 4 \012MIRP[10100]	/* MoveIndirectRelPt */\012IUP[0]	/* InterpolateUntPts */\012IUP[1]	/* InterpolateUntPts */";
};
width = 460;
}
);
note = OE.tabular;
},
{
glyphname = P.tabular;
lastChange = "2021-12-03 07:30:48 +0000";
layers = (
{
layerId = "6544E2DB-1912-401E-9B5B-A29F161A5995";
paths = (
{
closed = 1;
nodes = (
"192 0 LINE",
"215 168 LINE",
"242 168 LINE SMOOTH",
"325.57 168 OFFCURVE",
"358.966 237.249 OFFCURVE",
"370 320 CURVE SMOOTH",
"381 394 LINE SMOOTH",
"389 452.667 OFFCURVE",
"361.667 496 OFFCURVE",
"283 496 CURVE SMOOTH",
"95 496 LINE",
"26 0 LINE"
);
},
{
closed = 1;
nodes = (
"110 478 LINE",
"281 478 LINE SMOOTH",
"349 478 OFFCURVE",
"371.667 443.333 OFFCURVE",
"365 394 CURVE SMOOTH",
"354 320 LINE SMOOTH",
"345.754 248.532 OFFCURVE",
"314.765 186 OFFCURVE",
"245 186 CURVE SMOOTH",
"202 186 LINE",
"178 18 LINE",
"45 18 LINE"
);
},
{
closed = 1;
nodes = (
"170 27 LINE",
"194 194 LINE",
"246 194 LINE SMOOTH",
"308.653 194 OFFCURVE",
"336.996 253.303 OFFCURVE",
"345 320 CURVE SMOOTH",
"356 394 LINE SMOOTH",
"362.667 438 OFFCURVE",
"341.667 469 OFFCURVE",
"279 469 CURVE SMOOTH",
"116 469 LINE",
"54 27 LINE"
);
},
{
closed = 1;
nodes = (
"224 407 LINE",
"235 407 LINE SMOOTH",
"241.667 407 OFFCURVE",
"244.667 401.5 OFFCURVE",
"244 390.5 CURVE SMOOTH",
"243.333 379.5 OFFCURVE",
"241 360.333 OFFCURVE",
"237 333 CURVE SMOOTH",
"233 305 OFFCURVE",
"229.167 285.667 OFFCURVE",
"225.5 275 CURVE SMOOTH",
"221.833 264.333 OFFCURVE",
"217.333 259 OFFCURVE",
"212 259 CURVE SMOOTH",
"203 259 LINE"
);
},
{
closed = 1;
nodes = (
"215 268 OFFCURVE",
"217.167 272.667 OFFCURVE",
"219.5 282 CURVE SMOOTH",
"221.833 291.333 OFFCURVE",
"224.667 308.333 OFFCURVE",
"228 333 CURVE SMOOTH",
"234.5 383.5 LINE SMOOTH",
"235.5 393.167 OFFCURVE",
"235 398 OFFCURVE",
"233 398 CURVE SMOOTH",
"231 398 LINE",
"213 268 LINE"
);
}
);
userData = {
assembly = "SVTCA[0]	/* SetFreedomAndProjectionVectorToAxis */\012PUSHW[ ]	/* 1 value pushed */\0120 \012RCVT[ ]	/* ReadCVT */\012IF[ ]	/* If */\012PUSHW[ ]	/* 1 value pushed */\01245 \012MDAP[1]	/* MoveDirectAbsPt */\012ELSE[ ]	/* Else */\012PUSHW[ ]	/* 2 values pushed */\01245 11 \012MIAP[0]	/* MoveIndirectAbsPt */\012EIF[ ]	/* EndIf */\012PUSHW[ ]	/* 1 value pushed */\0120 \012RCVT[ ]	/* ReadCVT */\012IF[ ]	/* If */\012PUSHW[ ]	/* 1 value pushed */\01257 \012MDAP[1]	/* MoveDirectAbsPt */\012ELSE[ ]	/* Else */\012PUSHW[ ]	/* 2 values pushed */\01257 7 \012MIAP[0]	/* MoveIndirectAbsPt */\012EIF[ ]	/* EndIf */\012PUSHW[ ]	/* 3 values pushed */\01230 57 45 \012SRP1[ ]	/* SetRefPoint1 */\012SRP2[ ]	/* SetRefPoint2 */\012IP[ ]	/* InterpolatePts */\012IUP[0]	/* InterpolateUntPts */\012IUP[1]	/* InterpolateUntPts */";
};
width = 443;
}
);
note = P.tabular;
},
{
glyphname = Q.tabular;
lastChange = "2021-12-03 07:30:48 +0000";
layers = (
{
layerId = "6544E2DB-1912-401E-9B5B-A29F161A5995";
paths = (
{
closed = 1;
nodes = (
"332 -35 LINE",
"303 39 LINE",
"324.333 65.667 OFFCURVE",
"339 104 OFFCURVE",
"347 160 CURVE SMOOTH",
"378 383 LINE SMOOTH",
"392.667 479 OFFCURVE",
"342 514 OFFCURVE",
"250 514 CURVE SMOOTH",
"158 514 OFFCURVE",
"92.667 479 OFFCURVE",
"78 383 CURVE SMOOTH",
"47 159 LINE SMOOTH",
"27.103 29.673 OFFCURVE",
"71.398 -6.044 OFFCURVE",
"166 -9 CURVE",
"205 -108 LINE"
);
},
{
closed = 1;
nodes = (
"179 9 LINE",
"86.308 9 OFFCURVE",
"46.89 41.676 OFFCURVE",
"64 159 CURVE SMOOTH",
"95 383 LINE SMOOTH",
"107 465.667 OFFCURVE",
"164.333 495 OFFCURVE",
"247 495 CURVE SMOOTH",
"328.333 495 OFFCURVE",
"374 465.667 OFFCURVE",
"362 383 CURVE SMOOTH",
"331 160 LINE SMOOTH",
"323 100 OFFCURVE",
"305.667 63.667 OFFCURVE",
"283 41 CURVE",
"311 -28 LINE",
"215 -84 LINE"
);
},
{
closed = 1;
nodes = (
"299 -25 LINE",
"273 43 LINE",
"295.667 63 OFFCURVE",
"312.667 97.333 OFFCURVE",
"322 160 CURVE SMOOTH",
"353 383 LINE SMOOTH",
"363.667 459 OFFCURVE",
"322 486 OFFCURVE",
"246 486 CURVE SMOOTH",
"168.667 486 OFFCURVE",
"113.667 459 OFFCURVE",
"103 383 CURVE SMOOTH",
"72 159 LINE SMOOTH",
"57.105 47.291 OFFCURVE",
"91.969 18 OFFCURVE",
"180 18 CURVE SMOOTH",
"185 18 LINE",
"220 -71 LINE"
);
},
{
closed = 1;
nodes = (
"182 88 OFFCURVE",
"179 95.667 OFFCURVE",
"181 111 CURVE SMOOTH",
"220 389 LINE SMOOTH",
"221.333 398.333 OFFCURVE",
"223.333 404.667 OFFCURVE",
"226 408 CURVE SMOOTH",
"228.667 411.333 OFFCURVE",
"232 413 OFFCURVE",
"236 413 CURVE SMOOTH",
"239.333 413 OFFCURVE",
"241.667 411.333 OFFCURVE",
"243 408 CURVE SMOOTH",
"244.333 404.667 OFFCURVE",
"244.333 398.333 OFFCURVE",
"243 389 CURVE SMOOTH",
"204 111 LINE SMOOTH",
"202 95.667 OFFCURVE",
"197.333 88 OFFCURVE",
"190 88 CURVE SMOOTH"
);
},
{
closed = 1;
nodes = (
"193 97 OFFCURVE",
"194.333 101.667 OFFCURVE",
"195 111 CURVE SMOOTH",
"234 389 LINE SMOOTH",
"236 398.333 OFFCURVE",
"236 403 OFFCURVE",
"234 403 CURVE SMOOTH",
"232 403 OFFCURVE",
"230 398.333 OFFCURVE",
"228 389 CURVE SMOOTH",
"189 111 LINE SMOOTH",
"188.333 101.667 OFFCURVE",
"189 97 OFFCURVE",
"191 97 CURVE SMOOTH"
);
}
);
userData = {
assembly = "SVTCA[0]	/* SetFreedomAndProjectionVectorToAxis */\012PUSHW[ ]	/* 1 value pushed */\01279 \012MDAP[1]	/* MoveDirectAbsPt */\012PUSHW[ ]	/* 1 value pushed */\01270 \012MDAP[1]	/* MoveDirectAbsPt */\012PUSHW[ ]	/* 1 value pushed */\0120 \012RCVT[ ]	/* ReadCVT */\012IF[ ]	/* If */\012PUSHW[ ]	/* 1 value pushed */\01251 \012MDAP[1]	/* MoveDirectAbsPt */\012ELSE[ ]	/* Else */\012PUSHW[ ]	/* 2 values pushed */\01251 11 \012MIAP[0]	/* MoveIndirectAbsPt */\012EIF[ ]	/* EndIf */\012IUP[0]	/* InterpolateUntPts */\012IUP[1]	/* InterpolateUntPts */";
};
width = 444;
}
);
note = Q.tabular;
},
{
glyphname = R.tabular;
lastChange = "2021-12-03 07:30:48 +0000";
layers = (
{
layerId = "6544E2DB-1912-401E-9B5B-A29F161A5995";
paths = (
{
closed = 1;
nodes = (
"352 0 LINE",
"332 194 LINE",
"328 210.667 OFFCURVE",
"323.667 224 OFFCURVE",
"319 234 CURVE",
"347 256.667 OFFCURVE",
"360 292.333 OFFCURVE",
"364 327 CURVE SMOOTH",
"374 394 LINE SMOOTH",
"382 454 OFFCURVE",
"354.333 496 OFFCURVE",
"273 496 CURVE SMOOTH",
"83 496 LINE",
"14 0 LINE"
);
},
{
closed = 1;
nodes = (
"98 478 LINE",
"271 478 LINE SMOOTH",
"340.333 478 OFFCURVE",
"363.667 443.333 OFFCURVE",
"357 394 CURVE SMOOTH",
"347 327 LINE SMOOTH",
"341.667 288.333 OFFCURVE",
"330.667 254.667 OFFCURVE",
"292 236 CURVE",
"302.667 228 OFFCURVE",
"310.667 210.667 OFFCURVE",
"316 184 CURVE",
"333 18 LINE",
"191 21 LINE",
"190.333 40.333 OFFCURVE",
"189.333 58 OFFCURVE",
"188 74 CURVE SMOOTH",
"185 112.5 LINE SMOOTH",
"184.333 124.833 OFFCURVE",
"183.667 132 OFFCURVE",
"183 134 CURVE",
"167 18 LINE",
"33 18 LINE"
);
},
{
closed = 1;
nodes = (
"160 27 LINE",
"188 223 LINE",
"189 223 LINE",
"189 220.385 OFFCURVE",
"191.719 145.062 OFFCURVE",
"193 122 CURVE SMOOTH",
"194.333 94 OFFCURVE",
"195.333 62.333 OFFCURVE",
"196 27 CURVE",
"323 27 LINE",
"307 188 LINE",
"299 226.667 OFFCURVE",
"285.667 233.333 OFFCURVE",
"267 236 CURVE",
"315 248 OFFCURVE",
"332.667 284.333 OFFCURVE",
"338 327 CURVE SMOOTH",
"348 394 LINE SMOOTH",
"354.667 438 OFFCURVE",
"333 469 OFFCURVE",
"269 469 CURVE SMOOTH",
"104 469 LINE",
"42 27 LINE"
);
},
{
closed = 1;
nodes = (
"214 407 LINE",
"225 407 LINE SMOOTH",
"231.667 407 OFFCURVE",
"234.667 401.5 OFFCURVE",
"234 390.5 CURVE SMOOTH",
"233.333 379.5 OFFCURVE",
"231 360.333 OFFCURVE",
"227 333 CURVE SMOOTH",
"223 305 OFFCURVE",
"219.333 287 OFFCURVE",
"216 279 CURVE SMOOTH",
"212.667 271 OFFCURVE",
"208.333 267 OFFCURVE",
"203 267 CURVE SMOOTH",
"194 267 LINE"
);
},
{
closed = 1;
nodes = (
"204 276 LINE SMOOTH",
"206.667 276 OFFCURVE",
"208.833 279.5 OFFCURVE",
"210.5 286.5 CURVE SMOOTH",
"212.167 293.5 OFFCURVE",
"214.667 309 OFFCURVE",
"218 333 CURVE SMOOTH",
"224.5 383.5 LINE SMOOTH",
"225.5 393.167 OFFCURVE",
"225 398 OFFCURVE",
"223 398 CURVE SMOOTH",
"220 398 LINE",
"203 276 LINE"
);
}
);
userData = {
assembly = "SVTCA[0]	/* SetFreedomAndProjectionVectorToAxis */\012PUSHW[ ]	/* 1 value pushed */\0120 \012RCVT[ ]	/* ReadCVT */\012IF[ ]	/* If */\012PUSHW[ ]	/* 1 value pushed */\01262 \012MDAP[1]	/* MoveDirectAbsPt */\012ELSE[ ]	/* Else */\012PUSHW[ ]	/* 2 values pushed */\01262 11 \012MIAP[0]	/* MoveIndirectAbsPt */\012EIF[ ]	/* EndIf */\012PUSHW[ ]	/* 1 value pushed */\0120 \012RCVT[ ]	/* ReadCVT */\012IF[ ]	/* If */\012PUSHW[ ]	/* 1 value pushed */\01273 \012MDAP[1]	/* MoveDirectAbsPt */\012ELSE[ ]	/* Else */\012PUSHW[ ]	/* 2 values pushed */\01273 7 \012MIAP[0]	/* MoveIndirectAbsPt */\012EIF[ ]	/* EndIf */\012PUSHW[ ]	/* 3 values pushed */\0128 73 62 \012SRP1[ ]	/* SetRefPoint1 */\012SRP2[ ]	/* SetRefPoint2 */\012IP[ ]	/* InterpolatePts */\012PUSHW[ ]	/* 3 values pushed */\01221 73 62 \012SRP1[ ]	/* SetRefPoint1 */\012SRP2[ ]	/* SetRefPoint2 */\012IP[ ]	/* InterpolatePts */\012PUSHW[ ]	/* 3 values pushed */\01241 73 62 \012SRP1[ ]	/* SetRefPoint1 */\012SRP2[ ]	/* SetRefPoint2 */\012IP[ ]	/* InterpolatePts */\012PUSHW[ ]	/* 3 values pushed */\01253 73 62 \012SRP1[ ]	/* SetRefPoint1 */\012SRP2[ ]	/* SetRefPoint2 */\012IP[ ]	/* InterpolatePts */\012IUP[0]	/* InterpolateUntPts */\012IUP[1]	/* InterpolateUntPts */";
};
width = 449;
}
);
note = R.tabular;
},
{
glyphname = S.tabular;
lastChange = "2021-12-03 07:30:48 +0000";
layers = (
{
anchors = (
{
name = bottom;
position = "{188, 0}";
},
{
name = top;
position = "{247, 495}";
}
);
layerId = "6544E2DB-1912-401E-9B5B-A29F161A5995";
paths = (
{
closed = 1;
nodes = (
"275.398 -6 OFFCURVE",
"341.585 37.817 OFFCURVE",
"357 156 CURVE SMOOTH",
"367.667 233.333 OFFCURVE",
"356.667 265.333 OFFCURVE",
"322 288 CURVE",
"371 288 LINE",
"382 364 LINE SMOOTH",
"395 454 OFFCURVE",
"349.333 499 OFFCURVE",
"248 499 CURVE SMOOTH",
"130.168 499 OFFCURVE",
"88.178 458.941 OFFCURVE",
"72 343 CURVE SMOOTH",
"61.333 271 OFFCURVE",
"69 224.333 OFFCURVE",
"117 195 CURVE",
"46 195 LINE",
"40 154 LINE SMOOTH",
"22 32 OFFCURVE",
"64.701 -6 OFFCURVE",
"172 -6 CURVE SMOOTH"
);
},
{
closed = 1;
nodes = (
"193 97 OFFCURVE",
"194.667 99 OFFCURVE",
"196 103 CURVE SMOOTH",
"197.333 107 OFFCURVE",
"199 115.667 OFFCURVE",
"201 129 CURVE SMOOTH",
"203.667 145 OFFCURVE",
"200.333 155.333 OFFCURVE",
"195 166 CURVE",
"190 135 LINE SMOOTH",
"187 118 OFFCURVE",
"187 107.833 OFFCURVE",
"187 103.5 CURVE SMOOTH",
"187 99.167 OFFCURVE",
"188.333 97 OFFCURVE",
"191 97 CURVE SMOOTH"
);
},
{
closed = 1;
nodes = (
"79.118 12 OFFCURVE",
"43 45 OFFCURVE",
"57 154 CURVE SMOOTH",
"60 177 LINE",
"186 177 LINE",
"175.333 186.333 OFFCURVE",
"161 193.333 OFFCURVE",
"141 204 CURVE SMOOTH",
"90.333 230.667 OFFCURVE",
"78.333 273.667 OFFCURVE",
"89 343 CURVE SMOOTH",
"102.329 444.297 OFFCURVE",
"140.009 481 OFFCURVE",
"245 481 CURVE SMOOTH",
"336.333 481 OFFCURVE",
"377 442 OFFCURVE",
"366 364 CURVE SMOOTH",
"358 306 LINE",
"241 306 LINE",
"245 303 OFFCURVE",
"249 302 OFFCURVE",
"266 295 CURVE",
"337 264 OFFCURVE",
"353 243 OFFCURVE",
"341 156 CURVE SMOOTH",
"325.519 50.215 OFFCURVE",
"269.884 12 OFFCURVE",
"174 12 CURVE SMOOTH"
);
},
{
closed = 1;
nodes = (
"261.936 21 OFFCURVE",
"319.062 57.668 OFFCURVE",
"332 156 CURVE SMOOTH",
"344.469 238.295 OFFCURVE",
"326.353 260.083 OFFCURVE",
"263 286 CURVE SMOOTH",
"230.315 297.886 OFFCURVE",
"208.088 306.245 OFFCURVE",
"213 348 CURVE SMOOTH",
"215.667 369.333 OFFCURVE",
"221 388 OFFCURVE",
"233 388 CURVE SMOOTH",
"240.333 388 OFFCURVE",
"244 382.833 OFFCURVE",
"244 372.5 CURVE SMOOTH",
"244 362.167 OFFCURVE",
"241 347 OFFCURVE",
"239 326 CURVE SMOOTH",
"238 315 LINE",
"350 315 LINE",
"357 364 LINE SMOOTH",
"367 436 OFFCURVE",
"329.333 472 OFFCURVE",
"244 472 CURVE SMOOTH",
"145.121 472 OFFCURVE",
"110.233 438.275 OFFCURVE",
"97 343 CURVE SMOOTH",
"86.333 275 OFFCURVE",
"95.667 236 OFFCURVE",
"145 212 CURVE SMOOTH",
"198.053 185.474 OFFCURVE",
"215.474 178.263 OFFCURVE",
"210 129 CURVE SMOOTH",
"207.333 111.667 OFFCURVE",
"204.667 100.5 OFFCURVE",
"202 95.5 CURVE SMOOTH",
"199.333 90.5 OFFCURVE",
"195.333 88 OFFCURVE",
"190 88 CURVE SMOOTH",
"184.667 88 OFFCURVE",
"181.167 90.833 OFFCURVE",
"179.5 96.5 CURVE SMOOTH",
"177.833 102.167 OFFCURVE",
"178 115 OFFCURVE",
"181 135 CURVE SMOOTH",
"186 168 LINE",
"68 168 LINE",
"66 154 LINE SMOOTH",
"51 51 OFFCURVE",
"85.875 21 OFFCURVE",
"175 21 CURVE SMOOTH"
);
},
{
closed = 1;
nodes = (
"231 326 LINE SMOOTH",
"232 343 OFFCURVE",
"235.333 356.5 OFFCURVE",
"236 365.5 CURVE SMOOTH",
"236.667 374.5 OFFCURVE",
"235.333 379 OFFCURVE",
"232 379 CURVE SMOOTH",
"229.333 379 OFFCURVE",
"227.167 376 OFFCURVE",
"225.5 370 CURVE SMOOTH",
"223.833 364 OFFCURVE",
"222.333 356.667 OFFCURVE",
"221 348 CURVE SMOOTH",
"219 333.333 OFFCURVE",
"222 322 OFFCURVE",
"230 314 CURVE"
);
}
);
userData = {
assembly = "SVTCA[0]	/* SetFreedomAndProjectionVectorToAxis */\012PUSHW[ ]	/* 1 value pushed */\0120 \012RCVT[ ]	/* ReadCVT */\012IF[ ]	/* If */\012PUSHW[ ]	/* 1 value pushed */\012132 \012MDAP[1]	/* MoveDirectAbsPt */\012ELSE[ ]	/* Else */\012PUSHW[ ]	/* 2 values pushed */\012132 11 \012MIAP[0]	/* MoveIndirectAbsPt */\012EIF[ ]	/* EndIf */\012PUSHW[ ]	/* 1 value pushed */\0120 \012RCVT[ ]	/* ReadCVT */\012IF[ ]	/* If */\012PUSHW[ ]	/* 1 value pushed */\012117 \012MDAP[1]	/* MoveDirectAbsPt */\012ELSE[ ]	/* Else */\012PUSHW[ ]	/* 2 values pushed */\012117 7 \012MIAP[0]	/* MoveIndirectAbsPt */\012EIF[ ]	/* EndIf */\012PUSHW[ ]	/* 4 values pushed */\01217 4 10 4 \012CALL[ ]	/* CallFunction */\012PUSHW[ ]	/* 1 value pushed */\012117 \012SRP0[ ]	/* SetRefPoint0 */\012PUSHW[ ]	/* 2 values pushed */\01216 4 \012MIRP[10100]	/* MoveIndirectRelPt */\012PUSHW[ ]	/* 1 value pushed */\012132 \012SRP0[ ]	/* SetRefPoint0 */\012PUSHW[ ]	/* 2 values pushed */\01245 4 \012MIRP[10100]	/* MoveIndirectRelPt */\012NPUSHW[ ]	/* 9 values pushed */\0128 45 24 45 40 45 56 45 4 \012DELTAP1[ ]	/* DeltaExceptionP1 */\012PUSHW[ ]	/* 2 values pushed */\01237 2 \012MIRP[10100]	/* MoveIndirectRelPt */\012PUSHW[ ]	/* 2 values pushed */\01241 4 \012MIRP[10100]	/* MoveIndirectRelPt */\012PUSHW[ ]	/* 3 values pushed */\01260 117 132 \012SRP1[ ]	/* SetRefPoint1 */\012SRP2[ ]	/* SetRefPoint2 */\012IP[ ]	/* InterpolatePts */\012PUSHW[ ]	/* 3 values pushed */\01269 117 16 \012SRP1[ ]	/* SetRefPoint1 */\012SRP2[ ]	/* SetRefPoint2 */\012IP[ ]	/* InterpolatePts */\012PUSHW[ ]	/* 3 values pushed */\01276 117 132 \012SRP1[ ]	/* SetRefPoint1 */\012SRP2[ ]	/* SetRefPoint2 */\012IP[ ]	/* InterpolatePts */\012PUSHW[ ]	/* 1 value pushed */\01210 \012SRP0[ ]	/* SetRefPoint0 */\012PUSHW[ ]	/* 2 values pushed */\012124 4 \012MIRP[10100]	/* MoveIndirectRelPt */\012PUSHW[ ]	/* 3 values pushed */\01291 10 124 \012SRP1[ ]	/* SetRefPoint1 */\012SRP2[ ]	/* SetRefPoint2 */\012IP[ ]	/* InterpolatePts */\012PUSHW[ ]	/* 3 values pushed */\012109 117 132 \012SRP1[ ]	/* SetRefPoint1 */\012SRP2[ ]	/* SetRefPoint2 */\012IP[ ]	/* InterpolatePts */\012IUP[0]	/* InterpolateUntPts */\012IUP[1]	/* InterpolateUntPts */";
};
width = 446;
}
);
note = S.tabular;
},
{
glyphname = T.tabular;
lastChange = "2021-12-03 07:30:48 +0000";
layers = (
{
layerId = "6544E2DB-1912-401E-9B5B-A29F161A5995";
paths = (
{
closed = 1;
nodes = (
"253 0 LINE",
"303 360 LINE",
"362 360 LINE",
"381 496 LINE",
"104 496 LINE",
"85 360 LINE",
"144 360 LINE",
"94 0 LINE"
);
},
{
closed = 1;
nodes = (
"162 377 LINE",
"103 377 LINE",
"118 478 LINE",
"362 478 LINE",
"347 377 LINE",
"288 377 LINE",
"238 18 LINE",
"112 18 LINE"
);
},
{
closed = 1;
nodes = (
"231 27 LINE",
"282 386 LINE",
"341 386 LINE",
"352 469 LINE",
"124 469 LINE",
"113 386 LINE",
"173 386 LINE",
"122 27 LINE"
);
}
);
userData = {
assembly = "SVTCA[0]	/* SetFreedomAndProjectionVectorToAxis */\012PUSHW[ ]	/* 1 value pushed */\0120 \012RCVT[ ]	/* ReadCVT */\012IF[ ]	/* If */\012PUSHW[ ]	/* 1 value pushed */\01221 \012MDAP[1]	/* MoveDirectAbsPt */\012ELSE[ ]	/* Else */\012PUSHW[ ]	/* 2 values pushed */\01221 11 \012MIAP[0]	/* MoveIndirectAbsPt */\012EIF[ ]	/* EndIf */\012PUSHW[ ]	/* 1 value pushed */\0120 \012RCVT[ ]	/* ReadCVT */\012IF[ ]	/* If */\012PUSHW[ ]	/* 1 value pushed */\01217 \012MDAP[1]	/* MoveDirectAbsPt */\012ELSE[ ]	/* Else */\012PUSHW[ ]	/* 2 values pushed */\01217 7 \012MIAP[0]	/* MoveIndirectAbsPt */\012EIF[ ]	/* EndIf */\012PUSHW[ ]	/* 4 values pushed */\0126 2 7 4 \012CALL[ ]	/* CallFunction */\012PUSHW[ ]	/* 1 value pushed */\01221 \012SRP0[ ]	/* SetRefPoint0 */\012PUSHW[ ]	/* 2 values pushed */\0120 4 \012MIRP[10100]	/* MoveIndirectRelPt */\012PUSHW[ ]	/* 1 value pushed */\0123 \012MDRP[10000]	/* MoveDirectRelPt */\012PUSHW[ ]	/* 1 value pushed */\0124 \012MDRP[10000]	/* MoveDirectRelPt */\012PUSHW[ ]	/* 1 value pushed */\0126 \012SRP0[ ]	/* SetRefPoint0 */\012PUSHW[ ]	/* 2 values pushed */\01223 4 \012MIRP[10100]	/* MoveIndirectRelPt */\012PUSHW[ ]	/* 1 value pushed */\01219 \012MDRP[10000]	/* MoveDirectRelPt */\012IUP[0]	/* InterpolateUntPts */\012IUP[1]	/* InterpolateUntPts */";
};
width = 438;
}
);
note = T.tabular;
},
{
glyphname = U.tabular;
lastChange = "2021-12-03 07:30:48 +0000";
layers = (
{
anchors = (
{
name = bottom;
position = "{174, 0}";
},
{
name = ogonek;
position = "{240, 0}";
},
{
name = top;
position = "{246, 495}";
},
{
name = topright;
position = "{292, 495}";
}
);
layerId = "6544E2DB-1912-401E-9B5B-A29F161A5995";
paths = (
{
closed = 1;
nodes = (
"276.409 -9 OFFCURVE",
"327 17 OFFCURVE",
"345 150 CURVE SMOOTH",
"393 497 LINE",
"97 497 LINE",
"48 149 LINE SMOOTH",
"29 16 OFFCURVE",
"73.253 -9 OFFCURVE",
"174 -9 CURVE SMOOTH"
);
},
{
closed = 1;
nodes = (
"85.95 9 OFFCURVE",
"48 32 OFFCURVE",
"65 149 CURVE SMOOTH",
"112 479 LINE",
"240 479 LINE",
"189 114 LINE SMOOTH",
"188 104 OFFCURVE",
"187 99 OFFCURVE",
"189 99 CURVE SMOOTH",
"191.667 99 OFFCURVE",
"195 104 OFFCURVE",
"196 114 CURVE SMOOTH",
"247 479 LINE",
"374 479 LINE",
"328 150 LINE SMOOTH",
"311 32 OFFCURVE",
"267.657 9 OFFCURVE",
"177 9 CURVE SMOOTH"
);
},
{
closed = 1;
nodes = (
"260.797 18 OFFCURVE",
"304 38 OFFCURVE",
"320 150 CURVE SMOOTH",
"365 470 LINE",
"254 470 LINE",
"204 114 LINE SMOOTH",
"203 105 OFFCURVE",
"200.667 98.333 OFFCURVE",
"198 95 CURVE SMOOTH",
"195.333 91.667 OFFCURVE",
"192 90 OFFCURVE",
"188 90 CURVE SMOOTH",
"184.667 90 OFFCURVE",
"182.167 91.667 OFFCURVE",
"180.5 95 CURVE SMOOTH",
"178.833 98.333 OFFCURVE",
"179 105 OFFCURVE",
"180 114 CURVE SMOOTH",
"230 470 LINE",
"119 470 LINE",
"73 149 LINE SMOOTH",
"57 39 OFFCURVE",
"92.481 18 OFFCURVE",
"178 18 CURVE SMOOTH"
);
}
);
userData = {
assembly = "SVTCA[0]	/* SetFreedomAndProjectionVectorToAxis */\012PUSHW[ ]	/* 1 value pushed */\0120 \012RCVT[ ]	/* ReadCVT */\012IF[ ]	/* If */\012PUSHW[ ]	/* 1 value pushed */\01242 \012MDAP[1]	/* MoveDirectAbsPt */\012ELSE[ ]	/* Else */\012PUSHW[ ]	/* 2 values pushed */\01242 11 \012MIAP[0]	/* MoveIndirectAbsPt */\012EIF[ ]	/* EndIf */\012PUSHW[ ]	/* 1 value pushed */\0120 \012RCVT[ ]	/* ReadCVT */\012IF[ ]	/* If */\012PUSHW[ ]	/* 1 value pushed */\01248 \012MDAP[1]	/* MoveDirectAbsPt */\012ELSE[ ]	/* Else */\012PUSHW[ ]	/* 2 values pushed */\01248 7 \012MIAP[0]	/* MoveIndirectAbsPt */\012EIF[ ]	/* EndIf */\012IUP[0]	/* InterpolateUntPts */\012IUP[1]	/* InterpolateUntPts */";
};
width = 442;
}
);
note = U.tabular;
},
{
glyphname = V.tabular;
lastChange = "2021-12-03 07:30:48 +0000";
layers = (
{
layerId = "6544E2DB-1912-401E-9B5B-A29F161A5995";
paths = (
{
closed = 1;
nodes = (
"283 0 LINE",
"423 496 LINE",
"256 496 LINE",
"244 442 LINE",
"247 496 LINE",
"75 496 LINE",
"76 0 LINE"
);
},
{
closed = 1;
nodes = (
"93 478 LINE",
"229 478 LINE",
"216 245 LINE",
"270 478 LINE",
"401 478 LINE",
"271 18 LINE",
"93 18 LINE"
);
},
{
closed = 1;
nodes = (
"264 27 LINE",
"389 469 LINE",
"275 469 LINE",
"204 162 LINE",
"201 145 LINE",
"202 162 LINE",
"219 469 LINE",
"101 469 LINE",
"101 27 LINE"
);
}
);
userData = {
assembly = "PUSHW[ ]	/* 4 values pushed */\0125 6 9 4 \012CALL[ ]	/* CallFunction */\012PUSHW[ ]	/* 3 values pushed */\0127 9 5 \012SRP1[ ]	/* SetRefPoint1 */\012SRP2[ ]	/* SetRefPoint2 */\012IP[ ]	/* InterpolatePts */\012PUSHW[ ]	/* 1 value pushed */\0125 \012SRP0[ ]	/* SetRefPoint0 */\012PUSHW[ ]	/* 1 value pushed */\01214 \012MDRP[10000]	/* MoveDirectRelPt */\012PUSHW[ ]	/* 1 value pushed */\01214 \012MDAP[1]	/* MoveDirectAbsPt */\012SVTCA[0]	/* SetFreedomAndProjectionVectorToAxis */\012PUSHW[ ]	/* 1 value pushed */\0120 \012RCVT[ ]	/* ReadCVT */\012IF[ ]	/* If */\012PUSHW[ ]	/* 1 value pushed */\01216 \012MDAP[1]	/* MoveDirectAbsPt */\012ELSE[ ]	/* Else */\012PUSHW[ ]	/* 2 values pushed */\01216 11 \012MIAP[0]	/* MoveIndirectAbsPt */\012EIF[ ]	/* EndIf */\012PUSHW[ ]	/* 1 value pushed */\0120 \012RCVT[ ]	/* ReadCVT */\012IF[ ]	/* If */\012PUSHW[ ]	/* 1 value pushed */\01218 \012MDAP[1]	/* MoveDirectAbsPt */\012ELSE[ ]	/* Else */\012PUSHW[ ]	/* 2 values pushed */\01218 11 \012MIAP[0]	/* MoveIndirectAbsPt */\012EIF[ ]	/* EndIf */\012PUSHW[ ]	/* 1 value pushed */\0120 \012RCVT[ ]	/* ReadCVT */\012IF[ ]	/* If */\012PUSHW[ ]	/* 1 value pushed */\01220 \012MDAP[1]	/* MoveDirectAbsPt */\012ELSE[ ]	/* Else */\012PUSHW[ ]	/* 2 values pushed */\01220 7 \012MIAP[0]	/* MoveIndirectAbsPt */\012EIF[ ]	/* EndIf */\012PUSHW[ ]	/* 3 values pushed */\0121 20 16 \012SRP1[ ]	/* SetRefPoint1 */\012SRP2[ ]	/* SetRefPoint2 */\012IP[ ]	/* InterpolatePts */\012PUSHW[ ]	/* 3 values pushed */\0127 20 16 \012SRP1[ ]	/* SetRefPoint1 */\012SRP2[ ]	/* SetRefPoint2 */\012IP[ ]	/* InterpolatePts */\012PUSHW[ ]	/* 3 values pushed */\01212 20 16 \012SRP1[ ]	/* SetRefPoint1 */\012SRP2[ ]	/* SetRefPoint2 */\012IP[ ]	/* InterpolatePts */\012PUSHW[ ]	/* 3 values pushed */\01214 20 16 \012SRP1[ ]	/* SetRefPoint1 */\012SRP2[ ]	/* SetRefPoint2 */\012IP[ ]	/* InterpolatePts */\012PUSHW[ ]	/* 3 values pushed */\01217 20 16 \012SRP1[ ]	/* SetRefPoint1 */\012SRP2[ ]	/* SetRefPoint2 */\012IP[ ]	/* InterpolatePts */\012IUP[0]	/* InterpolateUntPts */\012IUP[1]	/* InterpolateUntPts */";
};
width = 450;
}
);
note = V.tabular;
},
{
glyphname = W.tabular;
lastChange = "2021-12-03 07:30:48 +0000";
layers = (
{
layerId = "6544E2DB-1912-401E-9B5B-A29F161A5995";
paths = (
{
closed = 1;
nodes = (
"349 0 LINE",
"476 496 LINE",
"37 496 LINE",
"27 0 LINE"
);
},
{
closed = 1;
nodes = (
"56 478 LINE",
"174 478 LINE",
"163 327 LINE",
"173.667 377.667 OFFCURVE",
"183.667 428.667 OFFCURVE",
"193 478 CURVE",
"310 478 LINE",
"298 305 LINE",
"336 478 LINE",
"454 478 LINE",
"335 18 LINE",
"206 18 LINE",
"209 150 LINE",
"174 18 LINE",
"45 18 LINE"
);
},
{
closed = 1;
nodes = (
"167 27 LINE",
"218 220 LINE",
"215 27 LINE",
"328 27 LINE",
"443 469 LINE",
"342 469 LINE",
"280 177 LINE",
"300 469 LINE",
"200 469 LINE",
"142 177 LINE",
"164 469 LINE",
"63 469 LINE",
"54 27 LINE"
);
}
);
userData = {
assembly = "SVTCA[0]	/* SetFreedomAndProjectionVectorToAxis */\012PUSHW[ ]	/* 1 value pushed */\0120 \012RCVT[ ]	/* ReadCVT */\012IF[ ]	/* If */\012PUSHW[ ]	/* 1 value pushed */\01228 \012MDAP[1]	/* MoveDirectAbsPt */\012ELSE[ ]	/* Else */\012PUSHW[ ]	/* 2 values pushed */\01228 11 \012MIAP[0]	/* MoveIndirectAbsPt */\012EIF[ ]	/* EndIf */\012PUSHW[ ]	/* 1 value pushed */\0120 \012RCVT[ ]	/* ReadCVT */\012IF[ ]	/* If */\012PUSHW[ ]	/* 1 value pushed */\01230 \012MDAP[1]	/* MoveDirectAbsPt */\012ELSE[ ]	/* Else */\012PUSHW[ ]	/* 2 values pushed */\01230 7 \012MIAP[0]	/* MoveIndirectAbsPt */\012EIF[ ]	/* EndIf */\012PUSHW[ ]	/* 3 values pushed */\0120 30 28 \012SRP1[ ]	/* SetRefPoint1 */\012SRP2[ ]	/* SetRefPoint2 */\012IP[ ]	/* InterpolatePts */\012PUSHW[ ]	/* 3 values pushed */\0122 30 28 \012SRP1[ ]	/* SetRefPoint1 */\012SRP2[ ]	/* SetRefPoint2 */\012IP[ ]	/* InterpolatePts */\012PUSHW[ ]	/* 3 values pushed */\0125 30 28 \012SRP1[ ]	/* SetRefPoint1 */\012SRP2[ ]	/* SetRefPoint2 */\012IP[ ]	/* InterpolatePts */\012PUSHW[ ]	/* 3 values pushed */\01210 30 28 \012SRP1[ ]	/* SetRefPoint1 */\012SRP2[ ]	/* SetRefPoint2 */\012IP[ ]	/* InterpolatePts */\012PUSHW[ ]	/* 3 values pushed */\01217 30 28 \012SRP1[ ]	/* SetRefPoint1 */\012SRP2[ ]	/* SetRefPoint2 */\012IP[ ]	/* InterpolatePts */\012PUSHW[ ]	/* 3 values pushed */\01222 30 28 \012SRP1[ ]	/* SetRefPoint1 */\012SRP2[ ]	/* SetRefPoint2 */\012IP[ ]	/* InterpolatePts */\012PUSHW[ ]	/* 3 values pushed */\01225 30 28 \012SRP1[ ]	/* SetRefPoint1 */\012SRP2[ ]	/* SetRefPoint2 */\012IP[ ]	/* InterpolatePts */\012PUSHW[ ]	/* 3 values pushed */\01227 30 28 \012SRP1[ ]	/* SetRefPoint1 */\012SRP2[ ]	/* SetRefPoint2 */\012IP[ ]	/* InterpolatePts */\012IUP[0]	/* InterpolateUntPts */\012IUP[1]	/* InterpolateUntPts */";
};
width = 463;
}
);
note = W.tabular;
},
{
glyphname = X.tabular;
lastChange = "2021-12-03 07:30:48 +0000";
layers = (
{
layerId = "6544E2DB-1912-401E-9B5B-A29F161A5995";
paths = (
{
closed = 1;
nodes = (
"180 0 LINE",
"183 11 LINE",
"184 0 LINE",
"350 0 LINE",
"327 257 LINE",
"422 496 LINE",
"248 496 LINE",
"243 483 LINE",
"243 496 LINE",
"75 496 LINE",
"106 256 LINE",
"7 0 LINE"
);
},
{
closed = 1;
nodes = (
"123 256 LINE",
"95 478 LINE",
"227 478 LINE",
"233 399 LINE",
"259 478 LINE",
"398 478 LINE",
"309 256 LINE",
"331 18 LINE",
"200 18 LINE",
"194 96 LINE",
"169 18 LINE",
"30 18 LINE"
);
},
{
closed = 1;
nodes = (
"163 27 LINE",
"199 142 LINE",
"207 27 LINE",
"321 27 LINE",
"301 257 LINE",
"385 469 LINE",
"264 469 LINE",
"227 353 LINE",
"219 469 LINE",
"105 469 LINE",
"133 257 LINE",
"42 27 LINE"
);
}
);
userData = {
assembly = "SVTCA[0]	/* SetFreedomAndProjectionVectorToAxis */\012PUSHW[ ]	/* 1 value pushed */\0120 \012RCVT[ ]	/* ReadCVT */\012IF[ ]	/* If */\012PUSHW[ ]	/* 1 value pushed */\01228 \012MDAP[1]	/* MoveDirectAbsPt */\012ELSE[ ]	/* Else */\012PUSHW[ ]	/* 2 values pushed */\01228 11 \012MIAP[0]	/* MoveIndirectAbsPt */\012EIF[ ]	/* EndIf */\012PUSHW[ ]	/* 1 value pushed */\0120 \012RCVT[ ]	/* ReadCVT */\012IF[ ]	/* If */\012PUSHW[ ]	/* 1 value pushed */\01231 \012MDAP[1]	/* MoveDirectAbsPt */\012ELSE[ ]	/* Else */\012PUSHW[ ]	/* 2 values pushed */\01231 11 \012MIAP[0]	/* MoveIndirectAbsPt */\012EIF[ ]	/* EndIf */\012PUSHW[ ]	/* 1 value pushed */\0120 \012RCVT[ ]	/* ReadCVT */\012IF[ ]	/* If */\012PUSHW[ ]	/* 1 value pushed */\01225 \012MDAP[1]	/* MoveDirectAbsPt */\012ELSE[ ]	/* Else */\012PUSHW[ ]	/* 2 values pushed */\01225 7 \012MIAP[0]	/* MoveIndirectAbsPt */\012EIF[ ]	/* EndIf */\012PUSHW[ ]	/* 1 value pushed */\0120 \012RCVT[ ]	/* ReadCVT */\012IF[ ]	/* If */\012PUSHW[ ]	/* 1 value pushed */\01234 \012MDAP[1]	/* MoveDirectAbsPt */\012ELSE[ ]	/* Else */\012PUSHW[ ]	/* 2 values pushed */\01234 7 \012MIAP[0]	/* MoveIndirectAbsPt */\012EIF[ ]	/* EndIf */\012PUSHW[ ]	/* 3 values pushed */\0120 25 28 \012SRP1[ ]	/* SetRefPoint1 */\012SRP2[ ]	/* SetRefPoint2 */\012IP[ ]	/* InterpolatePts */\012PUSHW[ ]	/* 3 values pushed */\0122 25 28 \012SRP1[ ]	/* SetRefPoint1 */\012SRP2[ ]	/* SetRefPoint2 */\012IP[ ]	/* InterpolatePts */\012PUSHW[ ]	/* 3 values pushed */\0126 25 28 \012SRP1[ ]	/* SetRefPoint1 */\012SRP2[ ]	/* SetRefPoint2 */\012IP[ ]	/* InterpolatePts */\012PUSHW[ ]	/* 3 values pushed */\0128 25 28 \012SRP1[ ]	/* SetRefPoint1 */\012SRP2[ ]	/* SetRefPoint2 */\012IP[ ]	/* InterpolatePts */\012PUSHW[ ]	/* 3 values pushed */\01215 25 28 \012SRP1[ ]	/* SetRefPoint1 */\012SRP2[ ]	/* SetRefPoint2 */\012IP[ ]	/* InterpolatePts */\012PUSHW[ ]	/* 3 values pushed */\01217 25 28 \012SRP1[ ]	/* SetRefPoint1 */\012SRP2[ ]	/* SetRefPoint2 */\012IP[ ]	/* InterpolatePts */\012PUSHW[ ]	/* 3 values pushed */\01221 25 28 \012SRP1[ ]	/* SetRefPoint1 */\012SRP2[ ]	/* SetRefPoint2 */\012IP[ ]	/* InterpolatePts */\012PUSHW[ ]	/* 3 values pushed */\01223 25 28 \012SRP1[ ]	/* SetRefPoint1 */\012SRP2[ ]	/* SetRefPoint2 */\012IP[ ]	/* InterpolatePts */\012PUSHW[ ]	/* 3 values pushed */\01224 25 28 \012SRP1[ ]	/* SetRefPoint1 */\012SRP2[ ]	/* SetRefPoint2 */\012IP[ ]	/* InterpolatePts */\012PUSHW[ ]	/* 3 values pushed */\01230 25 28 \012SRP1[ ]	/* SetRefPoint1 */\012SRP2[ ]	/* SetRefPoint2 */\012IP[ ]	/* InterpolatePts */\012IUP[0]	/* InterpolateUntPts */\012IUP[1]	/* InterpolateUntPts */";
};
width = 449;
}
);
note = X.tabular;
},
{
glyphname = Y.tabular;
lastChange = "2021-12-03 07:30:48 +0000";
layers = (
{
anchors = (
{
name = bottom;
position = "{181, 0}";
},
{
name = top;
position = "{252, 495}";
},
{
name = topleft;
position = "{68, 591}";
}
);
layerId = "6544E2DB-1912-401E-9B5B-A29F161A5995";
paths = (
{
closed = 1;
nodes = (
"259 0 LINE",
"286 198 LINE",
"419 496 LINE",
"262 496 LINE",
"247 456 LINE",
"242 496 LINE",
"76 496 LINE",
"124 205 LINE",
"96 0 LINE"
);
},
{
closed = 1;
nodes = (
"142 208 LINE",
"98 478 LINE",
"227 478 LINE",
"236 385 LINE",
"273 478 LINE",
"394 478 LINE",
"270 201 LINE",
"244 18 LINE",
"115 18 LINE"
);
},
{
closed = 1;
nodes = (
"237 27 LINE",
"262 203 LINE",
"380 469 LINE",
"278 469 LINE",
"241 376 LINE",
"230 338 LINE",
"229 376 LINE",
"219 469 LINE",
"107 469 LINE",
"151 211 LINE",
"125 27 LINE"
);
}
);
userData = {
assembly = "SVTCA[0]	/* SetFreedomAndProjectionVectorToAxis */\012PUSHW[ ]	/* 1 value pushed */\0120 \012RCVT[ ]	/* ReadCVT */\012IF[ ]	/* If */\012PUSHW[ ]	/* 1 value pushed */\01220 \012MDAP[1]	/* MoveDirectAbsPt */\012ELSE[ ]	/* Else */\012PUSHW[ ]	/* 2 values pushed */\01220 11 \012MIAP[0]	/* MoveIndirectAbsPt */\012EIF[ ]	/* EndIf */\012PUSHW[ ]	/* 1 value pushed */\0120 \012RCVT[ ]	/* ReadCVT */\012IF[ ]	/* If */\012PUSHW[ ]	/* 1 value pushed */\01225 \012MDAP[1]	/* MoveDirectAbsPt */\012ELSE[ ]	/* Else */\012PUSHW[ ]	/* 2 values pushed */\01225 11 \012MIAP[0]	/* MoveIndirectAbsPt */\012EIF[ ]	/* EndIf */\012PUSHW[ ]	/* 1 value pushed */\0120 \012RCVT[ ]	/* ReadCVT */\012IF[ ]	/* If */\012PUSHW[ ]	/* 1 value pushed */\01222 \012MDAP[1]	/* MoveDirectAbsPt */\012ELSE[ ]	/* Else */\012PUSHW[ ]	/* 2 values pushed */\01222 7 \012MIAP[0]	/* MoveIndirectAbsPt */\012EIF[ ]	/* EndIf */\012PUSHW[ ]	/* 3 values pushed */\0120 22 20 \012SRP1[ ]	/* SetRefPoint1 */\012SRP2[ ]	/* SetRefPoint2 */\012IP[ ]	/* InterpolatePts */\012PUSHW[ ]	/* 3 values pushed */\0128 22 20 \012SRP1[ ]	/* SetRefPoint1 */\012SRP2[ ]	/* SetRefPoint2 */\012IP[ ]	/* InterpolatePts */\012PUSHW[ ]	/* 3 values pushed */\01212 22 20 \012SRP1[ ]	/* SetRefPoint1 */\012SRP2[ ]	/* SetRefPoint2 */\012IP[ ]	/* InterpolatePts */\012PUSHW[ ]	/* 3 values pushed */\01219 22 20 \012SRP1[ ]	/* SetRefPoint1 */\012SRP2[ ]	/* SetRefPoint2 */\012IP[ ]	/* InterpolatePts */\012PUSHW[ ]	/* 3 values pushed */\01227 22 20 \012SRP1[ ]	/* SetRefPoint1 */\012SRP2[ ]	/* SetRefPoint2 */\012IP[ ]	/* InterpolatePts */\012IUP[0]	/* InterpolateUntPts */\012IUP[1]	/* InterpolateUntPts */";
};
width = 448;
}
);
note = Y.tabular;
},
{
glyphname = Z.tabular;
lastChange = "2021-12-03 07:30:48 +0000";
layers = (
{
anchors = (
{
name = bottom;
position = "{169, 0}";
},
{
name = center;
position = "{222, 296}";
},
{
name = top;
position = "{237, 495}";
}
);
layerId = "6544E2DB-1912-401E-9B5B-A29F161A5995";
paths = (
{
closed = 1;
nodes = (
"289 0 LINE",
"308 136 LINE",
"239 136 LINE",
"346 409 LINE",
"358 496 LINE",
"124 496 LINE",
"105 360 LINE",
"161 360 LINE",
"61 103 LINE",
"47 0 LINE"
);
},
{
closed = 1;
nodes = (
"77 103 LINE",
"185 377 LINE",
"123 377 LINE",
"138 478 LINE",
"340 478 LINE",
"330 410 LINE",
"216 119 LINE",
"289 119 LINE",
"275 18 LINE",
"65 18 LINE"
);
},
{
closed = 1;
nodes = (
"268 27 LINE",
"280 110 LINE",
"203 110 LINE",
"323 413 LINE",
"330 469 LINE",
"144 469 LINE",
"133 386 LINE",
"197 386 LINE",
"85 100 LINE",
"74 27 LINE"
);
}
);
userData = {
assembly = "SVTCA[0]	/* SetFreedomAndProjectionVectorToAxis */\012PUSHW[ ]	/* 1 value pushed */\0120 \012RCVT[ ]	/* ReadCVT */\012IF[ ]	/* If */\012PUSHW[ ]	/* 1 value pushed */\01224 \012MDAP[1]	/* MoveDirectAbsPt */\012ELSE[ ]	/* Else */\012PUSHW[ ]	/* 2 values pushed */\01224 11 \012MIAP[0]	/* MoveIndirectAbsPt */\012EIF[ ]	/* EndIf */\012PUSHW[ ]	/* 1 value pushed */\0120 \012RCVT[ ]	/* ReadCVT */\012IF[ ]	/* If */\012PUSHW[ ]	/* 1 value pushed */\01220 \012MDAP[1]	/* MoveDirectAbsPt */\012ELSE[ ]	/* Else */\012PUSHW[ ]	/* 2 values pushed */\01220 7 \012MIAP[0]	/* MoveIndirectAbsPt */\012EIF[ ]	/* EndIf */\012PUSHW[ ]	/* 4 values pushed */\0124 2 3 4 \012CALL[ ]	/* CallFunction */\012PUSHW[ ]	/* 1 value pushed */\01224 \012SRP0[ ]	/* SetRefPoint0 */\012PUSHW[ ]	/* 2 values pushed */\0122 4 \012MIRP[10100]	/* MoveIndirectRelPt */\012PUSHW[ ]	/* 1 value pushed */\01220 \012SRP0[ ]	/* SetRefPoint0 */\012PUSHW[ ]	/* 2 values pushed */\0127 4 \012MIRP[10100]	/* MoveIndirectRelPt */\012PUSHW[ ]	/* 2 values pushed */\0129 2 \012MIRP[10100]	/* MoveIndirectRelPt */\012PUSHW[ ]	/* 2 values pushed */\01227 4 \012MIRP[10100]	/* MoveIndirectRelPt */\012PUSHW[ ]	/* 3 values pushed */\01212 9 27 \012SRP1[ ]	/* SetRefPoint1 */\012SRP2[ ]	/* SetRefPoint2 */\012IP[ ]	/* InterpolatePts */\012PUSHW[ ]	/* 3 values pushed */\01217 20 24 \012SRP1[ ]	/* SetRefPoint1 */\012SRP2[ ]	/* SetRefPoint2 */\012IP[ ]	/* InterpolatePts */\012PUSHW[ ]	/* 3 values pushed */\01222 20 24 \012SRP1[ ]	/* SetRefPoint1 */\012SRP2[ ]	/* SetRefPoint2 */\012IP[ ]	/* InterpolatePts */\012IUP[0]	/* InterpolateUntPts */\012IUP[1]	/* InterpolateUntPts */";
};
width = 429;
}
);
note = Z.tabular;
},
{
glyphname = a;
lastChange = "2021-12-03 07:30:48 +0000";
layers = (
{
anchors = (
{
name = bottom;
position = "{165, 0}";
},
{
name = ogonek;
position = "{332, 0}";
},
{
name = top;
position = "{235, 495}";
}
);
layerId = "6544E2DB-1912-401E-9B5B-A29F161A5995";
paths = (
{
closed = 1;
nodes = (
"154 -6 OFFCURVE",
"169 -3 OFFCURVE",
"182 4 CURVE",
"182 0 LINE",
"340 0 LINE",
"408 495 LINE",
"219 495 LINE",
"219 493 LINE",
"207 497 OFFCURVE",
"189 501 OFFCURVE",
"169 501 CURVE SMOOTH",
"115 501 OFFCURVE",
"52 475 OFFCURVE",
"39 380 CURVE SMOOTH",
"10 168 LINE SMOOTH",
"8 151 OFFCURVE",
"6 132 OFFCURVE",
"6 117 CURVE SMOOTH",
"6 11 OFFCURVE",
"52 -6 OFFCURVE",
"135 -6 CURVE SMOOTH"
);
},
{
closed = 1;
nodes = (
"172 98 OFFCURVE",
"169 100 OFFCURVE",
"167 104 CURVE SMOOTH",
"164 108 OFFCURVE",
"164 115 OFFCURVE",
"165 125 CURVE SMOOTH",
"199 365 LINE SMOOTH",
"200 375 OFFCURVE",
"203 382 OFFCURVE",
"206 386 CURVE SMOOTH",
"209 390 OFFCURVE",
"213 392 OFFCURVE",
"217 392 CURVE SMOOTH",
"220 392 OFFCURVE",
"223 391 OFFCURVE",
"227 390 CURVE SMOOTH",
"232 389 LINE",
"195 125 LINE SMOOTH",
"192 105 OFFCURVE",
"185 98 OFFCURVE",
"176 98 CURVE SMOOTH"
);
},
{
closed = 1;
nodes = (
"181 107 OFFCURVE",
"184 113 OFFCURVE",
"186 126 CURVE SMOOTH",
"222 383 LINE",
"217 383 LINE SMOOTH",
"212 383 OFFCURVE",
"209 377 OFFCURVE",
"208 364 CURVE",
"174 124 LINE SMOOTH",
"172 113 OFFCURVE",
"173 107 OFFCURVE",
"176 107 CURVE SMOOTH"
);
},
{
closed = 1;
nodes = (
"65 12 OFFCURVE",
"23 28 OFFCURVE",
"23 117 CURVE SMOOTH",
"23 132 OFFCURVE",
"25 148 OFFCURVE",
"27 165 CURVE SMOOTH",
"57 377 LINE SMOOTH",
"69 461 OFFCURVE",
"123 483 OFFCURVE",
"169 483 CURVE SMOOTH",
"202 483 OFFCURVE",
"222 473 OFFCURVE",
"234 461 CURVE",
"236 477 LINE",
"388 477 LINE",
"325 18 LINE",
"203 18 LINE",
"204 38 LINE",
"189 23 OFFCURVE",
"170 12 OFFCURVE",
"135 12 CURVE SMOOTH"
);
},
{
closed = 1;
nodes = (
"179 21 OFFCURVE",
"206 49 OFFCURVE",
"218 69 CURVE",
"212 27 LINE",
"317 27 LINE",
"378 469 LINE",
"243 469 LINE",
"239 438 LINE",
"231 455 OFFCURVE",
"216 474 OFFCURVE",
"169 474 CURVE SMOOTH",
"127 474 OFFCURVE",
"76 453 OFFCURVE",
"65 376 CURVE SMOOTH",
"36 165 LINE SMOOTH",
"19 44 OFFCURVE",
"56 21 OFFCURVE",
"135 21 CURVE SMOOTH"
);
}
);
userData = {
assembly = "PUSHW[ ]	/* 4 values pushed */\0120 6 78 4 \012CALL[ ]	/* CallFunction */\012NPUSHW[ ]	/* 9 values pushed */\0126 0 22 0 38 0 54 0 4 \012DELTAP1[ ]	/* DeltaExceptionP1 */\012PUSHW[ ]	/* 1 value pushed */\01278 \012SRP0[ ]	/* SetRefPoint0 */\012PUSHW[ ]	/* 1 value pushed */\01281 \012MDRP[10000]	/* MoveDirectRelPt */\012PUSHW[ ]	/* 1 value pushed */\01281 \012MDAP[1]	/* MoveDirectAbsPt */\012SVTCA[0]	/* SetFreedomAndProjectionVectorToAxis */\012PUSHW[ ]	/* 1 value pushed */\01211 \012MDAP[1]	/* MoveDirectAbsPt */\012PUSHW[ ]	/* 1 value pushed */\01215 \012MDAP[1]	/* MoveDirectAbsPt */\012PUSHW[ ]	/* 1 value pushed */\0120 \012MDAP[1]	/* MoveDirectAbsPt */\012PUSHW[ ]	/* 1 value pushed */\01217 \012MDAP[1]	/* MoveDirectAbsPt */\012PUSHW[ ]	/* 1 value pushed */\01211 \012SRP0[ ]	/* SetRefPoint0 */\012PUSHW[ ]	/* 2 values pushed */\01232 2 \012MIRP[10100]	/* MoveIndirectRelPt */\012PUSHW[ ]	/* 3 values pushed */\01214 11 32 \012SRP1[ ]	/* SetRefPoint1 */\012SRP2[ ]	/* SetRefPoint2 */\012IP[ ]	/* InterpolatePts */\012PUSHW[ ]	/* 1 value pushed */\01211 \012SRP0[ ]	/* SetRefPoint0 */\012PUSHW[ ]	/* 1 value pushed */\01216 \012MDRP[10000]	/* MoveDirectRelPt */\012PUSHW[ ]	/* 1 value pushed */\01216 \012MDAP[1]	/* MoveDirectAbsPt */\012PUSHW[ ]	/* 1 value pushed */\0120 \012SRP0[ ]	/* SetRefPoint0 */\012PUSHW[ ]	/* 1 value pushed */\01218 \012MDRP[10000]	/* MoveDirectRelPt */\012PUSHW[ ]	/* 1 value pushed */\01218 \012MDAP[1]	/* MoveDirectAbsPt */\012PUSHW[ ]	/* 1 value pushed */\0120 \012SRP0[ ]	/* SetRefPoint0 */\012PUSHW[ ]	/* 2 values pushed */\01224 2 \012MIRP[10100]	/* MoveIndirectRelPt */\012PUSHW[ ]	/* 3 values pushed */\01251 0 24 \012SRP1[ ]	/* SetRefPoint1 */\012SRP2[ ]	/* SetRefPoint2 */\012IP[ ]	/* InterpolatePts */\012PUSHW[ ]	/* 1 value pushed */\0120 \012SRP0[ ]	/* SetRefPoint0 */\012PUSHW[ ]	/* 1 value pushed */\01252 \012MDRP[10000]	/* MoveDirectRelPt */\012PUSHW[ ]	/* 1 value pushed */\01252 \012MDAP[1]	/* MoveDirectAbsPt */\012PUSHW[ ]	/* 1 value pushed */\01211 \012SRP0[ ]	/* SetRefPoint0 */\012PUSHW[ ]	/* 1 value pushed */\01254 \012MDRP[10000]	/* MoveDirectRelPt */\012PUSHW[ ]	/* 1 value pushed */\01254 \012MDAP[1]	/* MoveDirectAbsPt */\012PUSHW[ ]	/* 3 values pushed */\01256 11 32 \012SRP1[ ]	/* SetRefPoint1 */\012SRP2[ ]	/* SetRefPoint2 */\012IP[ ]	/* InterpolatePts */\012IUP[0]	/* InterpolateUntPts */\012IUP[1]	/* InterpolateUntPts */";
};
width = 400;
}
);
leftKerningGroup = a;
leftMetricsKey = o;
note = a;
rightKerningGroup = a;
rightMetricsKey = "=n+5";
unicode = 0061;
},
